<?xml version="1.0" encoding="UTF-8"?>
<svg id="Layer_1" data-name="Layer 1" xmlns="http://www.w3.org/2000/svg" version="1.1" viewBox="0 0 612 792">
  <defs>
    <style>
      .cls-1 {
        fill: #9c8faa;
      }

      .cls-1, .cls-2, .cls-3, .cls-4, .cls-5, .cls-6, .cls-7, .cls-8, .cls-9, .cls-10, .cls-11, .cls-12, .cls-13, .cls-14, .cls-15, .cls-16, .cls-17, .cls-18, .cls-19, .cls-20, .cls-21, .cls-22 {
        stroke-width: 0px;
      }

      .cls-2 {
        fill: #997137;
      }

      .cls-3 {
        fill: #352b5f;
      }

      .cls-4 {
        fill: #d8cef3;
      }

      .cls-5 {
        fill: #48416d;
      }

      .cls-6 {
        fill: #cedbf4;
        isolation: isolate;
        opacity: .3;
      }

      .cls-7 {
        fill: #f6effd;
      }

      .cls-8 {
        fill: #f9c041;
      }

      .cls-9 {
        fill: #c1913d;
      }

      .cls-10 {
        fill: #736aa8;
      }

      .cls-11 {
        fill: #181630;
      }

      .cls-12 {
        fill: #ffd066;
      }

      .cls-13 {
        fill: #c7b7c7;
      }

      .cls-14 {
        fill: #bc7a11;
      }

      .cls-15 {
        fill: #575284;
      }

      .cls-16 {
        fill: #efcef4;
      }

      .cls-17 {
        fill: #413575;
      }

      .cls-18 {
        fill: #9c80b0;
      }

      .cls-19 {
        fill: #937ca0;
      }

      .cls-20 {
        fill: #7b6d84;
      }

      .cls-21 {
        fill: #fdfdfe;
      }

      .cls-22 {
        fill: #656384;
      }
    </style>
  </defs>
  <g id="Oscar">
    <g id="OSCAR_HIMSELF" data-name="OSCAR HIMSELF">
      <g id="Oscar_Left_Ear" data-name="Oscar Left Ear">
        <path class="cls-3" d="M136.3,238.9c-7.6-5.9-11.8-13.6-13-23.1-.2-1.4,0-3,0-4.4,0-1.4.5-3.7,1.3-6.6,6.5-14.9,18.2-24.7,32.6-22.8,2.5.3,4.8,1.1,7.2,2,.1,0,.2,0,.3.1,3.3-4.5,6.8-8.9,10.4-13.2-.8-.3-1.7-.8-3-1.4-12.8-6.3-34.4-1-37.9.3-2.4,1.1-6.2,2.6-8.6,4.5s-6.2,5.1-8.4,8.1c-2.3,3-4.9,6.3-6.5,9.9s-2.9,6.8-3.7,10.5c-1.8,8.1-.3,19.9.6,24.1,1.2,4.1,2.1,5.9,3.2,7.9s2.9,4.9,4.4,7.4h0c.8,1.1,1.8,2.2,2,2.5.2.3.7.7,1,1.1.3.3.6.6,1,1,.4.4,5.9,5.3,9.4,7.3,2.1,1.2,4.1,2.5,6.5,3.1,0,0,.1,0,.2,0,.3-5.9,1.1-11.8,2.4-17.5-.4-.2-.8-.4-1.2-.8h0Z"/>
        <path class="cls-13" d="M136.5,236c0,.3-.1.6-.1.9,0,.8-.1,1-.3,1.6-.6,3.4-.9,3.7-4,1.5-7.6-5.9-11.8-13.6-13-23.1,3.4,1.2,5.8,0,6.6-3.4,1.3-5.9,4-11.1,8.8-14.9,6.5-5.3,13.8-8.5,22.3-4.9-2.5,3.8-5.1,7.6-7.6,11.4-1.8-.2-3.8.2-5.5.5-6.1,1.2-12.7,8.8-12.1,15,.5,5.4,3.4,13.2,5.1,15.5h0Z"/>
        <path class="cls-7" d="M156.7,193.7c-8.5-3.6-15.9-.4-22.4,4.9-4.8,3.9-7.5,9-8.8,14.9-.8,3.5-3.2,4.7-6.6,3.4-.2-1.4,0-3.8,0-4.4s.1-1.2.4-1.9c0-.7.5-3.3.6-3.6s.1.5,1.4-3.3c4.4-12.6,21.3-22.1,32.6-22.5,4.1-.2,5.7.3,8.1,1.3,4.1,1.7,4.4.5-.8,5.2-1.8,1.7-3,3.9-4.5,5.9h0Z"/>
        <path class="cls-18" d="M136.5,236c-1.8-2.3-4.6-10.2-5.1-15.5-.6-6.1,6-13.7,12.1-15,1.7-.3,3.8-.9,5.6-.6-2.3,4.8-4.6,9.5-6.9,14.4-2.1,4.7-3.8,9.5-4.8,14.6-.1.7-.1,1.6-1,2.1Z"/>
      </g>
      <g id="Oscar_Right_Ear" data-name="Oscar Right Ear">
        <path class="cls-3" d="M462.5,184.6c.5-.3,1-.5,1.3-.6,0,0,2.8-1.5,5.1-1.5,13.3-1.6,18.2,1.9,22.9,7.2,8.1,8.9,11.1,15.3,11.9,20.1,3.8,16.2-5.5,25.6-5.5,25.6-2,2.5-4,4.1-7.1,5.7-1,.4-2,.6-2.6.5,1.3,5.5,2.4,11.1,3.2,16.7.2-.1.5-.3.9-.4,13.2-4.8,21.5-14.3,26.3-27.2.9-2.4,1.3-5,1.9-7.5,0,0,.2-.4.3-1.1,0-.6.3-4.3.4-6.4v-1.1c0-2-.1-4.4-.2-5.9,0-1.6-.4-3.4-.5-4.2-1-7.9-4-12.8-8.6-19.1-2.8-3.8-8-8.6-9.1-9.5-1.2-.9-2.1-1.6-3.9-2.8-1.8-1.1-2.5-1.6-3.4-2s-2.7-1.2-3.5-1.6-3.1-1.4-4.5-1.8-1.7-.5-3.5-1-3.5-.8-6-1c-2.5-.2-6.4-.1-8.4,0-2,.2-5.3.7-7.7,1.4s-7.1,2.7-10.3,4.9c-.1,0-.2.1-.3.1,4,3.9,7.6,8,11,12.4h0Z"/>
        <path class="cls-18" d="M505.2,230.7c-.9,1.9-1.4,2.8-3,4.9-2.4,3.4-4.7,4.7-7.1,6.8-1.9,1.6-4.9.7-5.2-1.7-3-13.8-6.4-19.8-11.2-30.9-.5-.9-1.3-1.8-1.1-3,.9-.2,1.8-.6,2.6-.5,5.4.4,9.9,2.2,12.4,7.5,1.5,3.3,2.5,3.6,6.1,2.3.4-.1.8-.1,1.2-.1,0,1.4.8,2,2.2,2,1,0,1.9,0,2.9,0,1,.4,2.8,1.8,2.8,1.8.4,3.2-1.3,7.6-1.4,8-.2.7-.3,1.1-1.2,3.1h0Z"/>
        <path class="cls-7" d="M469.3,193.7c-.8,0-6.1-7.9-6.5-8.4s-.2-1-.2-1.5,2.8-1.7,3.4-2c1.7-.7,2.9-.8,4.3-1,6.4-.6,10.9.5,14,1.5s9.2,4,16.5,12.6c2,2.1,3.8,6.9,4.8,9.8.5,1.3.7,1.9.9,3.8,0,.6.1.7.4,2.1.5,2.1.8,3.9.9,5.1.1,2.1,1.6,8.2-2.8,2-1,0-1.9,0-2.9,0-1.4,0-2.1-.6-2.2-2,0-.4.1-.8,0-1.2-1.5-6.9-4.8-12.8-10.5-17.1-5.1-3.8-10.8-5.8-17.3-4-.9.3-2,.1-3,.1"/>
        <path class="cls-13" d="M469.3,193.7c1,0,2,.1,3-.1,6.5-1.8,12.2.2,17.3,4,5.7,4.2,9,10.1,10.5,17.1,0,.4,0,.8,0,1.2-.4,0-.8,0-1.2.1-3.6,1.3-4.5,1-6.1-2.3-2.5-5.3-7-7.1-12.4-7.5-.9,0-1.8.3-2.6.5-.8-.3-1.4-.8-1.8-1.6-1.8-4-4.1-7.8-6.5-11.4h0Z"/>
      </g>
      <g id="Oscar_Body" data-name="Oscar Body">
        <path class="cls-13" d="M119.1,692.7c4.7,4.9,9.6,9.6,15.1,13.7,8,5.9,16.6,10.9,26.1,13.8,14.9,4.4,29.7,4.4,43.8-3.1,1.1-.6,2.3-1.1,3.1-2,2.3-2.5,5-2.4,8-1.5,14.6,4.5,29.7,6.4,44.8,8.5,18.4,2.5,37,3.1,55.5,3.1s39-1.4,58.4-4.1c12.7-1.8,25.3-3.8,37.8-6.6,1.4-.3,2.6-.2,3.8.7,12,8.1,25.4,9.5,39.2,7,19.5-3.4,35.3-13.5,48.4-28.1.4-.4.8-.8,1.2-1.2.2,1.1,1.1,1.2,1.9,1.3,8.6,1.6,17,4,25.3,6.4,4.2,1.2,8.4,2.6,12,5.2,2.8,2,3.2,4.7,1.2,6.4-2.1,1.8-4.3,3.4-6.9,4.3-13.7,5.1-27.9,8.1-42.2,11-7.4,1.5-14.8,2.8-22.2,4-9.9,1.7-19.7,3.3-29.7,4.5-9.7,1.2-19.5,1.7-29.1,3.2-5.8.9-11.7,1.1-17.6,1.6-9,.7-18,1.2-27.1,1.7-8.2.4-16.5.3-24.6.9-17.1,1.3-34.2.9-51.4.8-10.7,0-21.4-.6-32.1-1-9.8-.4-19.5-1.2-29.3-2-8.5-.6-17-1.2-25.5-2.2-5.1-.6-10.2-1-15.4-1.3-4.5-.2-9-1-13.6-1.6-5.3-.7-10.6-1.5-15.9-2.3-5.1-.8-10.1-1.8-15.2-2.7-5.9-1-11.8-1.8-17.6-2.8-2.8-.5-5.5-1.5-8.4-2.1-7.9-1.5-15.7-3.1-23.4-5.3-5.4-1.6-10.6-3.7-15.8-5.9-1.8-.7-3.2-2.7-4.4-4.3-.8-1.1-.4-2.5.6-3.6,2.5-2.5,5.6-3.9,8.8-5,4.7-1.7,9.3-3.5,14.2-4.5,4.9-1,9.5-3.2,14.7-3.3,1.1,0,2.6,0,3-1.6h0Z"/>
        <path class="cls-13" d="M458.1,392.5c-.1-.5-4-18.9-5.5-28.6-2.9.4-4.8,1.8-6.7,3.5-7,5.9-14.3,11.5-22.2,16.2-6.7,4-13.4,7.8-20.5,10.9-3,1.3-3.5,1-3.4-2.2,0-1.9.9-3.7.3-5.7-1.4,1.8-.9,4-1.2,6.1-.2,1.3,0,2.6,0,4-1.6,5-1.3,10.3-1.9,15.5-1.1,10.3-1.1,20.7-2.5,31-.4,2.8.6,5.8-1,8.5,0,2.6,1.7,4.6,2.8,6.8,2.6,4.8,5,9.7,6.7,14.9,1.5,4.6,2.7,9.2,3.8,13.9,1.8,8,4,15.9,2.8,24.2-.4,2.6-.5,5.3,0,7.9.8-.9.6-2,.7-3.1.2-3.9.7-6.9.7-10.9,0-5.7,3.2-10.4,8.6-10.4,5.7,0,9.5,3.7,9.6,9.5.1,7.8-.6,15.4-1.9,23.1-2.6,15.5-7.8,30-15.4,43.7-2.3,4.1-5.4,7.7-7,12.2,1.9,1.9,7,1.9,9,1.4,7.2-1.7,13.6-5.5,19.8-9.6,7.9-5.2,13.8-12.4,19.2-19.9,2.7-3.7,4.6-7.8,6.5-12,1.6-3.6,3.3-7.2,4.6-11,1.8-5.5,3-11.2,4.1-16.8,1.2-5.7.9-11.5,1.7-17.3.4-3,.1-6,.9-9-1.1-3-.6-6.2-.9-9.3-1.1-10-2.3-19.9-4-29.8-.9-4.9-1.2-9.9-2.2-14.7-2-9.2-2.7-18.5-4.2-27.7-.3-1.7-.5-3.4-.9-5.1-.4-1.6.9-2.3.9-5.4s-.7-4.2-.8-4.7h0Z"/>
        <path class="cls-13" d="M217.5,481.3c0,.5-.2.7-.4,1.4s-.5,1.8-.6,2.4c-.2,1.2-.4,1.9-.4,1.9,0,0-.4,1.6-.7,2.1s-1.3,7-1.6,10.6c0,.7-.2,1.5-1,1.9-.8-.5-.9-1.4-1.3-2-2.1-3.6-6.3-5.4-10.2-4.5-3.9.9-6.6,4-6.8,8.2-.4,10,.3,20,2.3,29.8,2.2,10.5,5.5,20.7,10.4,30.3,3.1,6.1,6.6,11.9,10.4,17.6,1,1.5,1.8,2.9.4,4.6-2.9-.3-5.7-1-8.4-1.9-9-3.1-16.8-8.3-23.8-14.6-7.7-7-13.8-15.3-18.4-24.8-4.4-9-7.2-18.5-8.9-28.4-1.5-8.8-1.3-17.7-2-26.5.6-.7.6-1.6.4-2.4-1.1-5.6.6-11.1,1-16.6.6-7.8,2.3-15.4,3.4-23.1,1.5-10.8,3.4-21.5,4.9-32.2,1.2-8.4,2.1-16.8,1.9-25.3,0-.8.1-1.7-1-2,0-.3,0,0,0-1s.5-2,.6-2.5,0-.9.3-2,.7-3.1.8-3.5,0-.4.2-1.5.8-3.7.8-4,0-.7.1-1.5.8-4.2.8-4.5,0-.6.1-1c1.6-1.6.3-4.1,1.8-5.9,2.1,2.4,3.9,4.8,6,7.1,5.7,6.2,12.4,11.2,19.8,15.3,6.4,3.5,12.3,7.8,18.9,10.9,2.4,1.1,4.6,2.6,7.2,3.1.2.2.3.3.5.5.5,6.1,1.2,12.2,1.5,18.3.2,5,.8,9.9,1.2,14.9.6,8.2,1.6,16.5,1.8,24.8-2.7,4.7-8.6,16.5-7.6,14.4s-2.1,3.9-2.7,6.1c0,.3,0,.4-.1,1s-.4.5-.5,1c-.2.8-.2.9-.5,2s-.3.7-.5,1.7h0Z"/>
        <path class="cls-18" d="M222.6,667.1c3.1-.5,5.9.9,8.7,1.6,11,2.9,22.2,4.8,33.5,6.3,14.3,1.9,28.7,3,43.1,3.6,10,.4,19.9-.7,29.8-1.1,8.2-.3,16.3-1.7,24.5-2.7,6.1-.8,12.1-2.2,18.1-3.5,7.2-1.5,14.8-3.2,21.9-4.8-2,3.9-4,7.7-4.6,12.2-.7,5.3-.2,10.2,1.7,15.2,1.1,2.8.9,3-1.8,3.8-12.6,3.6-23.5,5.8-38.8,7.4-18.8,2.8-32.6,3-49,2.7-14.3-.2-28.6-1-42.8-2.8-11.9-1.5-23.7-3.2-35.2-6.6-2.1-.6-4.3-1.4-6.4-2-1.1-.3-1.6-.8-1-2,4.1-8.6,2.7-17-.7-25.3-.3-.7-.5-1.4-.8-2.1h0Z"/>
        <path class="cls-18" d="M414.3,684.3c4.4,7.2,11.6,8.8,19.2,9.7,6.2.7,12.1-.3,17.9-1.8,7.9-2.1,15.2-5.4,21.9-10.2,10.3-7.5,18.5-16.7,24.9-27.7,1.2-2,2.5-3.9,3.5-6,2.4-4.6,3.9-9.6,5.5-14.5,1.5-4.4,2.3-8.8,3.2-13.2.1-.7,0-1.8,1-1.7.8,0,.5,1.1.5,1.7-.1,4.7.3,9.3-.2,13.9-.1.9.4,1.7,1.4,1.9-.5,4.5-1.4,10.1-2.9,14.3-5.3,14.6-12.9,27.7-24.3,38.4-10,9.2-21.5,15.1-34.9,17.5-6.9,1.2-13.5,1.3-20.1-1.1-8.3-2.9-16.2-12.7-16.6-21.1h0Z"/>
        <path class="cls-18" d="M112.7,641.8c1.2-.6.7-1.6.6-2.4-.4-3.8-.9-7.6-.9-11.4,0-.6-.3-1.3.6-1.8.8,2.6,1.6,5.2,2.3,7.7,2.5,8.2,6.5,15.8,10.6,23.2,5.1,9.2,12.1,16.7,20.6,22.9,7.9,5.8,16.5,9.9,25.8,12.5,9.4,2.7,18.8,2.8,28-1.1,3.1-1.3,6.3-4.3,8.8-6.4-1,5.7-5.7,14.5-13,17.9-9.2,4.2-19.1,3.4-28.4.6-23.3-7-39.2-22.2-49.1-44.2-2.4-5.2-4.3-10.6-5.9-16.1-.1-.5,0-1-.1-1.5h0Z"/>
        <path class="cls-18" d="M404.6,583.5c1.9,1.9,4.4,1.3,6.4.8,7.2-1.7,13.6-5.5,19.8-9.6,7.9-5.2,13.8-12.4,19.2-19.9,2.7-3.7,4.6-7.8,6.5-12,1.6-3.6,3.3-7.2,4.6-11,1.8-5.5,3-11.2,4.1-16.8,1.2-5.7.9-11.5,1.7-17.3.4-3,.1-6,.9-9,2.7-.6,5.7-1.2,8.4-1.9.8,1.8.7,3.8.6,5.6-.3,8.5-.6,17.1-1.8,25.6-2.3,15.9-8.5,30.1-18.2,42.9-9,11.8-20.7,19.8-34.5,24.9-4.1,1.5-8.3,2.3-12.7,2.2-2.7,0-4.9-2-4.9-4.6h0Z"/>
        <path class="cls-18" d="M156.4,489.2c.7,8.8.5,17.7,2,26.5,1.7,9.9,4.4,19.4,8.9,28.4,4.6,9.5,10.7,17.8,18.4,24.8,6.9,6.3,14.7,11.5,23.8,14.6,2.8,1,5.5,1.6,8.4,1.9-1.6,2.7-3.4,3.6-6.8,3-8.3-1.3-15.9-4.6-22.9-9-12.5-7.8-22.5-18-29.5-31.1-4.3-8-6.9-16.5-8.7-25.3-2.4-11.8-3-23.7-2.3-35.7.1-1.8-.9-3.6.4-5.3-.3,4.3,2.5,5.7,6,6.5.8.2,1.7.4,2.5.6h0Z"/>
        <path class="cls-21" d="M156.4,489.2c-.8-.2-1.7-.4-2.5-.6-3.4-.9-6.3-2.3-6-6.5,0-1.9.1-4.5.2-5.8s.3-1.8.3-2.3.2-1.3.2-1.9,0-.5,0-1,.1-3,.2-3.8.3-1.2.4-1.8.5-4,.6-4.7.2-1,.4-1.8.6-3.5.6-4.2.3-1.3.4-1.8.4-2.6.6-3.2.2-.8.4-1.3,2-9,2.2-9.7.2-.5.4-1.3.4-2.2.6-2.7c.2-.6.4-1.2.5-1.6.2-.7,7.1-28.8,7.2-29.3s.3-.9.4-1.3.5-2.6.6-3.2.3-1,.3-1.3.4-1.9.6-2.4.5-1.4.5-1.7.2-1.1.2-1.6c0-.3,0-1,.2-1.3s0-.6.2-1.2c.1-.2.2-1,.3-1.3s.1-.6.2-.9c1.1.3,1,1.2,1.1,2,.2,8.5-.7,16.9-1.9,25.3-1.5,10.8-3.3,21.5-4.9,32.2-1.1,7.7-2.7,15.4-3.4,23.1-.4,5.5-2.1,11-1,16.6.2.8.1,1.7-.4,2.4h0Z"/>
        <path class="cls-21" d="M458.9,397.1c.1.7.4,2,.5,2.5s.4,1,.4,1.5,5.6,22.3,8.3,33.5c.6,2.4,1.4,6.6,1.6,7.3s.3.8.4,1.3.5,3.2.6,3.7.2.9.3,1.3,1.1,6.3,1.3,6.8.2.7.3,1.2.6,3.2.7,3.7.2.9.2,1.3.7,4.6.8,5.1.3.9.3,1.3.5,4,.6,4.7.3,1.1.4,1.8.6,6.5.9,9.8c0,1,.2,2-.4,2.9-2.7.6-5.7,1.2-8.4,1.9-1.1-3-.6-6.2-.9-9.3-1.1-10-2.3-19.9-4-29.8-.9-4.9-1.2-9.9-2.2-14.7-2-9.2-2.7-18.5-4.2-27.7-.3-1.7-.5-3.4-.9-5.1-.4-1.6,2.4-4.1,3.5-4.9"/>
        <path class="cls-18" d="M555.7,583.5c.9,5.9-.5,11.8-2.6,17.1-4,9.8-9.7,18.7-16.5,26.8-.6.7-1,2-2.1,1.5-.9-.4-1.4-.2-.8-2.8,1.3-8.8.8-17.7,1.1-26.6,1.8,1.7.1,4.1,1.1,6.1,1.2-1.5,2.3-3,3.6-4.1,5-4.2,9.5-8.8,12.9-14.4.8-1.3,1.4-3.1,3.2-3.5h0Z"/>
        <path class="cls-7" d="M482.5,554.3c-.7.9,1.7,1.2,2.6,1.7,6.9,3.6,12.2,9.1,16.7,15.3,6.7,9.4,8.9,20.2,9.4,31.4.2,5.4,0,16.5,5.2,16.3,0-3.5,2.8-13.4.5-22.1,0-.6,0-.4-.1-1.8s-.9-5.1-1-5.8,0,0-.2-1.3-.5-2.4-.8-3.3-.1-.8-.2-1.2c-.7-3.1-1-4.3-1.8-6.4-1.5-3.6-2.3-5.5-5-8.5,0,0-1.6-1.9-1.8-2.1s-.8-.8-1-1.1-2.1-2.1-2.5-2.5-.6-.6-1.1-1-.9-.7-1.6-1.3-2.4-1.7-2.7-1.9-3-1.6-3.5-1.9-7-3.6-8.3-3.5c-1.5,0-3,.9-3,.9"/>
        <path class="cls-7" d="M138,554.5c-.2.4,1,.6.1,1.1-6.6,4.2-11.8,9.8-16.4,16.1-4.2,5.7-6.8,12.1-8.2,19.1-.9,4.9-2.4,9.7-2,14.7,0,.9,0,1.7-1.1,2-1.5.3-2.9.3-4.1-1-.2-2.3,0-5.7,0-6.8s.4-3.8.4-3.8c0,0,0-.5,0-.8s.1-1.2.2-1.5,0-1.2.2-1.9.6-1.9.6-2.2,0-.5,0-.8,0-.6.1-1,0-.4.1-.9.5-1.4.6-1.8.2-1.2.4-1.7.5-.9.6-1.3.1-.6.3-1.2.4-.5.7-1.3,4.7-16.8,23.2-23.6c1.3-.5,2.6-1.2,4-1.2h0Z"/>
        <path class="cls-18" d="M223.4,606.1c-2.5,1.1-2.3,2.5-.8,4.4.5.7,1.2,1.4,1.1,2.4-5.8,1-11.6.3-17.3-.8-6.9-1.3-13.3-4.1-19.2-7.9-5.5-3.5-10.6-7.6-15.3-12.2-.6-.6-1.5-1.1-1.5-2.2,3.1,1.9,6.2,3.7,9.3,5.6,7.5,4.5,15.5,7.5,23.9,9.6,4.5,1.1,9.1,1.7,13.7,1.9,2.1,0,4-1.2,6.1-.9h0Z"/>
        <path class="cls-18" d="M400.2,612c.1-.3.3-.7.5-1,1.9-1,2.6-2.4,2-4.5,4.9.5,10.5,0,15.7-1,11.2-2.2,21.5-6.7,30.8-13.2.2-.2.6-.2.9-.2-1.9,3.5-5.1,5.7-8,8-7.2,5.7-15.3,9.9-24.4,11.6-5.8,1.1-11.7,1.3-17.5.3h0Z"/>
        <path class="cls-13" d="M555.7,583.5c-1.7.6-2.5,2.3-3.2,3.5-3.5,5.6-7.9,10.2-12.9,14.4-1.4,1.2-2.4,2.7-3.6,4.1-1-2,.7-4.4-1.1-6.1-.1-2.4-.2-6.2-.4-7.2s-.4-1.5-.5-2.3-.4-1.5-.1-2.4,1.6-1.3,2.5-1.1,1.9,0,2.7-.2,2.5-.7,3.2-.8.5,0,.8-.1c1-.3.9-.4,1.8-.6s2.4-.5,3-.7,1.1-.3,1.1-.3c0,0,2.6-.6,3-.7s.9-.2,1-.2,2.6-.8,3.1.6h0Z"/>
        <path class="cls-13" d="M403,606.5c.6,2.1-.4,3.5-2.3,4.5.9-3.5.9-3.5-2.8-5-6.6-2.5-10.9-7.2-12.9-13.9-.3-1,.4-3.1.5-3.1.1.2,1,6.8,4.1,9.7,4.1,4.2,7.7,5.8,13.5,7.8h0Z"/>
        <path class="cls-13" d="M221.2,606.2c-.6,2.1,0,4.2,2,5.1-.9-3.5-.4-3.7,3.3-5.1,6.6-2.5,10.9-7.2,12.9-13.9.3-1-.8-3-.8-3-.1.2-1.4,6.2-4.6,9.1-4.1,4.2-7,5.9-12.8,7.8h0Z"/>
        <path class="cls-13" d="M418.5,669.1c1.1-1.7,3.1-5.7,1.6-7.9-1.7-2.4-5.4-3.7-9-2.5-4,1.5-6.6,4.3-9,7.7-7.2,1.6-14.7,3.3-21.9,4.8-6,1.3-12,2.8-18.1,3.5-8.1,1-16.2,2.4-24.5,2.7-9.9.4-19.8,1.5-29.8,1.1-14.5-.5-28.8-1.7-43.1-3.6-11.3-1.5-22.4-3.4-33.5-6.3-2.8-.7-5.6-2.1-8.7-1.6-2.5-2.7-4.4-6.1-8-7.6-2-.9-3.6-1.5-5.9-1.2-4.8.6-7.1,5.4-4.4,9.4,3.3,4.8,4.8,9.8,4.9,10.2s.2.7.3,1.5.3,2.1.2,3.2c0,.3-.2,2.1-.8,3.1-.3.4-5.5,4.4-8.5,5.7-9.1,3.9-18.6,3.7-28,1.1-9.3-2.6-17.9-6.7-25.8-12.5-8.5-6.2-15.5-13.8-20.6-22.9-4.1-7.4-8.1-15-10.6-23.2-.8-2.6-1.6-5.1-2.3-7.7-.9.5-.6,1.2-.6,1.8,0,3.8.5,7.6.9,11.4,0,.8.6,1.8-.6,2.4,0-.3-.1-.6-.2-.9s-.5-1-.6-1.3c0-.1-4.3-17.5-5-26.7-.2-2.2-.5-4.4-.7-6.6,1.1,1.3,2.6,1.3,4.1,1,1-.2,1.2-1.1,1.1-2-.4-5.1,1.1-9.8,2-14.7,1.3-7,4-13.4,8.2-19.1,4.6-6.2,9.8-11.9,16.4-16.1.9-.5-.3-.7-.1-1.1,3.5-1.6,4-1.4,5.5,1.7,6,12.6,25.4,32.5,25.1,32.2s.7.6,1.1,1,.5.4.8.7c0,1.1.9,1.6,1.5,2.2,4.7,4.6,9.8,8.6,15.3,12.2,5.9,3.8,12.3,6.5,19.2,7.9,5.7,1.1,11.5,1.7,17.3.8,3.6,4.4,6.6,9.3,10.6,13.4,7.8,8.1,16.5,15,26.5,20,12.1,6,24.8,10,38.4,11.2,11.5,1,22.9,1,34.2-1.4,16.4-3.5,31.7-9.6,45-20.3,7.4-5.9,14.1-12.3,19.2-20.4.8-1.2,2-2.8,3.4-3.6,5.9,1,11,.8,16.8-.3,9.1-1.7,17.2-5.9,24.4-11.6,2.9-2.3,6.2-4.5,8-8,0,0,3.5-2.6,4.8-3.7s4.7-4,6.1-5.5,6.1-6.4,7.2-7.8,3.7-4.7,4.3-5.6l3-4.5c1.8-3.8,4.3-7.2,5.7-11.2.6-1.7,2-.8,3-.2-.5.2-1.8.6-1.8.7s1.7,1.2,2.6,1.7c6.9,3.6,12.2,9.1,16.7,15.3,6.7,9.4,8.9,20.2,9.4,31.4.2,5.4.4,5.4,5.7,5.3,0,0,.2,0,.2.2,0,0,.3,1.2.3,1.4s-.2,1.4-.3,2.5,0,1.3-.1,2,0,.9-.2,2,0,1.4-.5,3-.3,1.6-.3,1.9c0,.8,0,1,0,1.6s0,.3,0,1-.3,1.4-.4,2.4-.4,2.4-.4,3.2-.3,1.7-.6,2.5,0,.3-.2,1.4-.3,1.8-.6,2.6-.2.7-.2,1c-1.1-.2-1.7-1.1-1.6-2,.6-4.6.1-9.3.2-13.9,0-.6.3-1.6-.5-1.7-1-.1-.9,1-1,1.7-.9,4.5-1.7,8.9-3.2,13.2-1.6,4.9-3.1,9.9-5.5,14.5-1.1,2.1-2.4,4-3.5,6-6.4,11-14.6,20.3-24.9,27.7-6.7,4.8-14,8.1-21.9,10.2-5.9,1.6-11.7,2.6-17.9,1.8-7.7-.9-14.8-2.5-19.2-9.7-.4-2-.4-3.8,0-5.9.7-4.3,3.1-7.6,4.1-9.3h0Z"/>
        <path class="cls-7" d="M224.8,397.1c3.7,1.2,7.6,2.3,11.2,3.7,6.5,2.5,13.3,3.9,19.9,5.8,7.2,2,14.6,2.5,21.8,4.3,2.1.5,4.4.4,6.5,1.2-.9,2.3-3.4,1.9-4.9,2.2-4.6.9-8.6,3.1-12.6,5.2-7.5,3.9-14.4,8.7-20.5,14.8-5.7,5.6-11.8,10.8-15.3,18.3-.4.9-.2,2.3-1.6,2.6-.3-8.3-1.2-16.5-1.8-24.8-.4-5-1-9.9-1.2-14.9-.3-6.1-.9-12.2-1.5-18.3h0Z"/>
        <path class="cls-7" d="M337.9,411.6c5-1,6.4-.3,9.1-.8,5.8-1,11.6-2.2,17.4-3.5,5.9-1.3,11.6-3.3,17.3-4.9,5.4-1.5,10.5-3.8,15.8-5.6.4-.1.8-.1,1.2-.2-1.6,5-1.3,10.3-1.9,15.5-1.1,10.3-1.1,20.7-2.5,31-.4,2.8.6,5.8-1,8.5-2.1-.5-2.6-2.6-3.6-4.1-2.5-4-5.6-7.3-8.8-10.6-3.4-3.5-7.3-6.5-11-9.6-2.3-2-5-3.5-7.7-5-4.5-2.7-9.3-4.9-14.1-7-2.7-1.2-5-1.3-7.7-2.6-.4-.2-2.2-.8-2.6-1h0Z"/>
        <path class="cls-21" d="M410.8,511.2c-.1-9.5-1.7-16.2-3.4-24.2-1-4.7-2.2-9.3-3.8-13.9-1.7-5.2-4.1-10-6.7-14.9-1.1-2.1-2.9-4.1-2.8-6.8-2.1-.5-2.6-2.6-3.6-4.1-2.5-4-5.6-7.3-8.8-10.6-3.4-3.5-7.3-6.5-11-9.6-2.3-2-5-3.5-7.7-5-4.5-2.7-9.3-4.9-14.1-7-2.7-1.2-5.1-2-7.7-3.3-.4-.2-1.5-.3-1.8-.5-1.2-.1-2.3-.5-2.7-.6s-.5-.3-3.5-.8c-.8-.1-17.5-1.3-27-1.1-4.1,0-8,1-12,1.5-1.4.2-3.8.5-4.2.5s-.8.4-1,.5-2.6.6-4,.5c-.9,2.3-3.4,1.9-4.9,2.2-4.6.9-8.6,3.1-12.6,5.2-7.5,3.9-14.4,8.7-20.5,14.8-5.7,5.6-11.8,10.8-15.3,18.3-.4.9-.2,2.3-1.6,2.6-2.7,4.7-7.2,13.8-7.6,14.4s-2.6,5.4-2.7,6.1,0,.6-.1,1-.4.8-.5,1-.5,2-.5,2c0,0-.3,1.2-.4,1.7-.1.5-.3,1.1-.6,2-.3.9-.4,1.3-.5,2.1-.1.9-.2,1.1-.3,1.5,0,.3-.6,1.6-.7,2.1s-1.3,7-1.7,10.6c0,.7-.2,1.5-1,1.9.1,4.5.4,13.2.4,13.5s0,.5,0,1,.3,4.7.3,5.4.3,1.7.2,1.1.6,4.6.8,4.9.2.4.4,1.4c.1.9,4.7,17.8,8.3,26.2,3.4,7.8,8.1,14.9,11.9,22.4,2.1,4.1,3.7,8.3,2.9,13.1-1,6.1-9.1,13.4-9.4,13.5s-1.1.4-1.5.7-.3.1-.7.4-.6.2-1.3.5-1.2.3-1.8.5c-2.5,1.1-2.8,2.3-1.5,4.4.5.8,1.2,1.5,1.1,2.5,3.6,4.4,7.3,9.2,11.4,13.3,7.8,8.1,16.5,15,26.5,20,12.1,6,24.8,10,38.4,11.2,11.5,1,22.9,1,34.2-1.4,16.4-3.5,31.6-9.6,44.8-20.2h.5v-.4c7.2-5.8,13.9-12.2,18.9-20.1.8-1.2,1.3-2.7,2.7-3.5.1-.3.3-.7.5-1,.9-3.5.9-3.5-2.8-5-6.6-2.5-12.7-6.9-12.9-13.9,0-1.5-.2-2.1-.2-3.1,0-.9.4-2.5.4-2.6s.7-5.3,1.8-7.7c3.4-7.6,8.1-14.2,11.6-21.8,3.1-6.7,4.9-10.4,7.1-17.4.4-1.2.4-1.6.9-3.4,0-.3.8-3.3,1-4.6.2-1.3.7-2.9.8-4,.1-1.1,0,.5,0-.8.1-1.2.7-3.3.9-6.2,0-.7,0-.4,0-.7.3-1.8.8-6,.7-8.6h0Z"/>
        <path id="Oscar_Body_Outline" data-name="Oscar Body Outline" class="cls-3" d="M130.4,261.4c-.5,7.2-1.9,20.4-.1,30.6.1.7.2,1.2.4,2.3,0,.4,0,.5.1,1,0,.5,1.1,5.5,1.7,8s.6,3.4,2.8,8.7c1.2,4.5,10.6,25,18.8,36,1.9,2.5.4,6.5.3,7.7-.1,1.3-.2,1-.2,1.5s-.7,3.5-.7,3.5c0,.6,0,1.3-.1,1.9-.9,6-1.5,8.5-2.2,12.7-.8,4.9-3,14.3-3.1,14.5,0,.2-.4,1.3-.4,1.7s-.1.6-.1.9c-.5,4.6-1.9,8.9-2.9,13.4-1.1,5.3-2.7,10.3-4,15.5-.1.5-.3,1-.5,1.6-.1.6-.2.6-.2.8,0,.2-1.1,5.8-1.7,8.7-1.2,6.3-2.6,12.7-4,19-.1.5-.4,1.1-.4,1.5,0,.4-.1.7-.2,1s-.8,4-.9,5c0,.4,0,.5-.1.8,0,.3-.7,4.2-.8,5-.1.8-.2.8-.2,1.4s-.7,4.5-.9,6.5,0,1.4-.1,2.5c0,1.1-.3,6.1-.4,9.2-.3,8.8-.5,17.6.3,26.4,0,1.7,0,4,0,5,0,.9,0,1,.1,1.5,0,.5.7,3.8.8,4.5.1.7.1,1,.2,1.5,0,.4,2.2,8.1,3.1,12.2.2,1.1-.5,1.7-1.4,2-4.8,1.5-13.8,5.8-13.9,5.9s-.4.2-.5.3-3.8,2.4-4,2.6c-.3.2-3.6,2.9-3.6,2.9-.5.5-3.3,2.6-4.8,4.7s-2.3,3.2-4.4,6-5.3,8.3-7.1,12.5c-2,4.6-3.7,9.3-4.4,14.2-.2,1-.2,1.5-.5,3.1,0,.8-.1,1.6-.2,2.4-.2,2.4-.4,4.4-.6,6.6-.3,5.5-.2,11,.1,16.5,0,1.2,0,1.7.1,3,0,1.3.1,2.3.2,3,0,.7.5,4.5.8,6.5s2.5,11.6,2.5,11.6c4.1,15,18,41.9,18.2,42.4.2.5.3.8.6,1.3.3.5,2.8,4,2.8,4,1.6,1.9,3.2,3.9,4.8,5.8,4.7,4.9,9.6,9.6,15.1,13.7,8,5.9,16.6,10.9,26.1,13.8,14.9,4.4,29.7,4.4,43.9-3.1,1.1-.6,2.3-1.1,3.1-2,2.3-2.5,5-2.4,8-1.5,14.6,4.5,29.7,6.4,44.8,8.5,18.4,2.5,37,3.1,55.5,3.1s39-1.4,58.4-4.1c12.7-1.8,25.3-3.8,37.8-6.6,1.4-.3,2.6-.2,3.8.7,12,8.1,25.4,9.5,39.2,7,19.5-3.4,35.3-13.5,48.4-28.1.4-.4.8-.8,1.2-1.2,7.5-9.3,13.9-19.2,18.2-30.4.7-1.8,1.8-3.1,3.3-4.2,4.5-3.5,9.1-6.9,13.3-10.7,11.1-10.2,20.4-21.8,27.2-35.3,2.4-4.8,5.1-11.8,5.9-14.7.8-2.9,1.6-10.4,1.8-11.5s.2-1.8.1-2.4-.3-2.6-.5-4c-.8-8-7.2-13.8-15.3-13.9-5.9,0-11.5,1.4-17.3,2.5-3.5.7-7,1.5-10.5,2.3-1.6.4-2.5,0-3.3-1.6-6.5-13.7-17-23.4-30.8-29.5-2.1-.9-4.3-1.4-6.4-1.9-1.3-.3-1.7-1-1.3-2.3,6.8-24.3,6.6-48.9,2.7-73.5-2.7-16.8-6.8-33.2-10.8-49.7-3-12.4-5.6-24.8-8-37.3-1.4-7-2.3-14.1-3.6-21.1-.5-2.8,0-5,1.9-7.3,8.7-11,14.3-23.7,18.4-37,4.7-15.4,4.9-37,4-47.1l-3.6-21.1c-1.6-9.5-10.4-29.1-11.2-30.9-.9-1.8-2.2-4.3-3.3-6.4-1.1-2.1-6.9-11.1-10.9-16.1s-6.1-9.4-11.4-14.3-12.5-11.9-19.1-17.5l-3.4-2.7s-5.3-4.1-6.5-5.1-5.6-3.9-6.8-4.7c-1.2-.7-3.2-1.9-3.2-1.9-2.7-1.3-6.6-3.8-7.8-4.5-.4-.2-1.1-.6-2.6-1.4-1-.5-1.5-.7-2.1-1.1s-2.7-1.3-3.9-1.9c-1.2-.6-4.8-2.3-4.8-2.3-2.3-1.2-6-2.7-8.7-3.7s-13.1-4.4-14-4.8c-1-.3-1.6-.4-2.9-.8-1.3-.4-2.5-.7-4-1-1.4-.4-1.9-.5-4-1-2.1-.5-7.9-1.6-14-2.8-1.2-.2-6.5-1-6.5-1-.8-.2-2.8-.5-4.5-.7s-2.4-.2-3.5-.3-4.6-.5-6.5-.7c-1.9-.2-6.4-.2-7.5-.2s-10.1,0-11.5,0-8,.1-9.5.3-4.1.5-5.1.6c-.9.1-3.1.4-4,.5-.9.1-2.6.4-3.9.5s-4.2.8-5.5,1c-1.3.2-7.5,1.7-7.5,1.7-2.2.5-9,2.1-9,2.1-2.4.6-4.2,1.1-5.6,1.5-1.4.4-2.4.7-3.3,1-.8.2-9,2.8-10,3.1-1.1.3-2.8.8-5.5,1.9s-5.3,2.4-9.6,4.3-10,5.1-10,5.1c-4.2,2.3-4.9,2.6-9.8,5.8s-11.4,7.8-14.1,9.7-3.9,3.1-5.8,4.8c-2,1.6-5.1,4-7.5,6.5s-13.7,13.9-25.5,30.9c-3.5,4.9-5.7,7.8-7.6,11.4-.8,1.5-4.6,9.5-6.9,14.4-2.1,4.7-3.4,9.1-4.8,14.6s-4.2,19.4-4.8,26.6h0ZM155.8,227.1c1.1-3.2,4.6-9.9,7.3-14.7,0,0,2.1-3.9,3.2-5.4s5.2-7.2,5.9-8.1c.7-1,2.7-3.5,3.9-4.8,1.2-1.4,7.8-9.2,7.8-9.2,4.2-4.2,6.4-6.5,9.6-9.8,1.9-1.7,4.8-3.8,6.2-4.8s8.3-6.5,8.7-6.8,2-1.2,2.8-1.7c.8-.4,6.1-3.8,11.6-7.3l.8-.3c4.6-2.4,5.9-3.5,9-5,4.9-2.1,9.2-4.2,14.3-6,.3,0,.6-.2.9-.3.3,0,.8-.3,1-.4s1-.3,1.2-.4c.2,0,1.1-.5,1.3-.6s1.1-.3,1.7-.4c2.4-1.4,5.1-2.1,7.8-2.5.3,0,.5-.1.9-.2.4,0,2.6-.7,3-.9.4-.1.7-.1.9-.2.2,0,2.2-.7,2.6-.8.4-.1.1,0,1-.1.8-.1,2.2-.6,2.5-.7s1.2-.2,1.5-.3,2.8-.7,3-.7c.2,0,1-.2,1.2-.2.2,0,3.3-.7,3.8-.8.5-.1.6-.1.8-.1s4.7-.8,5.2-.9.6,0,.7-.1,7.6-1.1,11.4-1.5c1.9-.2,3.9-.4,5.9,0,4.6-.2,9.2-.2,13.9,0,6.7,0,14.9,1.2,17.2,1.6s2.8.6,5.5,1c.4,0,0,0,1.2.1,1.4.6,2.5.7,4.2.9.2,0,.5,0,.8.1,1.3.7,2.3,1.1,3,1,.5,0,1,.3,1.5.4,1,.2,1.3.4,2.4.6.3,0,.7.2,1,.3,1.1.4,1.5.4,2.4.7.3,0,.9.2,1.2.2,1.2-.3,1.8.3,2.9.5.3,0,.8.5,1.1.5,1.8.7,2.4.9,4.7,1.7.4,0,.6.3,1.1.4,1.2.4,1,.4,1.9.8.4,0,.8.2,1.2.2.8.3,1,.5,1.7.6.4.1.7.2,1.1.4.3.2.6.3.9.4.3,0,.7.2,1,.3.7.4,1,.2,1.7.6.3,0,.6.2.9.3.4.1,1,.4,1.6.7.3,0,.8.2,1.1.3,1.3.1,1.5.5,2.8,1.1.4.1,1.1.6,1.5.8.4.2.8.4,1.2.7.3,0,.5.1.8.2.4.2.8.4,1.2.6.2,0,.9.5,1.1.6,2.2,1.2,2.7,1.2,5,2.3.2.1.3.2.6.4,1.5.8,2.6,1.4,4.2,2.4.1,0,.6.3.6.3.3.2.7.4,1,.6.8.4,1.4,1.1,2.1,1.5,2.1.9,3.1,1.8,5.6,3.5,1.8,1.2,3.8,2.6,5.6,3.8.7.6,1.6,1.3,2.7,2.1,1.7,1.1,3.2,2.3,4.7,3.7.4.3.8.5,1.1.7l.3.2c.2.2.5.4.9.6.5.4.7.8,1.2,1.2.5.4.8.5,1.2.9,15.8,14,29.5,29.4,38.1,48.9,3.2,7.3,6.3,15.2,7.7,22.6,1.4,7.3,2,10.7,3,20.8,1,10.1-2.1,33.7-5.7,42.9-3.5,9.2-12.8,25.6-15.7,29.6-3,4.1-3.6,3.2-5.2,8.9.5,5.4,1.6,10.2,2.1,15.1s6,31,7.4,38.5,5.6,22.3,8.3,33.5c.6,2.4,1.1,4.9,1.6,7.3,0,0,.3.7.4,1.3,0,.6.5,2.9.6,3.7.1.8.2,1,.3,1.3.1.3,1.1,6.2,1.3,6.8.1.6.2.8.3,1.2,0,.3.5,3,.7,3.7.1.7.2.9.2,1.3,0,.5.7,4.7.8,5.1s.2,1,.3,1.3.6,4.1.6,4.7.3,1,.4,1.8c0,.9.6,6.5.9,9.8,0,1,.2,2-.4,2.9.8,1.8.7,3.8.6,5.6-.3,8.5-.6,17.1-1.8,25.6-2.3,15.9-8.5,30.1-18.2,42.9-9,11.8-20.7,19.8-34.5,24.9-4.1,1.5-8.3,2.3-12.7,2.2-2.7,0-4.6-2-4.6-4.6,1.6-4.5,4.7-8.2,7-12.2,7.7-13.7,12.8-28.3,15.4-43.7,1.3-7.7,2-15.3,1.9-23.1,0-5.8-3.9-9.6-9.6-9.5-5.4,0-8.9,3.8-9,9.5,0,3.9-.2,7.8-.4,11.7,0,1,.1,2.2-.7,3.1,0,.3,0,.7,0,1.3,0,.8-.7,5.2-.9,6.2s0,.4,0,.8-.6,2.9-.8,4-.1.6-.1.9c-.4,5-2.2,9.7-4,14.3-3.2,8.1-7.1,15.8-11.6,23.3-3.1,5.1-6.3,16.2-6.3,16.3s-.4,1.5-.4,2.7c.1.3.9,7,4.2,9.7,3.5,4.5,8.2,6.5,13.5,7.8,5.3,1.2,10.5,0,15.7-1,11.2-2.2,25-9.6,30.8-13.2,9.6-5.8,13.5-10.9,17-14.7,5.4-5.7,13.1-20,15.1-23.8s12.5,3.6,12.5,3.6c8.3,4.9,17.9,14.6,20.9,26.6,2.9,12,2.8,14,2.8,23.5s-1.7,17.2-4.5,28.9-2.3,8.6-3.8,12.8c-5.3,14.6-12.9,27.7-24.3,38.4-10,9.2-21.5,15.1-34.9,17.5-6.9,1.2-13.5,1.3-20.1-1.1-8.3-2.9-14.3-12-15.5-19.6-.4-2.9,0-5.2.4-7.2.4-2.1,1.9-5.6,3.7-8,2.6-3.5,3.1-5.7,1.6-7.9-1.7-2.4-5.8-3.7-9-2.7-4.1,1.3-6.9,4.4-9.3,7.8-2,3.9-4,7.7-4.6,12.2-.7,5.3-.2,10.2,1.7,15.2,1.1,2.8.9,3-1.8,3.8-12.6,3.6-25.4,5.8-38.4,7.4-16.3,2-32.6,3-49,2.8-14.3-.2-28.6-1-42.8-2.8-11.9-1.5-23.7-3.2-35.2-6.6-2.1-.6-4.3-1.4-6.4-2-1.1-.3-1.6-.8-1-2,4.1-8.6,2.7-17-.7-25.3-.3-.7-.5-1.4-.8-2.1-2.5-2.7-4.4-6.1-8-7.6-2-.9-4-1.5-6.2-1.2-4.8.6-7.1,5.4-4.4,9.4,2.1,3.2,4.6,8.9,4.9,10.2.1.6.3.8.3,1.5,0,.7.2,1.5.1,3,0,.6-.2,1.8-.6,3.3-.7,3.8-5.5,13.8-12.8,17.2-9.2,4.2-18.7,3.5-28,.6-23.3-7-39.2-22.2-49.1-44.2-2.4-5.2-4.3-10.6-5.9-16.1-.1-.5,0-1-.1-1.5,0-.3,0,0-.2-.9s-.4-.8-.5-1-4.3-17.7-5.1-26.9c-.2-2.2-.5-4.4-.7-6.6-.2-2.3-.2-4.3,0-6.8.3-2.5.4-3.5.4-3.8s0-.5,0-.8c0-.2.2-.9.2-1.5s0-1.2.2-1.9.6-1.5.6-2.2c0-.7,0-.3,0-.8s0-.7.1-1c0-.3,0-.4.1-.9.2-.5.5-1.5.6-1.8,0-.2.2-1.4.4-1.7s.3-.6.6-1.3c.3-.7.3-.8.4-1.2.2-.4.4-1,.5-1.3s12.1-19.1,23.2-23.6c1.3-.5,2.6-1.2,4-1.2,3.5-1.6,4-1.4,5.5,1.7,6,12.6,25.5,32.7,25.1,32.2-.5-.4.7.6,1.1,1,.4.3.5.4.8.7,3.1,1.9,6.2,3.7,9.3,5.6,7.5,4.5,15.5,7.5,23.9,9.6,4.5,1.1,9.1,1.7,13.7,1.9,2.1,0,4-1.2,6.1-.9.6-.2,1.2-.3,1.8-.6s.5,0,1.2-.5c.7-.4.6-.3.9-.4.2,0,.5-.2,1.2-.6.7-.3,8.6-7.4,9.6-13.5.8-4.8-.8-9-2.9-13.1-3.8-7.5-8.5-14.6-11.9-22.4-3.6-8.5-8.2-25.8-8.3-26.2s-.3-.9-.4-1.4-.8-4.8-.8-4.9c0,0-.1-.9-.2-1.1,0-.2-.4-4.9-.5-5.2s0-.8,0-1.2c0-.4-.3-9-.4-13.5-.8-.5-.9-1.4-1.3-2-2.1-3.6-6.9-5.8-10.8-4.8-3.9.9-6.6,4-6.8,8.2-.4,10,.3,20,2.3,29.8,2.2,10.5,5.5,20.7,10.4,30.3,3.1,6.1,6.6,11.9,10.4,17.6,1,1.5,1.8,2.9.4,4.6-1.6,2.7-3.3,3.6-6.7,3-8.3-1.3-15.3-4.3-22.4-8.7-12.5-7.8-22.5-18-29.5-31.1-4.3-8-6.9-16.5-8.7-25.3-2.4-11.8-3-23.7-2.3-35.7.1-1.8-.9-3.6.4-5.3,0-1.9.2-4.9.2-5.8s.2-1.6.3-2.3.2-1.6.2-1.9c0-.3,0-.8,0-1,0-.2.2-3.3.2-3.8,0-.5.3-1.4.4-1.8s.5-4.1.6-4.7c0-.6.3-1.5.4-1.8s.6-3.5.6-4.2.3-1.3.4-1.8.5-2.7.6-3.2c0-.5.2-1,.4-1.3s2.1-9.2,2.2-9.7.3-1,.4-1.3c.1-.3.5-2.2.6-2.7s.3-.9.5-1.3,7.3-29.8,7.2-29.6c0,0,0,0,0,0h0c0-.1.3-1,.4-1.3,0-.4.5-2.6.6-3.2s.2-1,.3-1.3c.1-.3.6-2.8.6-3.2s.3-1.1.4-1.3c0-.2.2-1.5.3-1.9,0-.4.1-.8.2-1s.2-.6.3-.8c0-.2.2-1.1.3-1.3,0-.2.1-.6.2-.9,0-.3,0-.9,0-1,0-.1.5-2.2.6-2.5s.3-2,.3-2c0,0,.6-2.7.8-3.5s.1-1,.2-1.5c0-.5.7-3.4.8-4s.1-.9.1-1.5.7-3.3.8-4.5,0-.6.1-1c.1-4.6,1.2-9.1,1.6-13.7.2-2.2,1.1-4.5.1-6.8-1.4-1.8-2.7-3.6-4-5.5-3.4-4-5.5-8.9-8.1-13.4-.5-.8-.9-1.8-1.3-2.6-.6-1.3-1.1-2.6-1.7-3.9-1.8-2.3-2.7-5.1-3.5-7.8-1.9-6.5-3.7-13-5.2-19.6-.9-3.8-1.7-7.8-1.3-11.8-.3-5.4,0-14.5,0-16.3s.5-6,.8-7.6.5-3.9.9-7,1.9-8.9,2.8-12.2,2.6-7.8,3.7-10.9h0ZM553,600.2c-4,9.8-9.7,18.7-16.5,26.8-.6.7-1,1.8-2.1,1.4-.9-.4-.5-1.5-.3-2.3,1.3-8.8.8-17.7,1.1-26.6l-.4-7.2-.5-2.3s0-1.6-.1-2.4c.4-1.3,1.5-1,2.5-.9.9-.1,1.5-.2,2.7-.4s2.7-.7,3.2-.8c.5-.2.4,0,.8-.1.4,0,1.2-.3,1.8-.6.6-.2,2.3-.5,3-.7s.7-.1,1.1-.3,2.2-.5,3-.7.8-.2,1-.2,2-.7,2.7.6c.9,5.9-.6,11.4-2.8,16.7h0Z"/>
      </g>
      <g id="Oscar_Head_Shape" data-name="Oscar Head Shape">
        <path class="cls-7" d="M425.3,171.1c-1.3-1-6.6-5.1-7-5.5s-1.4-1.1-2.6-1.9-3.7-2.5-5.3-3.6-4.6-3-5.7-3.8-6.1-3.4-8.7-4.9-6.6-3.3-9.3-4.5-5.5-2.2-8-3.1-12.7-4.4-15.5-5.3-4.9-1.2-4.9-1.2l-3.5-1-7-1.7-5-1-9.2-1.8c-2-.2-4.2-.6-7.7-.8-.6,0-4.1-.2-7.1-.1-4.6-.2-9.6-.2-11.1-.2-1.3,0-3.9,0-4.4,0-3.9,0-11.3.8-12.8,1.1s-4.3.8-5.4,1-3.1.6-3.4.7-.5,0-.8.1-3.5.8-3.8.8-.8,0-1.2.2-2.3.6-3,.7-1.2.2-1.5.3-2,.6-2.5.7-1.2.2-1.8.4-2.2.6-2.6.7-2.6.8-3,.9-.6.1-.9.2c-4.3.6-7.4,2.4-7.8,2.5s-1.2.2-1.7.4l-2.3.8-2.1.8c-2,.6-2.6.8-3.8,1.3-6.3,2.7-18,8.6-18.5,8.9s-1.4,1-1.7,1.1-10.8,6.7-11.6,7.3-2.4,1.7-3.4,2.3l-3.3,2.1c-2.2,1.4-4.3,3.7-4.8,4.1s-2.3,1.6-2.3,1.6c-1,.8-.8.7-2.2,2-3.5,3.1-6.7,6.2-9.9,9.5-.4.5-.8.9-1.4,1.6s-4,4.5-4,4.5c-.4.4-.4.5-.7.8s-1.5,1.8-1.8,2.1-.5.6-.7.9-1,1.2-1.3,1.6-.5.6-.8.8l-1.9,2.6c-.3.4-5.9,8.4-6.3,9.1s-.5.9-.7,1.3l-1.5,2.6c-.2.4-1.9,3.5-2.8,5.2-2.9,5.5-6.3,12.9-7,14.9-.1.3-.8,2-.8,3.3-.3.9-.4,1-.5,1.3l-1,2.2c-.6,1.6-2,5.7-2.2,7.5,0,1.2.9,2.4,2.5,2.1,1.4-.2,3.4,1,3.8-1.5.9-5.4,3-10.5,5.2-15.5,4.7-10.7,10.8-20.4,18.4-29.4,7.3-8.7,15.5-16.4,24.4-23.4,8.1-6.4,16.6-12,25.8-16.7,11.6-5.9,23.3-11,35.8-14.6,13.3-3.8,26.9-5.8,40.7-6.3,12.7-.5,25.4.1,37.8,3,6.1,1.4,12.1,2.9,18.1,4.6,6.6,1.8,13.2,3.7,19.3,6.6,12.3,5.9,24.1,12.5,35,20.9,12.1,9.4,23,19.9,32.2,32.1,8.1,10.6,14.7,22.1,18.4,35.1,1.4,5.8,2,5.8,7.6,6,0-1.4-.4-2.4-.6-3.1-1.9-7.8-4.5-15.2-7.7-22.6-11.5-25.2-30.6-43.6-38.2-49.4-.9-.8-1.4-1.2-2.6-2.2h0Z"/>
        <path class="cls-21" d="M333.9,279.9c4.9-6.6,2.2-19.8-6-23.8-.9-.3-2.3-1.2-2.1-2.2s2.4-.7,3.9-.6c12.3.8,17.9,3.6,25.6,6.9,7.5,3.4,15,7.3,20.2,13.8,3.3,4,6.8,5.1,11.6,4.8,8.4-.5,16.8,0,25.2.6,15.3,1.1,29.4,5.7,41.9,14.9,2,1.5,3.7,3.3,5.5,5,0,1.5-.4,2.8-1.2,4-3.8,6.3-7.3,12.8-11.7,18.8-4.5,6.1-9.4,11.8-15.3,16.6-2.2,1.9-4.1,4.1-6.4,5.9-5.8,4.4-11.5,8.9-17.8,12.5-5,2.8-9.8,5.8-15.1,8-6.5,2.7-13,5.4-19.7,7.6-8.4,2.7-16.8,5.1-25.4,6.9-6.1,1.3-12.4,2-18.6,2.7-6.8.7-13.6.5-20.4.4-8.5-.2-17-.5-25.3-1.6-8.3-1.1-16.4-3.3-24.5-5.6-9.5-2.8-18.9-6.1-27.8-10.4-9.5-4.6-18.8-9.8-27.1-16.5-4.4-3.5-9-6.9-13-10.8-4.5-4.4-8.7-9.1-12.5-14.2-4.6-6-8.4-12.5-12-19.1-.8-1.4-1.4-3-2.1-4.5,0-.6.1-1.2.2-1.8,2.5-.9,4.1-3,6.2-4.5,9.4-6.6,19.8-10.5,31.1-12.6,11.6-2.2,23.2-2.4,34.9-2.4,2,0,4-.3,6-.4,1.4,0,2.1-1,2.8-1.9,4.5-5.8,10.8-9.3,17-12.8,5.5-3.2,11.5-5.5,17.7-7.3,5.8-1.7,7.4-1.8,13.3-3.1,3.7-.7,4.6,0,4.9.5.6,1.1-6.4,3.7-10,11.6-1.4,2.6-1.3,4.7,0,9.5,2.5,6.3,10.4,11.8,13.6,12.5,2.5.5,4.5-.5,2.3,4.8-1.2,4.5-5.8,8.6-5.8,8.6-5.4,3.7-8.3,4.8-15.7-2-1.8-1.6-3.4-4-3.4-4h0c-2-2.4-4.5-2.2-6.5.3h0c-1.1,2.1-1,2.9-.9,5.7s2.5,7.5,5,9.2,9.7,4.1,12.3,4.2c9.5,0,12.8-2.2,14.5-3.2s4.2-3.6,4.2-3.6c1.3-1.3,2-2.3,2.5-3.8,0-.1.5-1.6,1.6-1.6,1.2,0,1.8.7,1.9,1.4s1.2,3.6,4.5,6.5c2.4,2.1,9.9,4.6,14.4,4.3s6.6-.4,8.4-1.1,5.9-3.4,9.1-7.6c1.6-2.1,1.9-3.6,1.8-6.3,0-4.2-1.2-4.2-1.2-4.2-1.5-1.1-3-1-5.4.6-1.3.9-2,2.4-2.9,3.6-2.5,3.4-7.4,5.2-11.2,4.5s-7.3-2.8-8.7-4.3-2.8-5.4-3.5-7.3c-.9-2.3.2-3.7,2.5-4.5s9.6-2.9,12.8-7.8h0ZM202.6,318.5c1.5.1,2.9-.7,4.3-1.6,3.8-2.4,7.5-4.9,11.4-7.1,5-2.8,9.9-5.7,14.7-8.8,3.3-2.1,4.2-5.4,2.7-8.4-1.8-3.6-5.8-5.5-9.3-4.4-2.9.9-5.4,2.4-8,3.9-6.4,3.9-12.8,7.6-19.2,11.5-3.1,1.9-5.1,6.1-4.3,8.9,1,3.6,4,6,7.7,6h0ZM394.8,288.4c-3.4,0-6,1.9-7.3,5.1-1.3,3.1.5,5.1,2.3,7,1.8,1.9,4.2,3,6.4,4.3,7.4,4.4,14.8,8.8,22.3,13.1,2.9,1.6,5.9.7,8.3-2.3,2.5-3,2.6-5.9.5-8.6-1.5-1.8-3.4-3.2-5.4-4.4-6.5-3.9-13-7.8-19.5-11.6-2.4-1.4-4.8-2.7-7.7-2.7Z"/>
        <path class="cls-18" d="M403.4,382.9c.9-.6-.1,0,1.8-.9s4.4-2.2,5.6-2.8,1.7-.7,2.4-1.1.4-.4,1.1-.8,4.3-2.3,4.9-2.8.8-.5,1-.7.3-.2.5-.3,1.8-1.3,2.6-1.9,6-4.2,6.5-4.6.8-.8,1-.9,11.9-10.4,17-16.4c.7-.8,1.6-1.7,2.6-2.2,1.1,5,1.6,11.2,2.3,16.3-3.4,1.3-4.3,1.8-6.7,3.5-7,5.9-14.3,11.5-22.2,16.2-6.7,4-13.4,7.8-20.5,10.9-6.3,4.5-4.4,1.4-4.3-1.8,0-1.9.4-4.1,1-6.5.8-1.3,1.3-2,2.4-2.5.3-.2.3,0,1.2-.6h0Z"/>
        <path class="cls-18" d="M224.3,394.6c0,.2,0,1.3,0,2-2.6-.5-4.9-2-7.2-3.1-6.6-3.1-12.5-7.4-18.9-10.9-7.4-4-14-9.1-19.8-15.3-2.1-2.2-3.9-4.6-6-7.1-1.5,1.7-.2,4.3-1.8,5.9.1-4.6,1.2-9.1,1.6-13.7.2-2.2,1.1-4.5.1-6.8,1.6.4,1.5,2.2,2.4,3.3,5.8,7,12.1,13.4,19.5,18.7,8.3,6,17.1,11,26.2,15.5,1.8.9,3.2,1.8,3.1,4.2,0,2.1.4,5.7.4,6.2s.3.9.3,1h0Z"/>
        <path class="cls-4" d="M158.9,324.2c-.6-1.5-1.1-2.6-1.7-3.9,0-1.8-.9-3.4-1.6-4.8-1.4-2.8-1.4-5.3.7-7.7,2.4-2.7,3.9-6.1,7.3-7.8.7,1.5,1.4,3,2.1,4.5,3.7,6.6,7.4,13.1,12,19.1,3.8,5,8,9.8,12.5,14.2,4,3.9,8.6,7.3,13,10.8,8.4,6.7,17.6,11.9,27.1,16.5,8.9,4.3,18.3,7.6,27.8,10.4,8,2.3,16.2,4.4,24.5,5.6,8.4,1.1,16.9,1.4,25.3,1.6,6.8.2,13.6.4,20.4-.4,6.2-.7,12.5-1.4,18.6-2.7,8.6-1.8,17-4.2,25.4-6.9,6.7-2.2,13.2-4.9,19.7-7.6,5.3-2.2,10.2-5.2,15.1-8,6.4-3.6,12-8.1,17.8-12.5,2.3-1.8,4.2-4,6.4-5.9,5.8-4.9,10.8-10.5,15.3-16.6,4.3-6,7.8-12.5,11.7-18.8.8-1.2,1.2-2.5,1.2-4,.2,0,.4,0,.6-.1,2.5,3.2,5.6,6,7.9,9.5,1,1.4,1.3,2.5.6,4-1.1,2.7-1.5,4.7-2,7.6-.9,1.8-1.2,3.1-2.6,5.4s-1.1,2-2.6,4.2c-1.7,3.3-2.1,3.4-2.8,4.1-1.9,3.6-1.9,2.7-2.6,4.2s-2.8,7.1-5.2,8.9-2.6,1.9-3.3,2.7c-5.1,6-16.4,15.9-17,16.4s-.6.6-1,.9-5.6,3.9-6.5,4.6-2.2,1.6-2.6,1.9-.4.2-.4.2c0,0-.4.3-1.1.7-.7.7-4.3,2.6-4.9,2.8s-.2.5-1.1.8c-.7.5-1,.6-2.4,1.1-1.2.6-4.9,2.4-5.6,2.8-1.1.7-1.4.9-1.7,1.1s-1,.2-1.3.5-2.1,1.5-2.2,3c-1.4,1.8-.9,4-1.2,6.1-.2,1.3,0,2.6,0,4-.4,0-.9,0-1.2.2-5.3,1.9-10.4,4.1-15.8,5.6-5.8,1.7-11.4,3.6-17.3,4.9-5.8,1.3-11.6,2.4-17.4,3.5-2.7.5-3.8.3-8,.6-1.2-.1-2.3-.2-3.4-.4s-2.4-.3-3.1-.5-17.5-1.7-27-1.5c-4.1,0-8,1-12,1.5-1.4.2-3.8.2-4.2.5s-.5.5-1,.5-2.6.6-4,.5c-2.1-.8-4.4-.7-6.5-1.2-7.2-1.7-14.6-2.2-21.8-4.3-6.6-1.9-13.4-3.2-19.9-5.8-3.6-1.4-7.5-2.5-11.2-3.7-.2-.2-.3-.3-.5-.5,0-.7,0-2,0-2,0,0-.3-.5-.3-1,0-.4-.5-4.1-.4-6.2,0-2.4-1.3-3.3-3.1-4.2-9.1-4.5-18-9.5-26.2-15.5-7.4-5.3-13.7-11.7-19.5-18.7-.9-1-.7-2.8-2.4-3.3-1.4-1.8-1.2-1.5-4-5.5s-5.3-8.9-9.4-16h0Z"/>
        <path class="cls-13" d="M476.6,264.7c0-.6-.1-.8-.2-1.5s-.2-1.4-.2-2.1-.1-2.1-.2-3-.3-2.2-.4-3,0,0-.1-1-.2-1.4-.3-2.1,0,0,0-1-.5-1.8-.6-2.8c0-.1,0-.2,0-.2h-.8c-5.2-.3-5.3-.3-6.9-5.8-3.7-13-10.3-24.5-18.4-35.1-9.2-12.1-20.1-22.7-32.2-32.1-10.8-8.4-22.7-15-35-20.9-6.1-2.9-12.7-4.8-19.3-6.6-6-1.7-12-3.2-18.1-4.6-12.5-2.8-25.1-3.4-37.8-3-13.8.5-27.4,2.5-40.7,6.3-12.5,3.5-24.3,8.6-35.8,14.6-9.2,4.7-17.7,10.4-25.8,16.7-8.9,7-17.1,14.7-24.4,23.4-7.5,9-13.6,18.7-18.4,29.4-2.2,5-4.3,10-5.2,15.5-.4,2.5-2.5,1.3-3.8,1.5-1.6.2-1.7-.9-1.6-2.1,0-2.6,1.5-4.9,1.4-7.5-1.8,3.9-3,11.6-3.1,12.4-.1.7-.3,2.3-.4,3.9-.1,1.6-.1,2-.2,2.9s-.5,5.5-.8,7.6c-.2,2-.3,10.9,0,16.3.4.4.7.9,1.2,1.4,1.2-1.7,2.2-3.5,4.5-3.8,1.8-.2,3.4.3,4.9,1.4,3,2,3.1,4.8,2.3,8.4-.2,1-.4,1.6.1,2.5,1.3,2.4,1.7,5.2,3.6,7.2,2.5-.9,4.1-3,6.2-4.5,9.4-6.6,19.8-10.5,31.1-12.6,11.6-2.2,23.2-2.4,34.9-2.4,2,0,4-.3,6-.4,1.4,0,2.1-1,2.8-1.9,4.5-5.8,10.8-9.3,17-12.8,5.5-3.2,11.5-5.5,17.7-7.3,5.8-1.7,11.8-.5,17.7-1.8.3,0,.8.2,1.1.4,9.3-3.9,18.3-3.8,27.5,0,10.4-.2,20.2,1.2,29.5,5.3,7.5,3.4,15,7.3,20.2,13.8,3.3,4,6.8,5.1,11.6,4.8,8.4-.5,16.8,0,25.2.6,15.3,1.1,29.4,5.7,41.9,14.9,2,1.5,3.7,3.3,5.5,5,.2,0,.4,0,.6-.1.4-1.4.6-2.9,1.3-4.2,1.7-3,1.9-6.1,1.7-9.5-.2-3,1.7-5.5,4.2-6.3,2.6-.8,5.2.3,7,2.9.2.3.3.6,1.2.3,0-2.8-.1-5.7,0-8.6.1-3,.9-8.2.9-8.9h0Z"/>
        <path class="cls-18" d="M465.7,320.7c.6-2.9,2-5.4,3.1-8.1.6-1.5.3-2.6-.6-4-2.3-3.4-5.4-6.2-7.9-9.5.4-1.4.6-2.9,1.3-4.2,1.7-3,1.9-6.1,1.7-9.5-.2-3,1.7-5.5,4.2-6.3,2.6-.8,5.2.3,7,2.9.2.3.3.6,1.2.3,0-2.8-.1-5.7,0-8.6.1-3-.5-6.3.5-9.2.4.4.9,1,1,1.5.8,14.7-.7,29.4-5.8,43.3-1.2,3.2-2.4,6.4-3.7,9.5-.4.8-1,1.6-2,2.1h0Z"/>
        <path class="cls-18" d="M163.6,300c-3.4,1.7-5,5.1-7.3,7.8-2.1,2.4-2.1,4.9-.7,7.7.8,1.5,1.7,3,1.6,4.8-1.8-2.3-2.7-5.1-3.5-7.8-1.9-6.5-3.7-13-5.2-19.6-.9-3.8-1.7-7.8-1.3-11.8.4.4.7.9,1.2,1.4,1.2-1.7,2.2-3.5,4.5-3.8,1.8-.2,3.4.3,4.9,1.4,3,2,3.1,4.8,2.3,8.4-.2,1-.4,1.6.1,2.5,1.3,2.4,1.7,5.2,3.6,7.2,0,.6-.1,1.2-.2,1.8h0Z"/>
      </g>
      <path id="Oscar_Right_Whisker" data-name="Oscar Right Whisker" class="cls-1" d="M202.6,318.5c-3.7,0-6.6-2.4-7.7-6-.8-2.8,1.2-7,4.3-8.9,6.4-3.9,12.8-7.6,19.2-11.5,2.6-1.6,5.1-3.1,8-3.9,3.5-1,7.5.9,9.3,4.4,1.5,3,.6,6.2-2.7,8.4-4.8,3.1-9.7,6-14.7,8.8-3.9,2.2-7.6,4.7-11.4,7.1-1.4.9-2.9,1.7-4.3,1.6h0Z"/>
      <path id="Oscar_Left_Whisker" data-name="Oscar Left Whisker" class="cls-1" d="M394.8,288.4c2.9,0,5.3,1.3,7.6,2.7,6.5,3.9,13,7.7,19.5,11.6,2,1.2,3.9,2.5,5.4,4.4,2.2,2.7,2,5.6-.5,8.6-2.4,3-5.5,3.9-8.3,2.3-7.5-4.3-14.9-8.8-22.3-13.1-2.2-1.3-4.6-2.4-6.4-4.3-1.8-2-3.6-4-2.3-7,1.4-3.2,3.9-5,7.3-5.1h0Z"/>
      <g id="Oscar_Nose_and_Mouth" data-name="Oscar Nose and Mouth">
        <path class="cls-3" d="M312.1,303.5c0-.3-.3-.5-.7-.5s-.6.3-.7.6-2.3,3.7-3,4.5c-1.9,2-2.8,2.4-3.9,3s-3.1,1.6-3.1,1.6c-3.8,1.9-7.7,2.6-12,2.1s-7.7-2.2-7.7-2.2c-8.3-3.4-11.5-11.6-8.8-17.6.4-.9,2.9-4.3,6.6-.4l1,1c3.6,4.3,9,10.2,15.6,6.2,1.8-1.1,2.4-1.4,3.8-3s4.3-4.6,4.7-8.8c.1-1.4.3-1.8-1-1.9-4.2-.6-7.4-2.6-10.5-5.4,0,0-4.8-4.1-6.1-10.6,0-1.4-.2-4.1.5-6.1.9-3,2.2-5.6,4.5-7.9,0,0,3.9-4,10.7-6.1,8.6-3.1,18.1-.5,23.1,1.7,3.1,1.4,5.1,3.1,5.1,3.1,5,4.6,7.2,9.5,6.3,17-.2,1.8-2,7.1-5.7,9.8-1.9,1.3-6.6,4-10.5,4.9-.8.2-1.2,1-1,1.8.6,2.9,2,6.3,3.8,8.2,1.5,1.6,2.4,2.3,3.6,3,5.5,2.7,12.1,1.4,15.9-4,3-4.2,5.3-5.8,8.6-2.7,0,0,2.1,2.5,1.4,6.7-1.5,5.5-7.6,10-8.8,10.9s-4.3,2-7.1,2.3c-3.2.1-5.6.2-9.4-.6-4.3-.9-6.4-1.4-9.9-3.8-.5-.4-1.7-1.1-2.6-2.1-.6-.9-1.6-2.2-2.9-4.8h0ZM310.3,267.3c2.9.1,5.2.1,7.4-.9,2.8-1.4,3.3-4.6,1.2-6.8-3.5-3.7-12.4-3.5-15.8.2-2,2.2-1.4,5.1,1.2,6.4,2.1,1,4.3,1.2,6,1.2Z"/>
        <path class="cls-7" d="M310.3,267.3c-1.7,0-3.9-.1-6-1.2-2.6-1.3-3.2-4.2-1.2-6.4,3.4-3.8,12.2-3.9,15.8-.2,2.2,2.2,1.6,5.4-1.2,6.8-2.2,1.1-4.5,1-7.4.9Z"/>
      </g>
      <g id="Oscar_Eyes" data-name="Oscar Eyes">
        <g id="Oscar_Right_Eye" data-name="Oscar Right Eye">
          <path class="cls-3" d="M385.8,260c-9.3,0-16.9-8.4-16.9-18.6,0-10.3,8.3-18.4,18.7-18.4,9.5,0,17.6,8.7,17.5,18.8,0,10.5-8.3,18.2-19.4,18.2h0Z"/>
          <circle class="cls-21" cx="395.4" cy="233.8" r="3.8"/>
        </g>
        <g id="Oscar_Left_Eye" data-name="Oscar Left Eye">
          <path class="cls-3" d="M251.8,241.5c.1,10.6-7.6,18.4-18.3,18.5-9.6.1-18.1-8.4-18.1-18.2s7.6-18.5,17.6-18.9c10.6-.4,18.7,7.8,18.8,18.6h0Z"/>
          <circle class="cls-21" cx="241.6" cy="234.9" r="4.3"/>
        </g>
      </g>
    </g>
    <g id="Nosebit">
      <path class="cls-10" d="M350.1,227.7s-4.6-6.7-36.2-9.6c-28.7-.5-36.2,9.6-36.2,9.6v-19.9s11.6-7.4,36.6-6c25.9,1.4,35.7,6,35.7,6v19.9Z"/>
      <path class="cls-15" d="M313.9,212c-28.7-.4-36.2,7.7-36.2,7.7v6.6s7.5-8.1,36.2-7.7c31.6,2.3,36.2,7.7,36.2,7.7v-6.6s-4.6-5.4-36.2-7.7Z"/>
    </g>
    <g id="Left_Lens" data-name="Left Lens">
      <circle class="cls-6" cx="219.9" cy="236" r="58.1"/>
      <path class="cls-22" d="M219.7,302.8c-36.8,0-66.8-30-66.8-66.8s30-66.8,66.8-66.8,36.4,5.4,47.9,15.9c12.5,11.5,18.9,28.6,18.9,50.9,0,36.8-30,66.8-66.8,66.8h0ZM219.7,184.1c-28.6,0-51.9,23.3-51.9,51.9s23.3,51.9,51.9,51.9,51.9-23.3,51.9-51.9-17.5-51.9-51.9-51.9h0Z"/>
      <path class="cls-5" d="M271.2,243.6c-3.5,25.3-25.2,44.8-51.4,44.8s-47.7-19.3-51.4-44.4c-5.9-5-10.9-10.9-14.7-17.4-.5,3.2-.7,6.5-.7,9.8,0,36.8,30,66.8,66.8,66.8s66.8-30,66.8-66.8-.2-7.4-.6-10.9c-3.8,6.8-8.8,12.9-14.8,18.1h0Z"/>
    </g>
    <g id="Right_lens" data-name="Right lens">
      <circle class="cls-6" cx="404.2" cy="236" r="58.1"/>
      <path class="cls-22" d="M404.6,302.8c-36.8,0-66.8-30-66.8-66.8s7.2-39.2,20.8-51c11.7-10.2,28-15.8,46-15.8,36.8,0,66.8,30,66.8,66.8s-30,66.8-66.8,66.8h0ZM404.6,184.1c-14.4,0-27.2,4.3-36.2,12.1-10.4,9.1-15.7,22.5-15.7,39.8,0,28.6,23.3,51.9,51.9,51.9s51.9-23.3,51.9-51.9-23.3-51.9-51.9-51.9Z"/>
      <path class="cls-5" d="M451.9,258c-8.2,17.9-26.3,30.4-47.2,30.4s-51.9-23.3-51.9-51.9.8-13.1,2.5-18.7c-2.7-6.9-4.2-14.4-4.2-22.1s0-1.4,0-2c-8.6,11.2-13.2,25.8-13.2,42.8,0,36.8,30,66.8,66.8,66.8s59.8-23.5,65.6-54.4c-5.6,3.8-11.8,6.9-18.4,9.2h0Z"/>
    </g>
    <g>
      <path class="cls-19" d="M335.8,314.9c-3.2.2-5.6.3-9.4-.7-4.3-1.2-6.4-1.7-9.9-4.9-.5-.5-1.7-1.4-2.6-2.7-.6-1.1-1.6-2.7-2.9-6,0-.4-.3-.7-.7-.7s-.6.4-.7.8-2.3,4.7-3,5.7c-1.9,2.5-2.8,3-3.9,3.8s-3.1,2-3.1,2c-3.8,2.4-7.7,3.3-12,2.7-1.8-.2-3.4-.7-4.7-1.2.3,10.1,12.8,39.4,28,39.4s27.4-29.1,28-39c-1,.4-2.1.7-3.2.8h0Z"/>
      <path class="cls-3" d="M310.9,354.6c-7.2,0-14.6-5.9-20.9-16.7-5.4-9.2-8.5-19.2-8.6-24.2v-2.3c0,0,2.1.9,2.1.9,1.5.6,2.9,1,4.3,1.2,3.9.5,7.5-.3,11-2.5,0,0,2-1.2,3-2,.2-.2.5-.3.7-.5.8-.6,1.6-1.2,3-3,.3-.5,1.4-2.6,2.8-5.4v-.2c.5-1,1.2-1.5,2.1-1.5,1,0,1.8.7,2.1,1.7,1.1,3,2,4.6,2.7,5.6h0c.5.9,1.3,1.5,1.9,2,.2.2.4.4.6.5,3.1,2.8,4.9,3.3,9,4.4h.2c3.5,1,5.7.9,8.8.7.9-.1,1.8-.4,2.8-.7l2.2-.8-.2,2.3c-.7,10.4-13.3,40.4-29.5,40.4h0ZM284.6,315.8c1.8,11.6,13.4,35.8,26.3,35.8s24.2-24.6,26.3-35.4c-.4,0-.8.2-1.2.2h-.1c-3.1.2-5.9.4-9.9-.8h-.2c-4.2-1.2-6.6-1.9-10.3-5.2-.1-.1-.3-.3-.5-.4-.6-.6-1.6-1.4-2.4-2.6v-.2c-.7-.9-1.4-2.3-2.4-4.5-.9,1.7-1.9,3.7-2.4,4.5-1.7,2.3-2.7,3.1-3.6,3.7-.2.1-.4.3-.6.4-1.2.9-3.2,2.1-3.3,2.2-4.2,2.6-8.3,3.5-13,2.9-.9-.1-1.8-.3-2.8-.6Z"/>
    </g>
    <g>
      <path class="cls-16" d="M310.9,352.2c5.1,0,9.4-2.7,13.2-7.9-1.4-7.5-6.6-12.8-13.2-12.8s-11.8,5.5-13.1,13.1c3.8,5.1,8,7.6,13.1,7.6h0Z"/>
      <path class="cls-20" d="M310.9,352.7c-5.2,0-9.6-2.6-13.5-7.8v-.2c-.1,0,0-.2,0-.2,1.5-8.1,7-13.5,13.6-13.5s12.2,5.3,13.7,13.2v.2s0,.2,0,.2c-4,5.5-8.5,8.1-13.6,8.1h0ZM298.3,344.5c3.7,4.9,7.7,7.2,12.6,7.2s8.9-2.5,12.7-7.5c-1.5-7.3-6.5-12.2-12.7-12.2s-11.2,5-12.6,12.4h0Z"/>
    </g>
  </g>
  <g id="Hat">
    <g id="Michael_Hat" data-name="Michael Hat">
      <g>
        <path class="cls-11" d="M178.5,86.1c-.1-2.3-1-3.5,0-5.8l134.9-44.8c.4,0,.8,0,1.1,0l133.9,44.2c1.9,2,1.9,4.4-.4,5.1l-134.1,35.1-135.4-33.7h0Z"/>
        <path class="cls-3" d="M313.3,123.4l-134.1-37.2c-2.3-.6-2.3-3.9,0-4.5l134.1-42.5c.4,0,.8,0,1.1,0l134.1,42.5c2.3.6,2.4,3.9,0,4.5l-134.1,37.2c-.4.1-.8.1-1.2,0h0Z"/>
        <path class="cls-22" d="M448.6,79.7l-133.9-44.2c-.4,0-.8,0-1.1,0l-2.5.8v82.8l3.1.8,134.1-35.1c2.3-.6,2.3-3,.4-5.1h0Z"/>
        <path class="cls-17" d="M447.6,82l-134.1-42.5c-.4,0-.8,0-1.1,0l-1.5.5v83.3l1.4.4c.4.1.8.1,1.2,0l134.1-37.2c2.3-.6,2.3-3.9,0-4.5h0Z"/>
        <path class="cls-5" d="M391.6,147.7c0,1.9-1.6,3.4-3.2,2.9-4.4-1.4-12.8-3.7-20.6-4.5-10.9-1.2-25.9-3.5-52.5,7.1-1.9.8-4,.8-6,.1-26.2-9.5-37-11.5-50.5-10.6-9.3.6-17.6,4.4-22.1,6.8-1.7.9-3.6-.5-3.6-2.7v-58.4c0-1.4.9-2.7,2.1-2.9,5.3-1.1,19.4-3.8,27.5-4.8,10.2-1.2,34.8-3.1,49.6-3.1s34.8,2.6,50.9,4.8c11.9,1.6,21.8,2.8,26.1,3.3,1.3.2,2.3,1.4,2.3,2.9v59.1h0Z"/>
        <path class="cls-22" d="M312,81.7c-13.4,0-34.9,1.3-46.4,2.4v54.5c10.8.2,21.9,3.6,43.4,10.5,1.8.6,3.1,1.4,6.1,0,.7-.3,1.3-.5,2.1-.8v-66.6c-1.8,0-3.5,0-5.1,0h0Z"/>
        <path class="cls-3" d="M312.1,157.5c-1.3,0-2.6-.2-3.8-.7-24.8-9-35.9-11.3-49.4-10.4-8.9.6-16.9,4.3-20.9,6.4-1.8,1-3.9.8-5.5-.4s-2.7-3.4-2.7-5.7v-58.4c0-3.3,2-6.1,4.8-6.7,5.6-1.1,19.6-3.8,27.8-4.8,10.5-1.3,35.1-3.1,49.9-3.1s34.1,2.5,51.2,4.8c12.1,1.7,22.3,2.8,26,3.3,3,.3,5.2,3.2,5.2,6.7v59.1c0,2.1-.8,4.1-2.2,5.4-1.4,1.3-3.2,1.7-5,1.2-4.2-1.3-12.5-3.6-20.1-4.4l-1.6-.2c-10.5-1.2-24.9-2.7-49.5,7.1-1.4.5-2.8.8-4.2.8h0ZM264.4,138.6c12.1,0,23.7,2.9,45.9,10.9,1.3.5,2.7.4,4,0,25.9-10.4,41.1-8.7,52.2-7.4l1.6.2c7.6.8,15.6,3,20.3,4.4v-57.3c-4.9-.6-14.3-1.7-25.5-3.2-16.9-2.3-36.2-4.8-50.5-4.8s-38.9,1.8-49.3,3.1c-7.7.9-20.9,3.5-26.7,4.6v56.4c4.6-2.4,12.9-6,22.2-6.6,2-.1,3.9-.2,5.8-.2h0Z"/>
        <path class="cls-8" d="M258.8,130.7c13.5-.8,24.4.9,50.5,9.4,2,.6,4,.6,6,0,26.5-9.4,41.6-7.3,52.5-6.3,7.8.7,16.1,2.8,20.6,4v-14.7c-4.5-1.2-12.8-3.2-20.6-4-11-1-26.2-3.2-53.2,6.6-1.4.5-3,.5-4.4,0-26.7-8.6-37.6-10.4-51.3-9.6-9.6.6-18,4-22.4,6.2v14.7c.1,0,.2,0,.4-.1,4.5-2.1,12.8-5.4,22.1-6h0Z"/>
        <path class="cls-12" d="M314.5,125.6c-1.4.5-3,.5-4.4,0-22.2-7.2-33.5-9.6-44.5-9.8v14.7c10.9.2,22,2.6,43.7,9.5,2,.6,4,.6,6,0,1.1-.4,2.2-.8,3.4-1.1v-14.7c-1.4.4-2.7.9-4.1,1.4h0Z"/>
      </g>
      <g id="Tissle_thingy" data-name="Tissle thingy">
        <g>
          <path class="cls-8" d="M242.6,59l-10.4,3.5s-9.3,8.7-12.4,24.7,2.4,33.7,1.3,42-2.3,13.7-2.3,13.7h-5.3s2.7-12.3,2.2-17.2c-1.6-16.2-4.4-18.8-2-39.9,5.2-19.8,8.5-22.8,10.3-25.9,1.6-2.8,5.1-5,7.2-5,11.9,0,11.5,4.1,11.5,4.1h0Z"/>
          <path class="cls-12" d="M231.2,54.8c-2.1,0-5.6,2.3-7.2,5-1.6,2.8-4.4,5.4-8.6,19.8,1.1-.2,2.1-.2,3.2,0,1,.2,2,.6,2.9,1.2,3.9-12,10.8-18.5,10.8-18.5l10.4-3.5s.4-4.1-11.5-4.1h0Z"/>
          <path class="cls-9" d="M219.5,143.8h-7.4l.3-1.2c0-.1,2.6-12.2,2.2-16.9-.5-4.7-1-8.2-1.5-11.4-1.2-7.9-2.2-13.6-.4-28.7h0c4.4-17,7.6-21.9,9.5-24.8.3-.5.6-1,.9-1.5,1.6-2.9,5.5-5.5,8.1-5.5h0c5.9,0,9.8,1,11.5,2.9,1,1.1.9,2.1.9,2.3v.7c0,0-10.9,3.6-10.9,3.6-1.2,1.2-9.2,9.7-12,24-1.9,9.6-.6,20,.5,28.4.7,5.5,1.3,10.2.9,13.5-1.1,8.2-2.3,13.8-2.3,13.8l-.2.8h0ZM214.6,141.8h3.3c.4-1.8,1.3-6.5,2.1-12.9.4-3.1-.2-7.7-.9-13-1.1-8.5-2.4-19.1-.4-29,3.2-16.1,12.4-24.9,12.8-25.2l.2-.2,9.7-3.2c-.7-1-3.3-2.5-10.2-2.5h0c-1.7,0-5,2.1-6.3,4.5-.3.5-.6,1-1,1.6-1.8,2.8-4.9,7.6-9.2,24-1.7,14.8-.8,20.3.4,28.1.5,3.2,1.1,6.8,1.6,11.5.4,4.1-1.3,13-2,16.3h0Z"/>
        </g>
        <g id="Tassles">
          <g>
            <path class="cls-8" d="M217.7,144.9s.5,10.4,1.9,15.9,3.5,14.9,5,14.9,2.5-1.3,3-2.2-.2-8.1-1-10.8-1.8-7.8-2.7-10.3c-.7-1.9-3.9-9.8-5-8.6l-1.2,1.2h0Z"/>
            <path class="cls-2" d="M224.5,176.7c-1.7,0-2.7-2.6-5.5-13.8l-.4-1.8c-1.4-5.6-1.9-15.7-1.9-16.1v-.4s1.4-1.5,1.4-1.5c.3-.3.8-.5,1.3-.4,1.9.4,4.4,6.7,5.4,9.4.6,1.8,1.4,4.7,2,7.2.3,1.2.6,2.3.8,3.2.6,2.3,1.6,10.1.9,11.5-.7,1.3-2.1,2.7-3.9,2.7h0,0ZM218.7,145.3c.1,2,.6,10.6,1.8,15.3l.4,1.8c.9,3.6,2.7,11.1,3.8,12.3.9-.1,1.6-.9,2-1.7.3-.9-.3-7.4-1.1-10-.2-.9-.5-2-.8-3.3-.6-2.5-1.3-5.3-1.9-7-1.1-3.1-2.9-6.9-3.8-7.9l-.5.5h0Z"/>
          </g>
          <g>
            <path class="cls-8" d="M214.2,144.7s-2.5,10.7-2.1,16.4c.3,5.7.6,15.4,2.7,15.4s4-1.2,5-2.1,2.1-8.3,1.9-11.1-.2-8-.8-10.7c-.4-2-2.6-10.2-4.6-9.1l-2,1.1h0Z"/>
            <path class="cls-2" d="M214.8,177.6h-.1c-2.4,0-3-4.3-3.6-14.5v-1.9c-.4-5.8,2-16.2,2.1-16.7v-.4c.1,0,2.5-1.4,2.5-1.4.5-.3,1.1-.3,1.6,0,2.5,1.1,4.2,8.9,4.4,9.8.4,1.9.5,4.9.6,7.5,0,1.2.1,2.4.2,3.3.2,2.4-.7,10.5-2.1,11.9-1.2,1.2-3.3,2.4-5.6,2.4h0ZM215,145.4c-.4,2-2.3,10.8-2,15.7v1.9c.3,3.6.7,11.9,1.9,12.7h0c1.6,0,3.2-1,4.2-1.9.7-.8,1.8-7.5,1.5-10.3,0-.9-.1-2.1-.2-3.4-.1-2.6-.2-5.5-.6-7.2-.8-3.9-2.5-8.1-3.3-8.4l-1.5.9h0Z"/>
          </g>
          <g>
            <path class="cls-8" d="M211.7,144.4s-3.7,9.9-4.4,15.6-2.1,15.2-.4,15.7,3.4-.4,4.3-1,3-7.7,3.3-10.4,1.1-7.9,1.1-10.6c0-2.1-.3-10.5-2.1-9.8l-1.8.7h0Z"/>
            <path class="cls-2" d="M207.9,176.8c-.4,0-.9,0-1.3-.2-1.9-.6-1.8-4.4-.5-14.9l.2-1.9c.7-5.7,4.3-15.4,4.5-15.8v-.4c.1,0,2.3-.9,2.3-.9.5-.2,1-.1,1.4.2,1.9,1.3,2,8.4,2.1,10.6,0,1.9-.4,4.9-.7,7.4-.2,1.2-.3,2.4-.4,3.3-.2,2.4-2.3,10.1-3.7,11.1-1,.7-2.4,1.4-3.9,1.4h0ZM207.3,174.7c1.2.3,2.5-.3,3.3-.9.7-.7,2.6-7,2.9-9.8,0-.9.2-2.1.4-3.4.3-2.5.7-5.4.7-7.2,0-3.4-.5-7.8-1.1-8.8l-1.1.4c-.7,1.9-3.6,10.1-4.2,15l-.2,1.9c-.5,3.7-1.4,11.4-.7,12.8h0Z"/>
          </g>
        </g>
        <g>
          <circle class="cls-8" cx="216.9" cy="141.8" r="4.9"/>
          <path class="cls-14" d="M216.9,147.8c-3.3,0-5.9-2.6-5.9-5.9s2.6-5.9,5.9-5.9,5.9,2.6,5.9,5.9-2.6,5.9-5.9,5.9ZM216.9,137.9c-2.1,0-3.9,1.8-3.9,3.9s1.8,3.9,3.9,3.9,3.9-1.8,3.9-3.9-1.8-3.9-3.9-3.9Z"/>
        </g>
      </g>
    </g>
  </g>
</svg>