<?xml version="1.0" encoding="UTF-8"?>
<svg xmlns="http://www.w3.org/2000/svg" version="1.1" viewBox="0 0 612 792">
  <defs>
    <style>
      .cls-1 {
        fill: #9c8faa;
      }

      .cls-1, .cls-2, .cls-3, .cls-4, .cls-5, .cls-6, .cls-7, .cls-8, .cls-9, .cls-10, .cls-11, .cls-12, .cls-13, .cls-14, .cls-15, .cls-16, .cls-17, .cls-18, .cls-19 {
        stroke-width: 0px;
      }

      .cls-2 {
        fill: #997137;
      }

      .cls-3 {
        fill: #352b5f;
      }

      .cls-4 {
        fill: #d8cef3;
      }

      .cls-5 {
        fill: #48416d;
      }

      .cls-6 {
        fill: #f6effd;
      }

      .cls-7 {
        fill: #cedbf4;
        opacity: .3;
      }

      .cls-8 {
        fill: #f9c041;
      }

      .cls-9 {
        fill: #c1913d;
      }

      .cls-10 {
        fill: #736aa8;
      }

      .cls-11 {
        fill: #181630;
      }

      .cls-12 {
        fill: #ffd066;
      }

      .cls-13 {
        fill: #c7b7c7;
      }

      .cls-14 {
        fill: #bc7a11;
      }

      .cls-15 {
        fill: #575284;
      }

      .cls-16 {
        fill: #413575;
      }

      .cls-17 {
        fill: #9c80b0;
      }

      .cls-18 {
        fill: #fdfdfe;
      }

      .cls-19 {
        fill: #656384;
      }
    </style>
  </defs>
  <g id="Oscar">
    <g id="OSCAR_HIMSELF" data-name="OSCAR HIMSELF">
      <g id="Oscar_Left_Ear" data-name="Oscar Left Ear">
        <path class="cls-3" d="M145.67,314.82c-7.55-5.89-11.82-13.62-13.02-23.09-.17-1.45-.07-2.96.03-4.35.1-1.4.52-3.72,1.35-6.55,6.45-14.88,18.17-24.67,32.56-22.83,2.48.32,4.84,1.14,7.18,1.99.11.04.2.08.3.12,3.34-4.53,6.83-8.91,10.4-13.16-.76-.29-1.71-.77-3.02-1.42-12.75-6.34-34.35-.97-37.88.34-2.42,1.07-6.16,2.59-8.64,4.49s-6.18,5.06-8.44,8.08c-2.26,3.01-4.94,6.26-6.52,9.91s-2.86,6.84-3.67,10.5c-1.81,8.11-.3,19.92.6,24.07,1.25,4.08,2.14,5.87,3.24,7.85s2.94,4.91,4.4,7.37v.02c.8,1.08,1.78,2.17,2.01,2.47.23.29.65.71.97,1.05.31.34.55.65.98,1.02.43.37,5.88,5.32,9.35,7.31,2.09,1.19,4.1,2.5,6.47,3.1.08.02.15.05.23.07.27-5.95,1.08-11.8,2.36-17.52-.35-.17-.76-.44-1.25-.82Z"/>
        <path class="cls-13" d="M145.83,311.89c-.05.31-.1.63-.15.94-.03.8-.14.97-.26,1.58-.62,3.43-.88,3.71-4.02,1.53-7.55-5.89-11.82-13.62-13.02-23.09,3.43,1.22,5.83.02,6.59-3.45,1.31-5.94,4.01-11.05,8.77-14.93,6.49-5.28,13.79-8.52,22.29-4.94-2.54,3.8-5.08,7.59-7.61,11.39-1.77-.25-3.79.18-5.49.52-6.12,1.23-12.71,8.82-12.14,14.96.5,5.36,3.39,13.21,5.05,15.48Z"/>
        <path class="cls-6" d="M166.03,269.54c-8.5-3.58-15.87-.37-22.36,4.92-4.76,3.88-7.46,8.98-8.77,14.93-.76,3.46-3.17,4.67-6.59,3.45-.17-1.45.07-3.76.03-4.35s.14-1.16.4-1.86c.05-.74.48-3.26.58-3.63s.12.46,1.39-3.29c4.42-12.57,21.29-22.05,32.59-22.54,4.09-.18,5.74.34,8.05,1.27,4.1,1.66,4.38.49-.77,5.23-1.82,1.68-3.03,3.92-4.53,5.9Z"/>
        <path class="cls-17" d="M145.83,311.89c-1.78-2.26-4.58-10.16-5.08-15.53-.57-6.15,6.02-13.74,12.14-14.96,1.7-.34,3.81-.85,5.58-.6-2.29,4.78-4.65,9.54-6.86,14.36-2.15,4.69-3.84,9.54-4.8,14.63-.13.71-.13,1.61-.98,2.1Z"/>
      </g>
      <g id="Oscar_Right_Ear" data-name="Oscar Right Ear">
        <path class="cls-3" d="M471.85,260.49c.45-.3.98-.48,1.31-.65,0,0,2.82-1.53,5.15-1.53,13.27-1.64,18.21,1.88,22.89,7.18,8.1,8.89,11.14,15.31,11.89,20.05,3.83,16.16-5.48,25.62-5.48,25.62-2.04,2.53-3.95,4.09-7.06,5.72-1.04.42-1.95.65-2.65.54,1.32,5.54,2.39,11.11,3.24,16.69.25-.15.54-.27.86-.39,13.16-4.82,21.49-14.29,26.27-27.21.9-2.43,1.26-4.98,1.91-7.46,0,0,.16-.43.26-1.06.1-.63.28-4.28.42-6.42,0-.35,0-.71,0-1.06-.06-1.98-.14-4.39-.18-5.95-.05-1.57-.39-3.39-.49-4.2-.99-7.88-4.05-12.78-8.64-19.08-2.79-3.83-7.95-8.59-9.13-9.46-1.18-.87-2.12-1.65-3.93-2.75-1.81-1.11-2.51-1.65-3.35-2.01-.84-.36-2.67-1.21-3.53-1.57s-3.11-1.43-4.53-1.83-1.67-.47-3.5-.98c-1.83-.51-3.53-.81-6-.99-2.46-.19-6.41-.12-8.37.04-1.97.16-5.33.69-7.74,1.38s-7.12,2.69-10.27,4.9c-.1.07-.2.11-.3.14,3.98,3.9,7.62,8.03,10.95,12.36Z"/>
        <path class="cls-17" d="M514.53,306.58c-.89,1.93-1.42,2.78-2.98,4.86-2.42,3.36-4.68,4.67-7.15,6.8-1.93,1.62-4.85.71-5.16-1.68-1.43-11.16-6.11-21.11-11.24-30.91-.49-.93-1.26-1.8-1.08-2.99.89-.19,1.79-.59,2.65-.52,5.36.41,9.94,2.17,12.42,7.46,1.53,3.28,2.46,3.58,6.07,2.3.37-.13.81-.1,1.21-.15.08,1.38.8,2.01,2.19,1.97.96-.03,1.93.03,2.9.04,1.02.35,2.84,1.81,2.84,1.81.43,3.21-1.28,7.65-1.44,7.97-.19.71-.34,1.12-1.22,3.05Z"/>
        <path class="cls-6" d="M479.32,266.05c-.15-.22-.8-1.59-1.76-2.75s-3.05-3.99-2.75-4.19c2.02-.93,3.31-.85,4.82-1.03,4.75-.26,6.68-.24,9.28.16,4.18.61,10.55,3.52,14.52,6.43,2.16,1.7,5.4,4.56,8,8.89,2.81,4.69,2.95,5.34,3.53,7.13s1.27,5.96,1.27,5.96c.53,2.14.8,3.88.89,5.1.15,2.12,1.62,8.19-2.76,2-.97-.02-1.93-.08-2.9-.04-1.39.05-2.11-.59-2.19-1.97.02-.41.13-.84.05-1.23-1.46-6.93-4.79-12.83-10.45-17.07-5.07-3.79-10.78-5.82-17.29-3.99-.36-.03-.69-.83-.85-1.08l-1.4-2.33Z"/>
        <path class="cls-13" d="M478.6,269.59c.99-.03,2.04.13,2.97-.13,6.51-1.83,12.22.2,17.29,3.99,5.66,4.23,8.99,10.14,10.45,17.07.08.39-.03.82-.05,1.23-.41.05-.84.02-1.21.15-3.61,1.29-4.53.98-6.07-2.3-2.47-5.29-7.05-7.05-12.42-7.46-.87-.07-1.77.33-2.65.52-.78-.33-1.44-.84-1.78-1.62-1.8-4.04-4.09-7.78-6.53-11.45Z"/>
      </g>
      <g id="Oscar_Head_Shape" data-name="Oscar Head Shape">
        <path class="cls-6" d="M437.51,246.03c-1.26-.99-6.57-5.14-7.02-5.47s-1.41-1.06-2.63-1.9-3.66-2.51-5.33-3.62-4.57-3.02-5.69-3.8-6.07-3.44-8.69-4.86-9.48-2.28-12.16-3.54-5.51-2.22-7.95-3.1-12.68-4.35-15.55-5.32-4.93-1.2-4.93-1.2l-3.51-.98-6.99-1.69-4.99-.98-9.23-1.79c-2.01-.16-4.18-.6-7.72-.78-.65-.03-4.06-.24-7.08-.13-4.62-.24-9.58-.19-11.1-.23-1.34,0-3.89.01-4.41,0-3.9-.02-11.33.79-12.82,1.08s-4.34.8-5.4,1.04-3.07.63-3.42.69-.53.07-.76.1-3.55.75-3.78.81-.8.08-1.21.19-2.29.62-2.98.74-1.19.18-1.45.27-2.01.63-2.55.72-1.16.23-1.83.38-2.25.62-2.63.73-2.64.8-3.05.86-.63.12-.94.18c-4.31.57-7.38,2.43-7.82,2.5s-1.21.24-1.7.4l-2.31.84-2.15.83c-2.01.6-5.05.35-6.26.86-6.31,2.67-17.96,8.6-18.48,8.94s-1.41.97-1.73,1.1-10.78,6.74-11.62,7.26-2.44,1.7-3.36,2.29l-3.31,2.14c-2.22,1.45-4.33,3.7-4.8,4.06s-2.26,1.55-2.26,1.55c-1,.83-.81.72-2.25,1.99-3.46,3.06-11.56,4.55-14.75,7.89-.45.47-.77.88-1.41,1.55s-3.97,4.5-3.97,4.5c-.39.43-.41.46-.73.83s-1.49,1.78-1.78,2.14-.47.6-.69.88-.97,1.2-1.3,1.62-.5.55-.75.83l-1.95,2.57c-.32.42-5.93,8.45-6.32,9.08s-.49.87-.74,1.31l-1.46,2.55c-.23.41-3.07,8.77-3.5,12.02-1.51,7.41-1.72,8.06-2.13,10.02-.07.35-.16,1.81-.16,3.04-.28.88-.42,1.03-.48,1.28l-.98,2.17c-.62,1.55-1.97,5.72-2.21,7.48-.04,1.18.87,2.37,2.46,2.14,1.36-.2,5.86,1.46,6.28-1.08.89-5.45,3.04-10.47,5.24-15.47,4.7-10.69,10.82-20.45,18.35-29.43,7.31-8.71,15.53-16.42,24.39-23.4,8.05-6.35,16.58-12.04,25.79-16.74,11.55-5.89,23.34-11.01,35.84-14.55,13.33-3.77,26.91-5.76,40.71-6.29,12.7-.48,25.36.13,37.8,2.97,6.06,1.38,12.08,2.92,18.06,4.58,6.56,1.82,13.18,3.67,19.29,6.62,12.26,5.91,24.13,12.5,34.96,20.89,12.09,9.37,23.01,19.91,32.25,32.05,8.06,10.6,14.74,22.07,18.4,35.07,1.37,5.84,4.88,4.83,10.48,5.03,0-1.43-.38-2.35-.6-3.13-1.89-7.75-7.57-31.53-10.8-38.84-13.08-21.44-27.5-27.28-35.14-33.15-.91-.8-1.36-1.23-2.62-2.21Z"/>
        <path class="cls-18" d="M343.26,355.78c4.88-6.6,2.19-19.84-6-23.75-.9-.29-2.31-1.18-2.13-2.18s2.44-.73,3.85-.64c12.32.78,17.9,3.56,25.63,6.87,7.55,3.36,14.96,7.3,20.21,13.8,3.26,4.03,6.77,5.07,11.56,4.77,8.39-.52,16.82.01,25.18.59,15.26,1.07,29.42,5.7,41.86,14.88,1.98,1.47,3.7,3.3,5.54,4.96.06,1.46-.42,2.75-1.17,3.99-3.82,6.31-7.31,12.8-11.66,18.79-4.46,6.15-9.44,11.77-15.28,16.65-2.23,1.86-4.09,4.12-6.43,5.88-5.8,4.37-11.48,8.88-17.83,12.51-4.96,2.84-9.83,5.84-15.12,8.02-6.5,2.68-12.98,5.39-19.68,7.59-8.35,2.74-16.81,5.07-25.39,6.9-6.13,1.31-12.37,2.01-18.61,2.67-6.82.73-13.63.51-20.43.36-8.45-.2-16.95-.46-25.3-1.62-8.27-1.14-16.41-3.26-24.47-5.58-9.54-2.75-18.89-6.13-27.81-10.4-9.54-4.57-18.76-9.79-27.12-16.45-4.41-3.52-8.99-6.86-13.02-10.78-4.52-4.38-8.69-9.12-12.52-14.16-4.59-6.02-8.37-12.53-12.04-19.12-.8-1.44-1.44-2.96-2.15-4.45.06-.61.12-1.22.18-1.82,2.47-.91,4.08-3.02,6.17-4.47,9.45-6.57,19.83-10.48,31.12-12.61,11.6-2.19,23.25-2.35,34.95-2.44,1.99-.01,3.97-.32,5.96-.37,1.39-.04,2.1-.98,2.79-1.88,4.49-5.84,10.81-9.28,16.99-12.81,5.55-3.17,11.5-5.46,17.67-7.28,5.83-1.71,7.4-1.75,13.3-3.05,3.73-.67,4.63-.03,4.91.46.63,1.08-6.36,3.69-9.96,11.59-1.39,2.61-1.27,4.67-.09,9.54,2.54,6.31,10.4,11.81,13.6,12.47,2.49.52,4.47-.52,2.34,4.75-1.22,4.47-5.75,8.65-5.75,8.65-5.36,3.71-8.33,4.8-15.67-1.98-1.78-1.64-3.39-3.99-3.39-3.99l-.02-.02c-2.02-2.34-4.45-2.23-6.52.3l-.05.05c-1.13,2.04-1,2.88-.87,5.63s2.53,7.46,5.05,9.2,9.73,4.13,12.31,4.19c9.55.09,12.77-2.22,14.52-3.21s4.24-3.6,4.24-3.6c1.29-1.34,2.03-2.3,2.51-3.81.08-.14.46-1.58,1.57-1.63,1.19,0,1.79.71,1.88,1.36s1.17,3.65,4.48,6.54c2.38,2.07,9.9,4.57,14.4,4.31s6.58-.42,8.4-1.06,5.9-3.44,9.11-7.62c1.6-2.08,1.87-3.61,1.84-6.28-.06-4.2-1.2-4.16-1.2-4.16-1.46-1.13-3.03-.99-5.36.64-1.26.87-2.03,2.42-2.89,3.62-2.45,3.39-7.41,5.24-11.22,4.5s-7.3-2.77-8.73-4.3-2.75-5.43-3.48-7.28c-.92-2.33.16-3.74,2.47-4.45s9.64-2.89,12.78-7.77ZM211.97,394.42c1.46.14,2.89-.68,4.32-1.56,3.8-2.37,7.48-4.91,11.39-7.11,4.98-2.8,9.92-5.7,14.72-8.79,3.34-2.15,4.19-5.41,2.69-8.39-1.79-3.56-5.84-5.5-9.33-4.44-2.88.87-5.44,2.38-8,3.94-6.36,3.89-12.81,7.63-19.19,11.49-3.12,1.89-5.1,6.1-4.3,8.86,1.04,3.57,3.99,5.96,7.69,6.01ZM404.16,364.28c-3.36.03-5.95,1.9-7.3,5.06-1.32,3.08.49,5.07,2.32,7.03,1.78,1.91,4.17,2.97,6.39,4.28,7.43,4.38,14.81,8.84,22.28,13.15,2.86,1.65,5.93.67,8.34-2.28,2.47-3.02,2.65-5.91.47-8.59-1.49-1.82-3.39-3.17-5.39-4.37-6.48-3.87-12.96-7.75-19.45-11.61-2.37-1.41-4.78-2.71-7.66-2.67Z"/>
        <path class="cls-4" d="M476.03,396.11c-2.91,7.58-13.5,27.62-36.93,44.71-10.26,6.37-21.6,15.81-52.8,27.11-13.13,4.52-51.53,10.16-67.34,10.16s-46.34-5.03-58.45-8.33-30.71-10.69-30.71-10.69c-9.15-4.49-17.98-9.54-26.25-15.52-7.37-5.34-13.69-11.74-19.52-18.7-.88-1.05-.71-2.82-2.36-3.26-1.35-1.82-1.21-1.52-4.04-5.46-2.83-3.94-5.32-8.9-9.41-16.05-.64-1.49-1.11-2.59-1.66-3.88.09-1.83-.89-3.36-1.64-4.84-1.43-2.83-1.42-5.3.72-7.71,2.36-2.66,3.92-6.07,7.32-7.75.71,1.48,1.35,3.01,2.15,4.45,3.66,6.59,7.45,13.1,12.04,19.12,3.83,5.03,8.01,9.77,12.52,14.16,4.04,3.92,8.61,7.26,13.02,10.78,8.36,6.66,17.58,11.88,27.12,16.45,8.92,4.27,18.27,7.65,27.81,10.4,8.05,2.32,16.2,4.43,24.47,5.58,8.35,1.15,16.85,1.42,25.3,1.62,6.8.16,13.61.37,20.43-.36,6.25-.66,12.48-1.37,18.61-2.67,8.59-1.83,17.04-4.16,25.39-6.9,6.69-2.2,13.18-4.91,19.68-7.59,5.28-2.18,10.16-5.18,15.12-8.02,6.35-3.63,12.03-8.14,17.83-12.51,2.34-1.77,4.2-4.02,6.43-5.88,5.84-4.88,10.82-10.49,15.28-16.65,4.34-5.99,7.84-12.48,11.66-18.79.75-1.24,1.24-2.53,1.17-3.99.2-.03.4-.06.6-.1,2.52,3.24,5.56,6.03,7.87,9.47.97,1.44,1.27,2.51.63,4.05-1.1,2.66-1.48,4.74-2.05,7.61"/>
        <path class="cls-13" d="M485.97,340.61c0-.62,1.01-1.88.92-2.54-.09-.66-.16-1.38-.23-2.06-.07-.68-.14-2.14-.18-2.95s-.29-2.22-.42-3.02c-.13-.8,0,0-.13-.96-.13-.96-.18-1.36-.28-2.06s0,0-.08-.97-.5-1.83-.62-2.78c-.02-.13-.06-.17-.06-.17l-.75-.03c-5.21-.25-6.39.86-7.96-4.72-3.66-12.99-10.33-24.47-18.4-35.07-9.23-12.14-20.15-22.69-32.25-32.05-10.83-8.39-22.71-14.98-34.96-20.89-6.11-2.95-12.73-4.8-19.29-6.62-5.98-1.66-12.01-3.2-18.06-4.58-12.45-2.83-25.1-3.45-37.8-2.97-13.8.52-27.38,2.51-40.71,6.29-12.5,3.54-24.29,8.65-35.84,14.55-9.21,4.7-17.74,10.39-25.79,16.74-8.86,6.99-17.09,14.69-24.39,23.4-7.53,8.98-13.65,18.74-18.35,29.43-2.2,5-4.34,10.02-5.24,15.47-.42,2.54-2.46,1.31-3.82,1.51-1.59.23-1.66-.92-1.62-2.1.09-2.57-.39-5.26-.53-7.88-1.79,3.87-2.99,11.61-3.09,12.35-.1.74-.32,2.33-.42,3.91-.11,1.58-.14,2.02-.22,2.94-.23,2.38-.54,5.51-.75,7.56-.21,2.04.39,12.45,1.89,16.69.35.43.71.87,1.17,1.44,1.17-1.67,2.23-3.51,4.48-3.79,1.8-.22,3.39.34,4.89,1.35,2.98,2.02,3.08,4.76,2.27,8.4-.21.96-.35,1.59.13,2.46,1.31,2.35,1.66,5.19,3.65,7.2,2.47-.91,4.08-3.02,6.17-4.47,9.45-6.57,19.83-10.48,31.12-12.61,11.6-2.19,23.25-2.35,34.95-2.44,1.99-.01,3.97-.32,5.96-.37,1.39-.04,2.1-.98,2.79-1.88,4.49-5.84,10.81-9.28,16.99-12.81,5.55-3.17,11.5-5.46,17.67-7.28,5.83-1.71,11.81-.51,17.72-1.82.33-.07.75.24,1.13.37,9.3-3.92,18.31-3.84,27.46,0,10.37-.16,20.23,1.16,29.54,5.31,7.55,3.36,14.96,7.3,20.21,13.8,3.26,4.03,6.77,5.07,11.56,4.77,8.39-.52,16.82.01,25.18.59,15.26,1.07,29.42,5.7,41.86,14.88,1.98,1.47,3.7,3.3,5.54,4.96.2-.03.4-.06.6-.1.43-1.41.64-2.94,1.34-4.19,1.68-3.03,1.94-6.15,1.66-9.54-.25-3,1.71-5.54,4.24-6.32,2.59-.8,5.17.26,6.98,2.86.18.26.34.59,1.23.33,0-2.77-.11-5.72.03-8.65.14-2.95.93-8.24.93-8.86Z"/>
        <path class="cls-17" d="M474.99,396.57c.57-2.87,1.98-5.42,3.08-8.08.64-1.54.34-2.6-.63-4.05-2.31-3.44-5.35-6.23-7.87-9.47.43-1.41.64-2.94,1.34-4.2,1.68-3.03,1.94-6.15,1.66-9.54-.25-3,1.71-5.54,4.24-6.32,2.59-.8,5.17.26,6.98,2.86.18.26.34.59,1.23.33,0-2.77-.11-5.72.03-8.65.14-2.95-.53-6.32.45-9.23.43.37.93,1.01.96,1.51.83,14.66-.67,29.39-5.75,43.28-1.17,3.19-2.36,6.37-3.7,9.48-.35.81-1.04,1.65-2.01,2.06Z"/>
        <path class="cls-17" d="M172.94,375.89c-3.4,1.67-4.97,5.09-7.32,7.75-2.13,2.4-2.15,4.88-.72,7.71.75,1.49,1.74,3.02,1.64,4.84-1.82-2.3-2.68-5.1-3.49-7.8-1.95-6.48-3.73-13.03-5.23-19.63-.87-3.83-1.66-7.75-1.29-11.76.35.43.71.87,1.17,1.44,1.17-1.67,2.23-3.51,4.48-3.79,1.8-.22,3.39.34,4.89,1.35,2.98,2.02,3.08,4.76,2.27,8.4-.21.96-.35,1.59.13,2.46,1.31,2.35,1.66,5.19,3.65,7.2-.06.61-.12,1.22-.18,1.82Z"/>
      </g>
      <path id="Oscar_Right_Whisker" data-name="Oscar Right Whisker" class="cls-1" d="M211.97,394.42c-3.71-.04-6.65-2.44-7.69-6.01-.8-2.75,1.17-6.97,4.3-8.86,6.38-3.86,12.83-7.6,19.19-11.49,2.56-1.56,5.11-3.07,8-3.94,3.49-1.05,7.54.89,9.33,4.44,1.5,2.98.64,6.24-2.69,8.39-4.8,3.1-9.74,5.99-14.72,8.79-3.91,2.2-7.59,4.74-11.39,7.11-1.43.89-2.86,1.71-4.32,1.56Z"/>
      <path id="Oscar_Left_Whisker" data-name="Oscar Left Whisker" class="cls-1" d="M404.16,364.28c2.88-.05,5.29,1.26,7.65,2.67,6.49,3.86,12.97,7.74,19.45,11.61,2.01,1.2,3.91,2.54,5.39,4.37,2.18,2.68,2,5.57-.47,8.59-2.41,2.95-5.49,3.93-8.34,2.28-7.47-4.31-14.85-8.77-22.28-13.15-2.21-1.31-4.6-2.36-6.39-4.28-1.83-1.96-3.64-3.95-2.32-7.03,1.35-3.16,3.94-5.03,7.3-5.06Z"/>
      <g id="Oscar_Nose_and_Mouth" data-name="Oscar Nose and Mouth">
        <path class="cls-3" d="M321.46,379.43c-.09-.33-.29-.53-.69-.53-.48,0-.56.34-.72.59s-2.32,3.68-3,4.49c-1.85,2.01-2.82,2.35-3.92,3.03s-3.12,1.62-3.12,1.62c-3.82,1.86-7.66,2.59-12.04,2.12s-7.7-2.17-7.7-2.17c-8.29-3.42-11.5-11.64-8.8-17.62.41-.89,2.86-4.31,6.57-.36l1.03,1.01c3.65,4.27,8.99,10.22,15.63,6.23,1.76-1.13,2.42-1.36,3.77-2.99s4.32-4.6,4.74-8.78c.14-1.37.26-1.77-.98-1.93-4.17-.61-7.41-2.65-10.5-5.37,0,0-4.75-4.07-6.09-10.59-.07-1.4-.16-4.06.47-6.12.93-3.03,2.23-5.56,4.53-7.93,0,0,3.92-4.02,10.7-6.11,8.59-3.13,18.12-.47,23.07,1.73,3.09,1.45,5.13,3.13,5.13,3.13,5.03,4.6,7.21,9.54,6.34,17.05-.17,1.84-2,7.06-5.71,9.77-1.92,1.29-6.63,3.98-10.45,4.91-.81.2-1.19.96-1.04,1.77.56,2.92,2.04,6.26,3.78,8.24,1.53,1.58,2.38,2.3,3.65,2.98,5.53,2.73,12.1,1.42,15.93-3.99,2.98-4.21,5.27-5.82,8.6-2.67,0,0,2.08,2.52,1.41,6.68-1.5,5.53-7.64,10.03-8.77,10.85s-4.32,1.99-7.08,2.27c-3.22.15-5.65.25-9.37-.56-4.29-.94-6.4-1.38-9.86-3.84-.46-.36-1.72-1.06-2.64-2.15-.64-.86-1.65-2.17-2.88-4.77ZM319.6,343.19c2.87.1,5.2.13,7.36-.94,2.8-1.39,3.33-4.56,1.16-6.81-3.52-3.66-12.39-3.54-15.76.22-1.98,2.22-1.43,5.07,1.23,6.37,2.08,1.02,4.28,1.23,6.01,1.16Z"/>
        <path class="cls-6" d="M319.6,343.19c-1.73.07-3.94-.14-6.01-1.16-2.65-1.31-3.21-4.16-1.23-6.37,3.36-3.75,12.24-3.88,15.76-.22,2.17,2.25,1.64,5.42-1.16,6.81-2.16,1.07-4.49,1.04-7.36.94Z"/>
      </g>
      <g id="Oscar_Eyes" data-name="Oscar Eyes">
        <g id="Oscar_Right_Eye" data-name="Oscar Right Eye">
          <path class="cls-3" d="M395.15,335.88c-9.3-.03-16.86-8.39-16.85-18.63.01-10.3,8.28-18.44,18.67-18.36,9.55.07,17.59,8.68,17.54,18.78-.05,10.46-8.32,18.25-19.36,18.22Z"/>
          <circle class="cls-18" cx="404.74" cy="309.72" r="3.8"/>
        </g>
        <g id="Oscar_Left_Eye" data-name="Oscar Left Eye">
          <path class="cls-3" d="M261.16,317.41c.13,10.6-7.55,18.36-18.3,18.47-9.56.1-18.12-8.39-18.12-18.18,0-10.75,7.64-18.5,17.62-18.9,10.64-.43,18.67,7.76,18.8,18.62Z"/>
          <circle class="cls-18" cx="250.89" cy="310.81" r="4.26"/>
        </g>
      </g>
      <path id="Outline" class="cls-3" d="M320.96,487.08c-48.46,0-94.1-15.15-128.52-42.66-35.01-27.98-54.29-65.36-54.29-105.26s19.28-77.28,54.29-105.26c34.42-27.51,80.06-42.66,128.52-42.66s94.1,15.15,128.52,42.66c35.01,27.98,54.29,65.36,54.29,105.26s-19.28,77.28-54.29,105.26c-34.42,27.51-80.06,42.66-128.52,42.66ZM320.96,209.25c-90.88,0-164.81,58.28-164.81,129.92s73.93,129.92,164.81,129.92,164.81-58.28,164.81-129.92-73.93-129.92-164.81-129.92Z"/>
    </g>
    <g id="Glasses">
      <g id="Nosebit">
        <path class="cls-10" d="M359.47,303.62s-4.63-6.73-36.19-9.58c-28.69-.53-36.19,9.58-36.19,9.58v-19.89s11.61-7.37,36.65-6.04c25.93,1.37,35.73,6.04,35.73,6.04v19.89Z"/>
        <path class="cls-15" d="M323.28,287.84c-28.69-.43-36.19,7.72-36.19,7.72v6.65s7.5-8.15,36.19-7.72c31.56,2.29,36.19,7.72,36.19,7.72v-6.65s-4.63-5.43-36.19-7.72Z"/>
      </g>
      <g id="Left_Lens" data-name="Left Lens">
        <circle class="cls-7" cx="229.21" cy="311.89" r="58.13"/>
        <path class="cls-19" d="M229.05,378.67c-36.82,0-66.78-29.96-66.78-66.78s29.96-66.78,66.78-66.78c20.29,0,36.4,5.35,47.89,15.91,12.54,11.52,18.89,28.64,18.89,50.87,0,36.82-29.96,66.78-66.78,66.78ZM229.05,259.95c-28.64,0-51.94,23.3-51.94,51.94s23.3,51.94,51.94,51.94,51.94-23.3,51.94-51.94c0-34.46-17.48-51.94-51.94-51.94Z"/>
        <path class="cls-5" d="M280.53,319.51c-3.49,25.27-25.22,44.81-51.44,44.81s-47.7-19.3-51.38-44.36c-5.89-5.03-10.86-10.9-14.67-17.41-.48,3.21-.73,6.49-.73,9.84,0,36.82,29.96,66.78,66.78,66.78s66.78-29.96,66.78-66.78c0-3.8-.2-7.43-.57-10.92-3.78,6.75-8.79,12.85-14.78,18.06Z"/>
      </g>
      <g id="Right_lens" data-name="Right lens">
        <circle class="cls-7" cx="413.52" cy="311.89" r="58.13"/>
        <path class="cls-19" d="M413.94,378.67c-36.82,0-66.78-29.96-66.78-66.78,0-21.52,7.2-39.16,20.83-51.01,11.7-10.17,28.02-15.78,45.95-15.78,36.82,0,66.78,29.96,66.78,66.78s-29.96,66.78-66.78,66.78ZM413.94,259.95c-14.35,0-27.21,4.31-36.21,12.14-10.44,9.07-15.73,22.47-15.73,39.8,0,28.64,23.3,51.94,51.94,51.94s51.94-23.3,51.94-51.94-23.3-51.94-51.94-51.94Z"/>
        <path class="cls-5" d="M461.23,333.92c-8.2,17.91-26.29,30.39-47.24,30.39-28.64,0-51.94-23.3-51.94-51.94,0-6.86.84-13.09,2.49-18.69-2.72-6.93-4.21-14.37-4.21-22.12,0-.68.03-1.35.05-2.03-8.64,11.22-13.17,25.81-13.17,42.84,0,36.82,29.96,66.78,66.78,66.78,32.61,0,59.67-23.35,65.48-54.31-5.57,3.81-11.6,6.78-18.24,9.07Z"/>
      </g>
    </g>
  </g>
  <g id="Hat">
    <g id="Michael_Hat" data-name="Michael Hat">
      <g>
        <path class="cls-11" d="M187.83,162.29c-.12-2.29-.96-3.52,0-5.85l134.88-44.79c.38-.1.77-.1,1.15,0l133.91,44.24c1.92,2.04,1.94,4.44-.38,5.08l-134.11,35.05-135.45-33.73Z"/>
        <path class="cls-3" d="M322.66,199.64l-134.07-37.16c-2.31-.64-2.28-3.94.05-4.53l134.07-42.51c.38-.1.77-.1,1.15,0l134.07,42.51c2.33.59,2.36,3.88.05,4.53l-134.07,37.16c-.41.11-.84.11-1.25,0Z"/>
        <path class="cls-19" d="M457.92,155.89l-133.91-44.24c-.38-.1-.77-.1-1.15,0l-2.54.84v82.75l3.12.78,134.11-35.05c2.31-.64,2.3-3.04.38-5.08Z"/>
        <path class="cls-16" d="M456.99,158.22l-134.07-42.51c-.38-.1-.77-.1-1.15,0l-1.47.47v83.34l1.42.39c.41.11.84.11,1.25,0l134.07-37.16c2.31-.64,2.28-3.94-.05-4.53Z"/>
        <path class="cls-5" d="M400.91,223.88c0,1.94-1.57,3.36-3.18,2.87-4.43-1.36-12.82-3.68-20.64-4.51-10.91-1.17-25.93-3.52-52.47,7.08-1.94.77-4.04.81-5.99.11-26.16-9.5-37-11.5-50.53-10.57-9.32.64-17.58,4.36-22.08,6.79-1.68.91-3.6-.52-3.6-2.69v-58.39c0-1.44.89-2.68,2.11-2.92,5.3-1.06,19.37-3.81,27.54-4.8,10.22-1.24,34.81-3.09,49.59-3.09s34.83,2.61,50.85,4.78c11.92,1.62,21.82,2.78,26.11,3.27,1.3.15,2.28,1.42,2.28,2.95v59.12Z"/>
        <path class="cls-19" d="M321.33,157.93c-13.42,0-34.9,1.35-46.4,2.43v54.51c10.78.2,21.92,3.55,43.36,10.46,1.76.6,3.11,1.44,6.08.08.71-.32,1.29-.51,2.08-.8v-66.6c-1.76-.05-3.48-.09-5.12-.09Z"/>
        <path class="cls-3" d="M321.48,233.72c-1.29,0-2.58-.22-3.81-.67-24.8-9-35.87-11.34-49.38-10.41-8.94.62-16.94,4.3-20.91,6.44-1.8.97-3.87.8-5.54-.45-1.67-1.25-2.66-3.37-2.66-5.69v-58.39c0-3.3,2.02-6.1,4.8-6.66,5.61-1.12,19.55-3.84,27.75-4.83,10.46-1.27,35.11-3.11,49.93-3.11s34.1,2.48,51.22,4.81c12.13,1.65,22.26,2.83,26.05,3.27,2.97.34,5.21,3.23,5.21,6.73v59.12c0,2.11-.82,4.06-2.25,5.35-1.43,1.29-3.25,1.73-4.99,1.19-4.24-1.3-12.48-3.59-20.11-4.41l-1.64-.18c-10.51-1.16-24.9-2.74-49.49,7.08-1.35.54-2.77.81-4.19.81ZM273.69,214.86c12.06,0,23.73,2.89,45.9,10.94,1.28.47,2.7.44,3.98-.07,25.91-10.35,41.1-8.67,52.19-7.45l1.62.18c7.58.81,15.64,2.97,20.27,4.35v-57.3c-4.94-.57-14.3-1.68-25.52-3.21-16.94-2.3-36.2-4.76-50.48-4.76s-38.94,1.82-49.26,3.07c-7.74.94-20.86,3.47-26.74,4.64v56.4c4.65-2.4,12.95-5.96,22.24-6.6,1.97-.14,3.88-.21,5.78-.21Z"/>
        <path class="cls-8" d="M268.1,206.94c13.53-.82,24.37.95,50.53,9.35,1.95.63,4.05.59,5.99-.09,26.54-9.38,41.56-7.3,52.47-6.27,7.78.74,16.12,2.77,20.57,3.98v-14.72c-4.45-1.2-12.79-3.24-20.57-3.98-11.02-1.04-26.22-3.15-53.25,6.55-1.43.51-2.98.53-4.42.07-26.73-8.62-37.65-10.44-51.32-9.61-9.57.58-18.02,4.04-22.43,6.17v14.69c.12-.04.24-.08.35-.14,4.5-2.15,12.76-5.44,22.08-6Z"/>
        <path class="cls-12" d="M323.84,201.75c-1.43.51-2.98.53-4.42.07-22.19-7.16-33.48-9.62-44.49-9.78v14.72c10.88.16,22.03,2.57,43.7,9.53,1.95.63,4.05.59,5.99-.09,1.14-.4,2.25-.78,3.35-1.14v-14.72c-1.35.44-2.72.91-4.13,1.42Z"/>
      </g>
      <g id="Tissle_thingy" data-name="Tissle thingy">
        <g>
          <path class="cls-8" d="M251.93,135.16l-10.42,3.46s-9.29,8.72-12.45,24.72,2.37,33.69,1.32,41.98-2.31,13.74-2.31,13.74h-5.34s2.69-12.34,2.2-17.2c-1.62-16.24-4.38-18.85-1.98-39.88,5.17-19.79,8.54-22.78,10.31-25.91,1.55-2.75,5.13-5.01,7.2-5.01,11.86,0,11.47,4.11,11.47,4.11Z"/>
          <path class="cls-12" d="M240.58,131.05c-2.07,0-5.65,2.26-7.2,5.01-1.57,2.78-4.4,5.45-8.63,19.85,1.08-.19,2.15-.2,3.21,0,1.02.2,1.97.6,2.87,1.15,3.94-11.99,10.8-18.45,10.8-18.45l10.42-3.46s.39-4.11-11.47-4.11Z"/>
          <path class="cls-9" d="M228.86,220.05h-7.38l.26-1.21c.03-.12,2.65-12.24,2.19-16.89-.47-4.67-1.03-8.24-1.53-11.4-1.25-7.91-2.16-13.62-.44-28.7l.03-.14c4.4-16.84,7.58-21.74,9.48-24.67.34-.53.65-1,.92-1.47,1.63-2.89,5.48-5.52,8.07-5.52h.02c5.88,0,9.75.98,11.52,2.93.99,1.09.95,2.09.93,2.28l-.06.65-10.82,3.59c-1.19,1.2-9.17,9.67-12.01,24.03-1.9,9.62-.59,20.02.47,28.37.69,5.47,1.29,10.19.86,13.53-1.05,8.24-2.31,13.78-2.32,13.84l-.18.78ZM223.96,218.05h3.3c.38-1.78,1.31-6.51,2.12-12.87.39-3.1-.19-7.7-.86-13.03-1.07-8.5-2.41-19.08-.45-29.01,3.19-16.13,12.36-24.89,12.75-25.25l.16-.15,9.71-3.22c-.72-1-3.28-2.46-10.22-2.46h-.02c-1.71,0-4.96,2.08-6.33,4.5-.29.51-.61,1.01-.98,1.58-1.83,2.82-4.9,7.55-9.21,24.02-1.68,14.76-.79,20.35.44,28.09.5,3.18,1.08,6.78,1.55,11.51.41,4.1-1.3,13.03-1.97,16.3Z"/>
        </g>
        <g id="Tassles">
          <g>
            <path class="cls-8" d="M227.01,221.16s.47,10.4,1.85,15.92,3.54,14.88,5,14.86,2.54-1.29,3.03-2.2-.25-8.08-.98-10.76-1.8-7.75-2.74-10.33c-.71-1.95-3.85-9.82-5.01-8.65l-1.16,1.17Z"/>
            <path class="cls-2" d="M233.86,252.92c-1.69,0-2.72-2.6-5.5-13.8l-.45-1.8c-1.39-5.55-1.86-15.68-1.88-16.11l-.02-.43,1.47-1.47c.34-.34.8-.48,1.26-.37,1.9.42,4.38,6.7,5.36,9.38.65,1.79,1.35,4.66,1.96,7.2.29,1.21.57,2.34.8,3.21.62,2.31,1.63,10.09.89,11.47-.69,1.3-2.08,2.7-3.88,2.72h-.02ZM228.01,221.55c.11,2.01.62,10.57,1.8,15.3l.45,1.81c.9,3.63,2.74,11.07,3.8,12.3.86-.13,1.59-.95,1.98-1.67.26-.87-.34-7.37-1.06-10.04-.24-.89-.52-2.03-.82-3.26-.6-2.49-1.28-5.3-1.9-6.99-1.14-3.13-2.87-6.87-3.77-7.92l-.49.49Z"/>
          </g>
          <g>
            <path class="cls-8" d="M223.5,220.94s-2.47,10.67-2.14,16.38.59,15.4,2.69,15.45,4.04-1.2,5.01-2.11,2.08-8.29,1.85-11.06-.24-8.02-.81-10.71c-.43-2.03-2.56-10.24-4.58-9.1l-2.02,1.14Z"/>
            <path class="cls-2" d="M224.17,253.76s-.1,0-.15,0c-2.41-.06-3.02-4.33-3.55-14.52l-.1-1.85c-.33-5.78,2.06-16.22,2.17-16.66l.1-.42,2.4-1.35c.51-.29,1.09-.31,1.62-.07,2.48,1.12,4.2,8.93,4.39,9.81.4,1.89.53,4.88.65,7.52.05,1.25.11,2.41.18,3.31.2,2.35-.72,10.52-2.15,11.86-1.24,1.16-3.33,2.37-5.56,2.37ZM224.36,221.57c-.44,1.98-2.31,10.81-2.03,15.71l.1,1.86c.19,3.55.62,11.87,1.77,12.7h.01c1.56,0,3.24-1.01,4.18-1.88.66-.83,1.77-7.54,1.54-10.26-.08-.92-.13-2.11-.19-3.39-.11-2.56-.24-5.47-.61-7.2-.84-3.95-2.47-8.13-3.28-8.44l-1.49.9Z"/>
          </g>
          <g>
            <path class="cls-8" d="M221.02,220.57s-3.73,9.94-4.42,15.6c-.69,5.66-2.09,15.19-.42,15.67s3.41-.35,4.33-1.04,3.03-7.69,3.3-10.45,1.14-7.9,1.13-10.65c0-2.08-.33-10.54-2.13-9.84l-1.8.7Z"/>
            <path class="cls-2" d="M217.21,252.97c-.43,0-.87-.06-1.3-.18-1.95-.56-1.83-4.39-.51-14.89l.23-1.85c.69-5.71,4.32-15.41,4.47-15.83l.15-.41,2.2-.86c.48-.19.99-.13,1.42.16,1.87,1.27,2.04,8.43,2.05,10.59,0,1.91-.38,4.86-.73,7.45-.17,1.24-.32,2.4-.41,3.3-.24,2.4-2.29,10.09-3.69,11.13-.97.73-2.4,1.38-3.89,1.38ZM216.61,250.95c1.19.26,2.52-.32,3.32-.92.66-.73,2.64-7.01,2.92-9.76.09-.92.25-2.09.41-3.36.34-2.54.72-5.41.71-7.19-.01-3.4-.48-7.75-1.08-8.82l-1.1.43c-.7,1.92-3.63,10.13-4.22,14.97l-.23,1.85c-.47,3.73-1.43,11.41-.73,12.8Z"/>
          </g>
        </g>
        <g>
          <circle class="cls-8" cx="226.22" cy="218.05" r="4.91"/>
          <path class="cls-14" d="M226.22,223.96c-3.26,0-5.91-2.65-5.91-5.91s2.65-5.91,5.91-5.91,5.91,2.65,5.91,5.91-2.65,5.91-5.91,5.91ZM226.22,214.15c-2.15,0-3.91,1.75-3.91,3.91s1.75,3.91,3.91,3.91,3.91-1.75,3.91-3.91-1.75-3.91-3.91-3.91Z"/>
        </g>
      </g>
    </g>
  </g>
</svg>