<?xml version="1.0" encoding="UTF-8"?>
<svg id="Layer_1" data-name="Layer 1" xmlns="http://www.w3.org/2000/svg" version="1.1" viewBox="0 0 612 792">
  <defs>
    <style>
      .cls-1 {
        fill: #9c8faa;
      }

      .cls-1, .cls-2, .cls-3, .cls-4, .cls-5, .cls-6, .cls-7, .cls-8, .cls-9, .cls-10, .cls-11, .cls-12, .cls-13, .cls-14, .cls-15, .cls-16, .cls-17, .cls-18, .cls-19, .cls-20, .cls-21, .cls-22, .cls-23 {
        stroke-width: 0px;
      }

      .cls-2 {
        fill: #cc9a1b;
      }

      .cls-3 {
        fill: #997137;
      }

      .cls-4 {
        fill: #352b5f;
      }

      .cls-5 {
        fill: #d8cef3;
      }

      .cls-6 {
        fill: #e89c13;
      }

      .cls-7 {
        fill: #48416d;
      }

      .cls-8 {
        fill: #f6effd;
      }

      .cls-9 {
        fill: #f9c041;
      }

      .cls-10 {
        fill: #c1913d;
      }

      .cls-11 {
        fill: #181630;
      }

      .cls-12 {
        fill: #ffd066;
      }

      .cls-13 {
        fill: #efa91d;
      }

      .cls-14 {
        fill: #c7b7c7;
      }

      .cls-15 {
        fill: #bc7a11;
      }

      .cls-24 {
        fill: #5e77d3;
        stroke: #2b5da5;
      }

      .cls-24, .cls-25 {
        stroke-miterlimit: 10;
        stroke-width: 8px;
      }

      .cls-16 {
        fill: #f4ad0f;
      }

      .cls-17 {
        fill: #413575;
      }

      .cls-18 {
        fill: #9c80b0;
      }

      .cls-25 {
        fill: #75a5ea;
        stroke: #5292dd;
      }

      .cls-19 {
        fill: #fff3d4;
      }

      .cls-20 {
        fill: #fdfdfe;
      }

      .cls-21 {
        fill: #ffe499;
      }

      .cls-22 {
        fill: #af7000;
      }

      .cls-23 {
        fill: #656384;
      }
    </style>
  </defs>
  <g id="Oscar">
    <g id="OSCAR_HIMSELF" data-name="OSCAR HIMSELF">
      <g id="Oscar_Left_Ear" data-name="Oscar Left Ear">
        <path class="cls-4" d="M137.3,253.7c-7.55-5.89-11.82-13.62-13.02-23.09-.17-1.45-.07-2.96.03-4.35.1-1.4.52-3.72,1.35-6.55,6.45-14.88,18.17-24.67,32.56-22.83,2.48.32,4.84,1.14,7.18,1.99.11.04.2.08.3.12,3.34-4.53,6.83-8.91,10.4-13.16-.76-.29-1.71-.77-3.02-1.42-12.75-6.34-34.35-.97-37.88.34-2.42,1.07-6.16,2.59-8.64,4.49s-6.18,5.06-8.44,8.08c-2.26,3.01-4.94,6.26-6.52,9.91s-2.86,6.84-3.67,10.5c-1.81,8.11-.3,19.92.6,24.07,1.25,4.08,2.14,5.87,3.24,7.85s2.94,4.91,4.4,7.37v.02c.8,1.08,1.78,2.17,2.01,2.47.23.29.65.71.97,1.05.31.34.55.65.98,1.02s5.88,5.32,9.35,7.31c2.09,1.19,4.1,2.5,6.47,3.1.08.02.15.05.23.07.27-5.95,1.08-11.8,2.36-17.52-.35-.17-.76-.44-1.25-.82v-.02Z"/>
        <path class="cls-14" d="M137.46,250.77c-.05.31-.1.63-.15.94-.03.8-.14.97-.26,1.58-.62,3.43-.88,3.71-4.02,1.53-7.55-5.89-11.82-13.62-13.02-23.09,3.43,1.22,5.83.02,6.59-3.45,1.31-5.94,4.01-11.05,8.77-14.93,6.49-5.28,13.79-8.52,22.29-4.94-2.54,3.8-5.08,7.59-7.61,11.39-1.77-.25-3.79.18-5.49.52-6.12,1.23-12.71,8.82-12.14,14.96.5,5.36,3.39,13.21,5.05,15.48h0Z"/>
        <path class="cls-8" d="M157.66,208.42c-8.5-3.58-15.87-.37-22.36,4.92-4.76,3.88-7.46,8.98-8.77,14.93-.76,3.46-3.17,4.67-6.59,3.45-.17-1.45.07-3.76.03-4.35s.14-1.16.4-1.86c.05-.74.48-3.26.58-3.63s.12.46,1.39-3.29c4.42-12.57,21.29-22.05,32.59-22.54,4.09-.18,5.74.34,8.05,1.27,4.1,1.66,4.38.49-.77,5.23-1.82,1.68-3.03,3.92-4.53,5.9l-.02-.03Z"/>
        <path class="cls-18" d="M137.46,250.77c-1.78-2.26-4.58-10.16-5.08-15.53-.57-6.15,6.02-13.74,12.14-14.96,1.7-.34,3.81-.85,5.58-.6-2.29,4.78-4.65,9.54-6.86,14.36-2.15,4.69-3.84,9.54-4.8,14.63-.13.71-.13,1.61-.98,2.1Z"/>
      </g>
      <g id="Oscar_Right_Ear" data-name="Oscar Right Ear">
        <path class="cls-4" d="M463.48,199.37c.45-.3.98-.48,1.31-.65,0,0,2.82-1.53,5.15-1.53,13.27-1.64,18.21,1.88,22.89,7.18,8.1,8.89,11.14,15.31,11.89,20.05,3.83,16.16-5.48,25.62-5.48,25.62-2.04,2.53-3.95,4.09-7.06,5.72-1.04.42-1.95.65-2.65.54,1.32,5.54,2.39,11.11,3.24,16.69.25-.15.54-.27.86-.39,13.16-4.82,21.49-14.29,26.27-27.21.9-2.43,1.26-4.98,1.91-7.46,0,0,.16-.43.26-1.06.1-.63.28-4.28.42-6.42v-1.06c-.06-1.98-.14-4.39-.18-5.95-.05-1.57-.39-3.39-.49-4.2-.99-7.88-4.05-12.78-8.64-19.08-2.79-3.83-7.95-8.59-9.13-9.46-1.18-.87-2.12-1.65-3.93-2.75-1.81-1.11-2.51-1.65-3.35-2.01s-2.67-1.21-3.53-1.57-3.11-1.43-4.53-1.83-1.67-.47-3.5-.98-3.53-.81-6-.99c-2.46-.19-6.41-.12-8.37.04-1.97.16-5.33.69-7.74,1.38s-7.12,2.69-10.27,4.9c-.1.07-.2.11-.3.14,3.98,3.9,7.62,8.03,10.95,12.36v-.02Z"/>
        <path class="cls-18" d="M506.16,245.46c-.89,1.93-1.42,2.78-2.98,4.86-2.42,3.36-4.68,4.67-7.15,6.8-1.93,1.62-4.85.71-5.16-1.68-1.43-11.16-6.11-21.11-11.24-30.91-.49-.93-1.26-1.8-1.08-2.99.89-.19,1.79-.59,2.65-.52,5.36.41,9.94,2.17,12.42,7.46,1.53,3.28,2.46,3.58,6.07,2.3.37-.13.81-.1,1.21-.15.08,1.38.8,2.01,2.19,1.97.96-.03,1.93.03,2.9.04,1.02.35,2.84,1.81,2.84,1.81.43,3.21-1.28,7.65-1.44,7.97-.19.71-.34,1.12-1.22,3.05h-.01Z"/>
        <path class="cls-8" d="M466.86,204.14c-.42-.57-.9-1.11-1.06-1.32s-.23-.97-.23-1.46,1.59-1.13,2.23-1.4c1.72-.69,3.19-.87,4.29-.97.42-.06.83-.13,1.25-.19,3.54-.52,5.37-1.03,7.66-.25.51.14,1.22.31,1.22.31,0,0,1.48.45,2.27.73.36.11.32.13.98.36,4.59,1.57,9.59,4.87,10.23,5.36s.66.52.94.77c2.25,1.88,2.5,2.39,4.33,4.32.25.29.57.63.82.92,4.27,4.92,3.78,5.36,4.79,8.25.47,1.34.68,1.88.88,3.82.07.65.15.74.38,2.14.53,2.14.8,3.88.89,5.1.15,2.12,1.62,8.19-2.76,2-.97-.02-1.93-.08-2.9-.04-1.39.05-2.11-.59-2.19-1.97.02-.41.13-.84.05-1.23-1.46-6.93-4.79-12.83-10.45-17.07-5.07-3.79-10.78-5.82-17.29-3.99-.93.26-1.98.1-2.97.13-.12-.09.13.15-.2-.37s-1.13-1.48-.84-1.12-.07-.22-.51-.7"/>
        <path class="cls-14" d="M470.24,208.47c.99-.03,2.04.13,2.97-.13,6.51-1.83,12.22.2,17.29,3.99,5.66,4.23,8.99,10.14,10.45,17.07.08.39-.03.82-.05,1.23-.41.05-.84.02-1.21.15-3.61,1.29-4.53.98-6.07-2.3-2.47-5.29-7.05-7.05-12.42-7.46-.87-.07-1.77.33-2.65.52-.78-.33-1.44-.84-1.78-1.62-1.8-4.04-4.09-7.78-6.53-11.45h0Z"/>
      </g>
      <g id="Oscar_Body" data-name="Oscar Body">
        <path class="cls-14" d="M120.02,707.45c4.72,4.91,9.58,9.63,15.09,13.69,8.03,5.92,16.57,10.92,26.13,13.76,14.93,4.43,29.7,4.37,43.85-3.12,1.1-.58,2.33-1.12,3.14-2,2.34-2.54,5.03-2.39,7.96-1.49,14.62,4.47,29.7,6.41,44.8,8.45,18.44,2.49,36.97,3.12,55.51,3.12,19.56,0,39.05-1.39,58.44-4.11,12.68-1.78,25.32-3.78,37.82-6.59,1.36-.31,2.56-.15,3.78.67,12.05,8.07,25.4,9.47,39.25,7.03,19.52-3.44,35.33-13.52,48.43-28.14.38-.42.82-.79,1.24-1.18.19,1.07,1.09,1.15,1.89,1.3,8.59,1.58,16.98,3.97,25.34,6.41,4.19,1.22,8.38,2.64,11.98,5.25,2.75,1.99,3.22,4.65,1.22,6.37-2.07,1.79-4.29,3.37-6.9,4.35-13.68,5.12-27.9,8.1-42.17,11.02-7.37,1.5-14.76,2.79-22.16,4.05-9.87,1.69-19.74,3.29-29.7,4.49-9.7,1.17-19.46,1.71-29.12,3.2-5.8.89-11.7,1.14-17.56,1.62-9.01.73-18.03,1.25-27.06,1.69-8.21.4-16.45.3-24.62.93-17.12,1.33-34.24.88-51.35.78-10.7-.06-21.41-.57-32.11-1.01-9.76-.4-19.51-1.24-29.26-1.97-8.5-.63-17-1.22-25.48-2.22-5.07-.6-10.22-1.01-15.35-1.27-4.53-.23-9.04-1.01-13.55-1.63-5.31-.73-10.61-1.47-15.9-2.33-5.06-.82-10.1-1.83-15.16-2.67-5.87-.98-11.76-1.8-17.62-2.83-2.82-.5-5.52-1.54-8.36-2.08-7.87-1.49-15.73-3.06-23.44-5.31-5.42-1.58-10.63-3.72-15.81-5.88-1.78-.74-3.18-2.66-4.42-4.3-.85-1.12-.45-2.5.63-3.6,2.46-2.51,5.61-3.87,8.79-5.02,4.65-1.69,9.34-3.45,14.16-4.45,4.9-1.02,9.52-3.24,14.65-3.35,1.05-.02,2.63.05,3.02-1.63h-.02Z"/>
        <path class="cls-14" d="M459.06,407.23c-.11-.47-3.99-18.86-5.52-28.64-2.88.44-4.76,1.82-6.72,3.46-7.05,5.9-14.27,11.52-22.22,16.2-6.69,3.95-13.42,7.8-20.55,10.92-3,1.31-3.48,1.04-3.43-2.18.03-1.9.88-3.74.34-5.67-1.44,1.81-.86,4.05-1.23,6.08-.23,1.28-.06,2.64-.06,3.96-1.59,5.04-1.31,10.32-1.87,15.48-1.12,10.29-1.07,20.69-2.51,30.96-.4,2.84.62,5.84-.99,8.55,0,2.65,1.69,4.59,2.84,6.75,2.57,4.8,4.95,9.66,6.69,14.85,1.53,4.56,2.72,9.17,3.76,13.86,1.78,8,4,15.88,2.75,24.25-.39,2.58-.5,5.29.01,7.93.78-.91.62-2.05.66-3.09.18-3.91.67-6.94.72-10.85.08-5.7,3.24-10.36,8.61-10.42,5.68-.06,9.49,3.74,9.56,9.53.1,7.76-.57,15.45-1.86,23.1-2.62,15.47-7.75,30.04-15.44,43.73-2.3,4.1-5.42,7.73-6.99,12.24,1.89,1.89,7,1.86,8.99,1.38,7.25-1.73,13.57-5.5,19.76-9.56,7.92-5.21,13.77-12.37,19.22-19.91,2.66-3.68,4.62-7.83,6.46-11.99,1.61-3.62,3.34-7.19,4.59-10.97,1.82-5.52,2.96-11.18,4.13-16.85,1.18-5.7.93-11.54,1.67-17.29.38-2.96.12-6.05.85-9.03-1.15-3.02-.56-6.23-.89-9.34-1.06-9.97-2.26-19.91-3.97-29.79-.85-4.89-1.21-9.88-2.24-14.73-1.95-9.16-2.66-18.5-4.25-27.71-.29-1.71-.48-3.41-.93-5.11-.41-1.56.89-2.34.85-5.43s-.69-4.21-.79-4.68h0Z"/>
        <path class="cls-14" d="M218.46,496.09c-.04.46-.19.74-.39,1.36s-.5,1.78-.61,2.36c-.23,1.19-.41,1.9-.41,1.9,0,0-.44,1.57-.66,2.1s-1.26,7.05-1.59,10.64c-.07.72-.23,1.47-.99,1.86-.79-.46-.9-1.35-1.31-2.05-2.09-3.57-6.32-5.44-10.25-4.51-3.85.91-6.6,4-6.78,8.23-.44,10,.26,19.96,2.29,29.76,2.18,10.53,5.49,20.71,10.37,30.35,3.08,6.08,6.58,11.9,10.38,17.56.97,1.45,1.78,2.94.38,4.6-2.88-.33-5.66-.97-8.42-1.92-9.03-3.1-16.8-8.28-23.75-14.62-7.72-7.04-13.84-15.35-18.44-24.8-4.4-9.04-7.16-18.54-8.85-28.41-1.5-8.78-1.32-17.69-2.04-26.53.55-.73.59-1.6.43-2.4-1.13-5.61.57-11.06,1.01-16.56.62-7.76,2.28-15.41,3.36-23.11,1.51-10.75,3.35-21.45,4.85-32.2,1.17-8.39,2.1-16.8,1.86-25.29-.02-.82.14-1.73-.97-2.03-.02-.34-.08-.09-.05-1.01s.54-2,.62-2.47.09-.94.32-1.95.71-3.11.76-3.53.08-.39.18-1.47.77-3.69.8-4.03.07-.66.15-1.47.78-4.18.82-4.54.07-.64.11-.97c1.65-1.59.34-4.15,1.81-5.88,2.05,2.42,3.92,4.84,6,7.07,5.74,6.17,12.36,11.24,19.76,15.27,6.39,3.48,12.32,7.78,18.92,10.88,2.37,1.11,4.61,2.58,7.25,3.08.17.17.34.34.51.51.5,6.11,1.16,12.2,1.46,18.32.24,4.97.83,9.91,1.22,14.86.65,8.25,1.56,16.49,1.84,24.77-2.66,4.73-8.61,16.49-7.56,14.42s-2.15,3.91-2.73,6.08c-.05.34.02.41-.15,1.02s-.38.45-.49.98c-.18.76-.24.92-.47,2.04s-.34.74-.53,1.73h-.02Z"/>
        <path class="cls-18" d="M223.54,681.89c3.09-.51,5.88.9,8.69,1.63,11.02,2.86,22.18,4.8,33.46,6.28,14.33,1.88,28.66,3.05,43.11,3.57,10.01.36,19.87-.72,29.8-1.11,8.22-.33,16.32-1.7,24.46-2.7,6.07-.75,12.06-2.21,18.06-3.5,7.2-1.55,14.75-3.21,21.93-4.84-1.95,3.92-4.02,7.73-4.64,12.23-.72,5.26-.2,10.25,1.66,15.17,1.06,2.79.93,3.04-1.83,3.83-12.57,3.61-23.55,5.76-38.75,7.43-18.82,2.78-32.62,2.96-49.02,2.73-14.3-.21-28.57-1.03-42.78-2.78-11.89-1.46-23.7-3.25-35.23-6.58-2.15-.62-4.27-1.38-6.43-1.98-1.14-.31-1.58-.82-1.04-1.95,4.09-8.56,2.71-16.97-.66-25.34-.28-.69-.53-1.39-.79-2.09h0Z"/>
        <path class="cls-18" d="M415.31,699.11c4.43,7.19,11.56,8.75,19.24,9.66,6.18.73,12.06-.26,17.91-1.83,7.89-2.11,15.24-5.39,21.92-10.21,10.32-7.45,18.54-16.73,24.9-27.72,1.16-2.01,2.45-3.93,3.52-6.01,2.39-4.64,3.87-9.58,5.52-14.5,1.46-4.36,2.32-8.76,3.18-13.21.13-.66-.02-1.79,1.01-1.68.84.09.52,1.1.5,1.7-.12,4.65.35,9.3-.23,13.94-.11.91.38,1.68,1.45,1.88-.5,4.5-1.39,10.09-2.91,14.29-5.27,14.59-12.86,27.69-24.33,38.36-9.95,9.25-21.49,15.11-34.9,17.48-6.86,1.21-13.49,1.26-20.14-1.07-8.28-2.9-16.18-12.74-16.63-21.09h-.01Z"/>
        <path class="cls-18" d="M113.65,656.57c1.19-.56.66-1.56.57-2.4-.41-3.79-.92-7.56-.87-11.38,0-.6-.27-1.35.64-1.81.79,2.61,1.57,5.16,2.35,7.72,2.5,8.2,6.48,15.76,10.62,23.19,5.11,9.17,12.1,16.71,20.61,22.94,7.87,5.76,16.5,9.86,25.8,12.49,9.39,2.66,18.83,2.81,27.99-1.06,3.05-1.29,6.26-4.31,8.84-6.39-1.01,5.65-5.68,14.55-13.01,17.92-9.21,4.24-19.05,3.43-28.41.6-23.27-7.03-39.2-22.25-49.08-44.23-2.36-5.25-4.26-10.64-5.91-16.13-.14-.45-.09-.96-.14-1.45h0Z"/>
        <path class="cls-18" d="M405.62,598.23c1.89,1.89,4.35,1.31,6.35.83,7.25-1.73,13.57-5.5,19.76-9.56,7.92-5.21,13.77-12.37,19.22-19.91,2.66-3.68,4.62-7.83,6.46-11.99,1.61-3.62,3.34-7.19,4.59-10.97,1.82-5.52,2.96-11.18,4.13-16.85,1.18-5.7.93-11.54,1.67-17.29.38-2.96.12-6.05.85-9.03,2.71-.62,5.73-1.24,8.44-1.86.75,1.82.68,3.78.61,5.64-.32,8.55-.58,17.12-1.8,25.61-2.29,15.9-8.46,30.13-18.19,42.91-9.01,11.83-20.69,19.8-34.51,24.87-4.09,1.5-8.32,2.32-12.69,2.22-2.72-.06-4.93-2.05-4.87-4.63h-.02Z"/>
        <path class="cls-18" d="M157.39,503.97c.72,8.84.54,17.74,2.04,26.53,1.69,9.87,4.45,19.37,8.85,28.41,4.6,9.45,10.72,17.76,18.44,24.8,6.95,6.34,14.73,11.52,23.75,14.62,2.76.95,5.54,1.6,8.42,1.92-1.55,2.67-3.42,3.56-6.81,3.01-8.29-1.34-15.87-4.58-22.94-9.01-12.49-7.83-22.52-18.04-29.51-31.09-4.26-7.97-6.94-16.51-8.72-25.35-2.38-11.8-2.99-23.7-2.3-35.7.1-1.76-.85-3.59.36-5.27-.31,4.27,2.53,5.68,5.96,6.54.79.2,1.67.4,2.46.59h0Z"/>
        <path class="cls-20" d="M157.39,503.97c-.79-.2-1.67-.39-2.46-.59-3.43-.87-6.26-2.28-5.96-6.54.08-1.94.12-4.45.25-5.82s.27-1.81.34-2.34.21-1.28.24-1.86.05-.54.08-.98.1-3.05.24-3.84.34-1.17.42-1.81.46-4.01.56-4.69.19-1.02.41-1.81.55-3.47.64-4.17.31-1.3.4-1.81.42-2.58.56-3.19.24-.82.36-1.32,2.02-9.04,2.18-9.66.2-.54.37-1.32.42-2.17.6-2.68c.19-.63.35-1.18.47-1.65.17-.71,7.15-28.82,7.25-29.28s.29-.94.36-1.3.54-2.59.65-3.2.28-.99.34-1.3.45-1.89.58-2.36.47-1.38.52-1.72.17-1.15.21-1.58c.03-.3.09-.96.21-1.29s.08-.64.17-1.25c.13-.24.19-1.05.26-1.32s.14-.59.21-.89c1.11.3,1.03,1.21,1.05,2.03.24,8.49-.68,16.9-1.86,25.29-1.5,10.75-3.34,21.45-4.85,32.2-1.08,7.71-2.74,15.36-3.36,23.11-.44,5.5-2.13,10.95-1.01,16.56.16.8.12,1.67-.43,2.4v-.02Z"/>
        <path class="cls-20" d="M459.86,411.91c.15.74.42,2.03.49,2.49s.36,1.05.43,1.53,5.56,22.33,8.32,33.5c.59,2.41,1.44,6.62,1.58,7.28s.34.8.43,1.31.52,3.16.65,3.67.24.9.31,1.33,1.13,6.31,1.26,6.83.18.68.27,1.17.57,3.19.67,3.67.18.87.25,1.34.69,4.59.76,5.15.26.85.32,1.33.47,3.99.63,4.68.29,1.07.36,1.82.65,6.5.93,9.76c.08.97.19,1.97-.43,2.85-2.71.62-5.73,1.24-8.44,1.86-1.15-3.02-.56-6.23-.89-9.33-1.06-9.97-2.26-19.91-3.97-29.79-.85-4.89-1.21-9.88-2.24-14.73-1.95-9.16-2.66-18.5-4.25-27.71-.29-1.71-.48-3.41-.93-5.11-.41-1.56,2.4-4.13,3.5-4.87"/>
        <path class="cls-18" d="M556.62,598.22c.91,5.86-.47,11.81-2.61,17.13-3.98,9.85-9.66,18.69-16.51,26.79-.56.66-1.04,1.95-2.11,1.47-.9-.4-1.41-.21-.79-2.84,1.31-8.83.81-17.72,1.1-26.59,1.83,1.72.11,4.09,1.14,6.13,1.24-1.45,2.26-3,3.62-4.14,4.98-4.21,9.45-8.82,12.91-14.39.8-1.28,1.38-3.07,3.25-3.55h0Z"/>
        <path class="cls-8" d="M483.44,569.02c-.67.88,1.72,1.19,2.59,1.65,6.94,3.61,12.2,9.07,16.69,15.32,6.73,9.37,8.9,20.16,9.36,31.4.22,5.42-.06,16.49,5.23,16.32.09-3.53,2.84-13.43.53-22.11-.04-.6-.02-.36-.11-1.79s-.89-5.11-1.01-5.75,0,0-.15-1.3-.52-2.41-.77-3.26-.14-.82-.21-1.23c-.72-3.08-.97-4.31-1.81-6.4-1.45-3.61-2.32-5.47-4.96-8.52,0,0-1.6-1.91-1.76-2.09s-.75-.84-.96-1.06-2.13-2.14-2.48-2.48-.57-.58-1.06-.97-.92-.73-1.59-1.26-2.38-1.69-2.7-1.91-2.97-1.62-3.55-1.94-6.97-3.59-8.26-3.5c-1.55-.02-3.04.88-3.04.88"/>
        <path class="cls-8" d="M138.97,569.21c-.19.39.98.58.11,1.12-6.65,4.15-11.85,9.84-16.41,16.09-4.15,5.69-6.83,12.1-8.16,19.06-.93,4.88-2.4,9.67-2.01,14.73.07.86-.1,1.73-1.12,1.97-1.51.35-2.95.29-4.08-.99-.16-2.27-.1-5.67.08-6.81s.44-3.81.44-3.81c0,0,.1-.5.1-.78s.14-1.21.16-1.5.05-1.19.16-1.93.58-1.91.62-2.25.07-.54.1-.82.06-.57.12-.99.07-.38.14-.94.54-1.4.62-1.76.16-1.15.38-1.73.48-.93.57-1.29.12-.64.33-1.24.36-.54.66-1.27,4.73-16.75,23.18-23.62c1.3-.53,2.55-1.23,4.02-1.23h-.01Z"/>
        <path class="cls-18" d="M224.39,620.87c-2.52,1.07-2.3,2.55-.8,4.43.52.65,1.19,1.41,1.05,2.42-5.81.96-11.56.33-17.28-.77-6.91-1.33-13.28-4.08-19.19-7.86-5.52-3.53-10.64-7.58-15.34-12.15-.64-.62-1.48-1.13-1.5-2.19,3.11,1.86,6.22,3.73,9.34,5.59,7.46,4.45,15.47,7.5,23.91,9.56,4.53,1.11,9.08,1.71,13.73,1.87,2.12.07,3.97-1.23,6.09-.89h0Z"/>
        <path class="cls-18" d="M401.21,626.72c.15-.33.3-.67.45-1,1.92-.95,2.61-2.44,2-4.51,4.91.53,10.54.04,15.72-.98,11.21-2.2,21.47-6.67,30.82-13.24.25-.17.62-.16.94-.23-1.85,3.48-5.07,5.66-8.01,7.98-7.22,5.71-15.26,9.92-24.4,11.64-5.8,1.09-11.66,1.31-17.52.34h0Z"/>
        <path class="cls-14" d="M556.62,598.22c-1.65.63-2.46,2.27-3.25,3.55-3.46,5.57-7.93,10.18-12.91,14.39-1.36,1.15-2.37,2.7-3.62,4.14-1.02-2.04.69-4.42-1.14-6.13-.14-2.4-.19-6.17-.43-7.2s-.42-1.52-.54-2.29-.41-1.48-.12-2.4,1.61-1.27,2.48-1.1,1.86,0,2.69-.21,2.47-.7,3.25-.82.52-.08.78-.11c.98-.31.9-.37,1.77-.56s2.4-.53,2.95-.66,1.06-.32,1.06-.32c0,0,2.62-.64,2.95-.68s.88-.22.98-.23,2.6-.79,3.09.64h0Z"/>
        <path class="cls-14" d="M403.97,621.22c.61,2.07-.4,3.55-2.32,4.5.88-3.46.91-3.52-2.81-4.96-6.58-2.55-10.89-7.15-12.93-13.88-.31-1.01.39-3.08.47-3.06.14.19.98,6.75,4.13,9.66,4.11,4.21,7.67,5.85,13.46,7.75h0Z"/>
        <path class="cls-14" d="M222.19,620.97c-.61,2.07.05,4.15,1.97,5.1-.88-3.46-.44-3.68,3.28-5.12,6.58-2.55,10.89-7.15,12.93-13.88.31-1.01-.76-2.98-.84-2.96-.14.19-1.41,6.19-4.55,9.1-4.11,4.21-6.99,5.86-12.79,7.77h0Z"/>
        <path class="cls-14" d="M419.46,683.89c1.07-1.73,3.11-5.7,1.56-7.88-1.72-2.44-5.41-3.73-8.98-2.53-3.98,1.54-6.59,4.28-9,7.74-7.18,1.63-14.73,3.29-21.93,4.84-6,1.29-11.99,2.75-18.06,3.5-8.14,1-16.24,2.37-24.46,2.7-9.93.4-19.79,1.47-29.8,1.11-14.45-.52-28.78-1.69-43.11-3.57-11.29-1.48-22.44-3.42-33.46-6.28-2.82-.73-5.61-2.14-8.69-1.63-2.54-2.66-4.37-6.06-7.99-7.6-2.01-.86-3.63-1.47-5.86-1.18-4.81.63-7.08,5.41-4.38,9.41,3.26,4.82,4.76,9.82,4.86,10.2s.2.73.34,1.55.3,2.09.21,3.23c-.03.31-.23,2.08-.83,3.1-.31.38-5.47,4.36-8.52,5.65-9.15,3.87-18.59,3.72-27.99,1.06-9.31-2.64-17.93-6.73-25.8-12.49-8.51-6.23-15.51-13.77-20.61-22.94-4.14-7.43-8.12-14.98-10.62-23.19-.78-2.56-1.56-5.11-2.35-7.72-.92.47-.63,1.22-.64,1.81-.05,3.82.46,7.6.87,11.38.09.84.62,1.84-.57,2.4-.06-.3-.11-.57-.17-.89s-.46-1.01-.56-1.26c-.05-.13-4.27-17.52-5.02-26.66-.18-2.21-.48-4.42-.72-6.62,1.13,1.28,2.57,1.34,4.08.99,1.02-.24,1.18-1.11,1.12-1.97-.39-5.06,1.08-9.85,2.01-14.73,1.33-6.96,4-13.37,8.16-19.06,4.56-6.25,9.76-11.94,16.41-16.09.87-.54-.3-.73-.11-1.12,3.5-1.58,4.01-1.41,5.51,1.72,6.02,12.56,25.35,32.53,25.06,32.24s.67.61,1.1.95.54.44.81.67c.02,1.06.87,1.57,1.5,2.19,4.7,4.57,9.82,8.62,15.34,12.15,5.91,3.78,12.27,6.53,19.19,7.86,5.71,1.1,11.46,1.73,17.27.77,3.61,4.41,6.62,9.26,10.64,13.4,7.83,8.06,16.46,15.01,26.51,20,12.1,6.01,24.78,10,38.4,11.24,11.51,1.04,22.92.95,34.16-1.42,16.41-3.46,31.72-9.64,44.96-20.31,7.35-5.92,14.12-12.34,19.21-20.39.78-1.24,2.05-2.76,3.41-3.58,5.86.96,11.01.82,16.81-.27,9.14-1.72,17.18-5.93,24.4-11.64,2.94-2.32,6.16-4.5,8.01-7.98,0,0,3.49-2.57,4.79-3.69s4.7-4,6.08-5.45,6.09-6.37,7.23-7.82,3.69-4.66,4.32-5.6l2.99-4.5c1.81-3.77,4.32-7.17,5.7-11.19.57-1.65,2.01-.83,2.98-.19-.51.19-1.78.61-1.78.71s1.72,1.19,2.59,1.65c6.94,3.61,12.2,9.07,16.69,15.32,6.73,9.37,8.9,20.16,9.36,31.4.22,5.42.39,5.43,5.69,5.26,0,0,.22-.02.24.15,0,0,.34,1.18.33,1.42s-.18,1.41-.32,2.49.02,1.29-.11,2.02-.07.89-.15,1.96-.05,1.41-.45,3.01-.31,1.57-.31,1.93c.07.79-.06.98-.09,1.59s-.02.34-.06.98-.27,1.37-.41,2.4-.36,2.41-.43,3.17-.35,1.66-.58,2.48-.08.31-.23,1.42-.35,1.83-.59,2.61-.19.72-.25,1.03c-1.08-.2-1.69-1.14-1.58-2.05.58-4.64.11-9.3.23-13.94.01-.6.34-1.61-.5-1.7-1.03-.11-.88,1.02-1.01,1.68-.86,4.45-1.72,8.86-3.18,13.21-1.65,4.92-3.13,9.86-5.52,14.5-1.07,2.07-2.35,4-3.52,6.01-6.36,10.99-14.58,20.27-24.9,27.72-6.68,4.82-14.03,8.09-21.92,10.21-5.85,1.57-11.73,2.56-17.91,1.83-7.68-.91-14.81-2.47-19.24-9.66-.4-1.96-.41-3.82,0-5.89.73-4.31,3.08-7.6,4.15-9.33h0Z"/>
        <path class="cls-8" d="M225.79,411.88c3.74,1.22,7.55,2.27,11.2,3.71,6.47,2.55,13.27,3.91,19.92,5.8,7.16,2.03,14.59,2.55,21.8,4.26,2.13.51,4.43.41,6.54,1.22-.9,2.3-3.35,1.9-4.92,2.19-4.63.85-8.57,3.12-12.59,5.18-7.55,3.87-14.4,8.73-20.47,14.75-5.68,5.64-11.8,10.82-15.34,18.26-.4.85-.19,2.3-1.62,2.56-.28-8.28-1.19-16.52-1.84-24.77-.39-4.95-.98-9.89-1.22-14.86-.3-6.12-.95-12.21-1.46-18.32v.02Z"/>
        <path class="cls-8" d="M338.85,426.36c4.99-1.04,6.35-.3,9.1-.8,5.82-1.05,11.61-2.21,17.39-3.46,5.91-1.28,11.57-3.26,17.33-4.93,5.36-1.54,10.52-3.75,15.78-5.64.38-.14.82-.12,1.23-.17-1.59,5.04-1.31,10.32-1.87,15.48-1.12,10.29-1.07,20.69-2.51,30.96-.4,2.84.62,5.84-.99,8.55-2.13-.53-2.64-2.64-3.56-4.11-2.48-3.97-5.59-7.27-8.83-10.6-3.42-3.51-7.29-6.46-10.95-9.64-2.28-1.99-5.04-3.45-7.67-5.01-4.52-2.69-9.29-4.89-14.1-7.02-2.73-1.21-5.05-1.34-7.73-2.59-.37-.17-2.25-.81-2.6-1.02h-.02Z"/>
        <path class="cls-20" d="M411.74,525.94c-.11-9.47-1.67-16.21-3.44-24.21-1.04-4.69-2.23-9.3-3.76-13.86-1.74-5.19-4.12-10.05-6.69-14.85-1.15-2.15-2.85-4.1-2.84-6.75-2.13-.53-2.64-2.64-3.56-4.11-2.48-3.97-5.59-7.27-8.83-10.6-3.42-3.51-7.29-6.46-10.95-9.64-2.28-1.99-5.04-3.45-7.67-5.01-4.52-2.69-9.29-4.89-14.1-7.02-2.73-1.21-5.06-2.01-7.74-3.26-.37-.17-1.45-.28-1.8-.48-1.16-.15-2.27-.52-2.74-.59s-.49-.29-3.45-.76c-.75-.12-17.47-1.29-26.96-1.08-4.1.09-8.05.95-12.05,1.55-1.39.21-3.82.48-4.18.52s-.83.41-1,.5-2.63.56-4,.51c-.9,2.3-3.35,1.9-4.92,2.19-4.63.85-8.57,3.12-12.59,5.18-7.55,3.87-14.4,8.73-20.47,14.75-5.68,5.64-11.8,10.82-15.34,18.26-.4.85-.19,2.3-1.62,2.56-2.66,4.73-7.24,13.76-7.56,14.41s-2.63,5.41-2.73,6.09,0,.58-.15,1.02-.41.78-.49.98-.47,2.04-.47,2.04c0,0-.32,1.23-.45,1.73-.14.55-.33,1.14-.57,1.98-.26.94-.36,1.27-.5,2.09-.15.9-.25,1.14-.34,1.55-.06.26-.55,1.56-.66,2.1s-1.34,7.05-1.67,10.64c-.07.72-.23,1.47-.99,1.86.14,4.49.41,13.19.41,13.46s0,.47.04,1.04.28,4.65.34,5.4.31,1.69.18,1.09.63,4.59.77,4.92.24.44.42,1.37c.14.86,4.68,17.78,8.33,26.25,3.35,7.79,8.06,14.87,11.87,22.42,2.07,4.11,3.67,8.35,2.9,13.12-.99,6.09-9.06,13.39-9.35,13.5s-1.11.39-1.46.66-.3.12-.72.37-.63.21-1.31.51-1.17.3-1.75.45c-2.52,1.07-2.75,2.35-1.51,4.41.52.85,1.19,1.5,1.05,2.51,3.61,4.41,7.33,9.19,11.35,13.33,7.83,8.06,16.46,15.01,26.51,20,12.1,6.01,24.78,10,38.4,11.24,11.51,1.04,22.92.95,34.16-1.42,16.36-3.45,31.62-9.6,44.83-20.2h.47v-.38c7.22-5.85,13.86-12.19,18.87-20.12.78-1.24,1.34-2.69,2.7-3.51.15-.33.3-.67.45-1,.88-3.46.91-3.52-2.81-4.96-6.58-2.55-12.67-6.86-12.93-13.88-.06-1.55-.19-2.14-.24-3.06.01-.94.4-2.5.42-2.59s.73-5.3,1.82-7.73c3.39-7.57,8.08-14.19,11.64-21.78,3.13-6.68,4.88-10.42,7.09-17.44.38-1.2.35-1.61.87-3.4.05-.31.79-3.34.97-4.64.18-1.29.69-2.92.82-3.99.14-1.06-.07.45.07-.76.14-1.2.73-3.27.89-6.24.04-.66.02-.42.04-.66.28-1.78.75-5.99.72-8.59h-.04Z"/>
        <path id="Oscar_Body_Outline" data-name="Oscar Body Outline" class="cls-4" d="M131.32,276.11c-.52,7.17-1.92,20.42-.14,30.65.12.72.21,1.17.35,2.29.05.35.06.46.12.95.06.49,1.12,5.45,1.74,7.99s.57,3.43,2.81,8.68c1.18,4.51,10.57,25.04,18.82,36.01,1.88,2.51.36,6.45.26,7.72-.11,1.27-.16.97-.21,1.49s-.67,3.53-.67,3.53c-.05.65-.09,1.26-.14,1.91-.92,6.04-1.47,8.5-2.18,12.71-.82,4.88-3.03,14.28-3.07,14.46-.04.19-.36,1.31-.45,1.68s-.11.59-.14.85c-.49,4.6-1.95,8.89-2.91,13.39-1.12,5.26-2.69,10.33-3.98,15.55-.13.54-.33,1.03-.48,1.6-.15.56-.16.6-.2.81-.03.21-1.15,5.8-1.73,8.7-1.25,6.34-2.62,12.66-3.96,18.98-.12.54-.37,1.13-.44,1.55-.07.42-.15.74-.18,1.02s-.79,4.02-.92,4.96c-.05.44-.06.5-.1.78-.04.27-.71,4.21-.84,4.99-.13.79-.16.84-.21,1.43s-.72,4.47-.85,6.55-.07,1.36-.13,2.45c-.06,1.09-.28,6.13-.37,9.19-.26,8.82-.54,17.63.31,26.44,0,1.7.05,4.03.09,4.97.04.94.08,1.01.11,1.45.03.45.69,3.83.79,4.55.1.72.14,1.04.18,1.45.05.41,2.23,8.12,3.1,12.24.24,1.13-.46,1.66-1.44,1.97-4.83,1.52-13.78,5.8-13.92,5.88s-.37.24-.48.32-3.77,2.43-4.04,2.63c-.27.2-3.6,2.9-3.6,2.9-.52.45-3.3,2.61-4.79,4.66s-2.35,3.17-4.45,6-5.29,8.29-7.11,12.48c-1.99,4.59-3.69,9.26-4.44,14.23-.16,1.05-.24,1.48-.5,3.13-.05.81-.14,1.61-.19,2.42-.21,2.4-.44,4.4-.57,6.61-.33,5.53-.2,11.02.13,16.54.07,1.22.09,1.67.12,2.96.02,1.29.13,2.28.16,2.95.04.67.52,4.53.84,6.47s2.54,11.63,2.54,11.63c4.12,14.99,18,41.94,18.2,42.44.21.5.34.78.61,1.33.27.55,2.85,4.03,2.85,4.03,1.58,1.93,3.17,3.86,4.75,5.79,4.72,4.91,9.58,9.63,15.09,13.69,8.03,5.92,16.57,10.92,26.13,13.76,14.93,4.43,29.7,4.37,43.85-3.12,1.1-.58,2.33-1.12,3.14-2,2.34-2.54,5.03-2.39,7.96-1.49,14.62,4.47,29.7,6.41,44.8,8.45,18.44,2.49,36.97,3.12,55.51,3.12,19.56,0,39.05-1.39,58.44-4.11,12.68-1.78,25.32-3.78,37.82-6.59,1.36-.31,2.56-.15,3.78.67,12.05,8.07,25.4,9.47,39.25,7.03,19.52-3.44,35.33-13.52,48.43-28.14.38-.42.82-.79,1.24-1.18,7.47-9.28,13.88-19.2,18.17-30.38.68-1.79,1.77-3.06,3.28-4.22,4.53-3.48,9.14-6.9,13.35-10.74,11.14-10.15,20.4-21.78,27.2-35.32,2.38-4.75,5.13-11.83,5.87-14.71.75-2.89,1.61-10.37,1.75-11.55s.17-1.77.11-2.4-.33-2.63-.47-3.95c-.85-8.05-7.16-13.78-15.28-13.9-5.88-.09-11.55,1.37-17.26,2.45-3.51.66-6.99,1.47-10.47,2.28-1.59.37-2.48.06-3.27-1.61-6.49-13.74-16.99-23.37-30.79-29.52-2.06-.92-4.27-1.37-6.43-1.91-1.33-.34-1.7-.99-1.32-2.35,6.8-24.28,6.58-48.87,2.67-73.49-2.66-16.75-6.79-33.22-10.78-49.7-2.99-12.37-5.57-24.83-7.96-37.32-1.35-7.02-2.33-14.11-3.6-21.15-.5-2.8.06-4.96,1.9-7.29,8.7-11.04,14.34-23.66,18.41-37.04,4.7-15.43,4.87-37.03,3.98-47.13l-3.65-21.14c-1.57-9.48-10.36-29.1-11.23-30.91-.88-1.81-2.18-4.32-3.27-6.42-1.09-2.11-6.92-11.08-10.88-16.06s-6.13-9.35-11.4-14.32-12.48-11.92-19.06-17.52l-3.38-2.69s-5.33-4.15-6.5-5.06-5.59-3.94-6.79-4.68c-1.2-.74-3.16-1.94-3.16-1.94-2.71-1.34-6.57-3.77-7.84-4.54-.41-.25-1.07-.62-2.62-1.35-1.02-.48-1.51-.72-2.14-1.05s-2.7-1.29-3.9-1.87c-1.21-.58-4.77-2.29-4.77-2.29-2.3-1.17-6.03-2.65-8.73-3.65s-13.06-4.43-14.04-4.76c-.99-.33-1.61-.45-2.92-.81-1.31-.36-2.54-.67-3.98-1.04-1.44-.38-1.92-.46-4-.97-2.08-.5-7.85-1.58-14.01-2.82-1.21-.24-6.51-1.02-6.51-1.02-.76-.19-2.79-.52-4.45-.71s-2.41-.19-3.51-.28-4.6-.54-6.49-.71c-1.89-.17-6.41-.21-7.5-.25s-10.09-.02-11.55-.02-8.02.13-9.5.28c-1.48.15-4.13.51-5.06.63-.93.12-3.14.41-3.99.54-.86.13-2.56.38-3.89.52s-4.18.77-5.5,1.01c-1.32.24-7.52,1.7-7.52,1.7-2.2.48-9.01,2.09-9.01,2.09-2.42.57-4.2,1.14-5.61,1.52-1.41.38-2.37.73-3.33,1.03-.78.25-8.96,2.78-10.02,3.11-1.05.32-2.78.85-5.51,1.93-2.73,1.08-5.34,2.37-9.55,4.28s-9.98,5.08-9.98,5.08c-4.21,2.3-4.89,2.64-9.8,5.8s-11.36,7.77-14.14,9.69-3.85,3.13-5.84,4.75c-1.99,1.62-5.09,4.04-7.46,6.52s-13.74,13.94-25.53,30.93c-3.48,4.92-5.68,7.81-7.61,11.39-.77,1.54-4.65,9.54-6.86,14.36-2.15,4.69-3.39,9.14-4.8,14.63s-4.24,19.41-4.76,26.58v.03ZM156.76,241.9c1.14-3.16,4.62-9.91,7.33-14.66,0,0,2.07-3.86,3.19-5.41s5.2-7.16,5.92-8.14c.71-.98,2.73-3.48,3.91-4.84,1.19-1.36,7.75-9.21,7.75-9.21,4.17-4.25,6.35-6.49,9.6-9.82,1.94-1.73,4.77-3.75,6.2-4.79s8.33-6.53,8.71-6.84,1.99-1.22,2.76-1.66c.76-.44,6.06-3.75,11.62-7.26l.75-.33c4.55-2.4,5.89-3.53,8.96-5.04,4.95-2.07,9.24-4.24,14.3-5.96.31-.09.6-.17.93-.26.33-.09.79-.33,1.03-.45s.98-.32,1.2-.39c.22-.06,1.11-.49,1.3-.58s1.14-.27,1.7-.4c2.41-1.45,5.08-2.09,7.82-2.5.31-.06.52-.1.94-.18.42-.08,2.61-.73,3.05-.86.43-.13.74-.14.94-.16.21-.02,2.21-.67,2.56-.79.35-.11.15-.04.95-.15.8-.11,2.25-.62,2.55-.72s1.25-.24,1.45-.27,2.76-.68,2.98-.74c.22-.06,1.05-.16,1.21-.19.16-.02,3.32-.71,3.78-.81.46-.1.64-.1.76-.1s4.72-.82,5.24-.91.59-.09.74-.11,7.59-1.1,11.39-1.54c1.93-.23,3.93-.44,5.89-.03,4.63-.25,9.25-.22,13.88.02,6.69.09,14.94,1.19,17.25,1.59s2.75.6,5.54.96c.41.05,0,0,1.24.14,1.38.6,2.51.74,4.25.87.25.04.5.07.75.11,1.33.68,2.34,1.15,3.02,1.03.48.08,1.04.27,1.52.35.95.21,1.32.4,2.4.6.31.06.67.23.99.28,1.13.36,1.45.36,2.44.71.31.06.92.19,1.24.25,1.17-.28,1.8.28,2.89.46.31.06.82.46,1.13.52,1.84.74,2.4.92,4.73,1.66.42.09.64.3,1.06.39,1.19.38.99.38,1.87.78.42.09.78.16,1.2.25.78.28,1.02.46,1.73.64.4.12.73.24,1.13.35.31.17.61.31.92.42.31.08.72.24,1.02.32.67.39.95.21,1.66.56.31.09.58.19.88.28.43.14.97.36,1.62.67.31.09.75.23,1.06.32,1.26.15,1.46.53,2.79,1.13.4.12,1.11.65,1.52.78.4.19.8.41,1.2.67.26.08.55.14.81.21.35.21.75.43,1.2.64.25.09.85.47,1.09.56,2.22,1.16,2.72,1.2,5.05,2.33.23.14.34.25.56.39,1.45.81,2.65,1.41,4.24,2.4.14,0,.56.28.56.28.33.21.66.41.99.6.76.41,1.4,1.11,2.15,1.52,2.15.89,3.07,1.76,5.58,3.49,1.78,1.21,3.8,2.57,5.58,3.78.73.63,1.63,1.33,2.72,2.08,1.67,1.13,3.25,2.3,4.69,3.74.43.28.79.5,1.09.67l.32.25c.23.17.53.38.88.64.46.36.74.81,1.2,1.16.46.42.75.46,1.24.95,15.83,14,29.49,29.41,38.1,48.95,3.22,7.31,6.3,15.25,7.74,22.56,1.44,7.3,1.95,10.7,3,20.79,1.05,10.1-2.11,33.67-5.66,42.91-3.55,9.24-12.76,25.56-15.7,29.65-2.95,4.1-3.62,3.24-5.2,8.88.53,5.37,1.57,10.16,2.13,15.12s5.97,30.99,7.41,38.49,5.56,22.33,8.32,33.5c.59,2.41,1.06,4.85,1.58,7.28,0,0,.33.71.43,1.31.09.6.51,2.88.65,3.67.14.79.22.99.31,1.33.1.34,1.15,6.24,1.26,6.83.11.59.21.84.27,1.17.06.33.55,3,.67,3.67.12.67.17.89.25,1.34.09.45.7,4.68.76,5.15s.22.97.32,1.33.56,4.11.63,4.68.27.96.36,1.82c.09.85.65,6.5.93,9.76.08.97.19,1.97-.43,2.85.75,1.82.68,3.78.61,5.64-.32,8.55-.58,17.12-1.8,25.61-2.29,15.9-8.46,30.13-18.19,42.91-9.01,11.83-20.69,19.8-34.51,24.87-4.09,1.5-8.32,2.32-12.69,2.22-2.72-.06-4.61-2.04-4.56-4.62,1.57-4.52,4.69-8.15,6.99-12.24,7.69-13.69,12.82-28.26,15.44-43.73,1.29-7.65,1.96-15.34,1.86-23.1-.07-5.79-3.88-9.59-9.56-9.53-5.37.06-8.88,3.84-8.96,9.54-.05,3.91-.19,7.82-.37,11.72-.05,1.04.11,2.18-.66,3.09-.02.28-.05.7-.08,1.27-.05.85-.73,5.17-.89,6.24s-.06.38-.07.76-.58,2.9-.82,3.99-.1.62-.15.93c-.36,5.03-2.21,9.65-4,14.26-3.16,8.12-7.14,15.85-11.61,23.33-3.06,5.13-6.28,16.21-6.31,16.35s-.44,1.54-.42,2.66c.1.27.91,6.98,4.2,9.68,3.49,4.46,8.22,6.48,13.46,7.75,5.34,1.25,10.54.04,15.72-.98,11.21-2.2,25-9.59,30.82-13.24,9.62-5.76,13.52-10.94,16.99-14.72,5.38-5.72,13.11-20.05,15.06-23.77s12.5,3.63,12.5,3.63c8.32,4.94,17.93,14.63,20.87,26.62,2.93,11.98,2.81,14,2.81,23.46s-1.7,17.17-4.52,28.93-2.26,8.63-3.77,12.83c-5.27,14.59-12.86,27.69-24.33,38.36-9.95,9.25-21.49,15.11-34.9,17.48-6.86,1.22-13.49,1.26-20.14-1.07-8.28-2.9-14.33-12.04-15.45-19.62-.39-2.9.02-5.15.44-7.21.43-2.06,1.89-5.62,3.72-8,2.65-3.46,3.11-5.7,1.56-7.88-1.72-2.44-5.76-3.72-9.03-2.68-4.15,1.33-6.93,4.39-9.34,7.85-1.95,3.92-4.02,7.73-4.64,12.23-.72,5.26-.2,10.25,1.66,15.17,1.06,2.79.93,3.04-1.83,3.83-12.57,3.61-25.41,5.75-38.37,7.38-16.28,2.05-32.61,3.05-49.01,2.81-14.3-.21-28.57-1.03-42.78-2.78-11.89-1.46-23.7-3.25-35.23-6.58-2.15-.62-4.27-1.38-6.43-1.98-1.14-.31-1.58-.82-1.04-1.95,4.09-8.56,2.71-16.97-.66-25.34-.28-.69-.53-1.39-.79-2.09-2.54-2.66-4.37-6.06-7.99-7.6-2.01-.86-4.02-1.51-6.24-1.22-4.81.63-7.06,5.39-4.38,9.41,2.11,3.17,4.57,8.9,4.86,10.2.14.63.26.84.34,1.55.07.71.25,1.46.14,3.05.07.59-.25,1.79-.64,3.29-.74,3.85-5.49,13.81-12.81,17.17-9.21,4.24-18.66,3.47-28.03.64-23.27-7.03-39.2-22.25-49.08-44.23-2.36-5.25-4.26-10.64-5.91-16.13-.14-.45-.09-.96-.14-1.45-.06-.3,0,0-.17-.89s-.42-.82-.49-1.04-4.34-17.74-5.1-26.88c-.18-2.21-.48-4.42-.72-6.62-.16-2.27-.19-4.33.08-6.81.26-2.48.4-3.53.44-3.81s.07-.55.1-.78c.03-.22.19-.94.16-1.5s0-1.21.16-1.93.59-1.53.62-2.25c.03-.71.02-.31.1-.82s.09-.7.12-.99c.03-.3-.01-.43.14-.94.16-.5.53-1.52.62-1.76.09-.24.23-1.39.38-1.73s.27-.6.57-1.29c.31-.69.3-.84.45-1.19.15-.36.36-1.01.53-1.32s12.08-19.06,23.18-23.62c1.3-.53,2.55-1.23,4.02-1.23,3.5-1.58,4.01-1.41,5.51,1.72,6.02,12.56,25.54,32.65,25.06,32.24-.47-.41.69.6,1.1.95.41.34.54.44.81.67,3.11,1.86,6.22,3.73,9.34,5.59,7.46,4.45,15.47,7.5,23.91,9.56,4.53,1.11,9.08,1.71,13.73,1.87,2.12.07,3.97-1.23,6.09-.89.58-.15,1.17-.34,1.77-.57s.5-.1,1.2-.47c.7-.36.61-.32.86-.41.24-.09.51-.21,1.17-.56.68-.31,8.62-7.4,9.6-13.49.77-4.77-.83-9.01-2.9-13.12-3.8-7.55-8.52-14.63-11.87-22.42-3.64-8.47-8.21-25.81-8.33-26.25s-.27-.89-.41-1.37-.76-4.83-.77-4.92c0-.09-.14-.9-.18-1.09-.05-.19-.44-4.93-.46-5.23s.09-.81.07-1.21c-.02-.4-.27-8.97-.41-13.46-.79-.46-.9-1.35-1.31-2.05-2.09-3.57-6.87-5.76-10.8-4.83-3.85.91-6.6,4-6.78,8.23-.44,10,.26,19.96,2.29,29.76,2.18,10.53,5.49,20.71,10.37,30.35,3.08,6.08,6.58,11.9,10.38,17.56.97,1.45,1.78,2.94.38,4.6-1.55,2.67-3.34,3.56-6.73,3.01-8.29-1.34-15.32-4.27-22.39-8.7-12.49-7.83-22.52-18.04-29.51-31.09-4.26-7.97-6.94-16.51-8.72-25.35-2.38-11.8-2.99-23.7-2.3-35.7.1-1.76-.85-3.59.36-5.27.08-1.94.21-4.93.25-5.82s.2-1.58.34-2.34.21-1.57.24-1.86c.03-.29.06-.77.08-.98.02-.21.21-3.32.24-3.84.03-.53.3-1.38.42-1.81s.5-4.06.56-4.69c.07-.63.32-1.48.41-1.81s.55-3.54.64-4.17.28-1.32.4-1.81.49-2.74.56-3.19c.08-.46.25-.97.36-1.32s2.08-9.21,2.18-9.66.28-1.01.37-1.32c.1-.31.49-2.16.6-2.68s.31-.88.5-1.29,7.27-29.8,7.22-29.64c0,.03,0,.03,0,0h0c.04-.13.29-.97.36-1.3.08-.4.53-2.6.65-3.2s.24-.97.34-1.3c.1-.33.55-2.83.61-3.19s.3-1.1.36-1.32c.07-.22.22-1.54.27-1.9.04-.36.13-.78.17-.98s.19-.58.28-.8c.09-.23.22-1.09.26-1.32.04-.22.14-.59.21-.89-.02-.34-.04-.88-.05-1.01,0-.13.54-2.17.62-2.47s.32-1.95.32-1.95c0,0,.65-2.69.76-3.53s.12-1,.18-1.47c.06-.48.66-3.37.8-4.03s.12-.93.15-1.47.66-3.28.82-4.54.07-.64.11-.97c.14-4.62,1.24-9.12,1.64-13.71.2-2.25,1.14-4.51.1-6.79-1.35-1.82-2.69-3.64-4.04-5.46-3.45-4.02-5.5-8.9-8.14-13.42-.49-.84-.85-1.76-1.28-2.64-.55-1.29-1.11-2.59-1.66-3.88-1.82-2.3-2.68-5.1-3.49-7.8-1.95-6.48-3.73-13.03-5.23-19.63-.87-3.83-1.66-7.75-1.29-11.76-.26-5.44-.03-14.46,0-16.33s.54-5.97.75-7.56.49-3.88.95-7.01,1.89-8.87,2.79-12.19,2.58-7.77,3.72-10.93h-.08ZM553.92,614.92c-3.98,9.85-9.66,18.69-16.51,26.79-.56.66-1.01,1.84-2.08,1.36-.9-.4-.45-1.53-.34-2.27,1.31-8.83.81-17.72,1.1-26.59l-.44-7.2-.53-2.3s-.08-1.6-.12-2.4c.44-1.31,1.48-1.04,2.46-.94.91-.13,1.51-.21,2.72-.38s2.71-.65,3.25-.82c.54-.16.43-.1.78-.12.36-.02,1.15-.33,1.78-.56.62-.23,2.29-.53,2.95-.66s.65-.12,1.06-.32,2.24-.54,2.95-.68.75-.15,1.03-.24,2.05-.65,2.72.64c.91,5.86-.62,11.36-2.77,16.68h0Z"/>
      </g>
      <g id="Oscar_Head_Shape" data-name="Oscar Head Shape">
        <path class="cls-8" d="M426.31,185.9c-1.26-.99-6.57-5.14-7.02-5.47s-1.41-1.06-2.63-1.9-3.66-2.51-5.33-3.62-4.57-3.02-5.69-3.8-6.07-3.44-8.69-4.86-6.65-3.27-9.33-4.52-5.51-2.22-7.95-3.1-12.68-4.35-15.55-5.32-4.93-1.2-4.93-1.2l-3.51-.98-6.99-1.69-4.99-.98-9.23-1.79c-2.01-.16-4.18-.6-7.72-.78-.65-.03-4.06-.24-7.08-.13-4.62-.24-9.58-.19-11.1-.23-1.34,0-3.89,0-4.41,0-3.9-.02-11.33.79-12.82,1.08s-4.34.8-5.4,1.04-3.07.63-3.42.69-.53.07-.76.1-3.55.75-3.78.81-.8.08-1.21.19-2.29.62-2.98.74-1.19.18-1.45.27-2.01.63-2.55.72-1.16.23-1.83.38-2.25.62-2.63.73-2.64.8-3.05.86-.63.12-.94.18c-4.31.57-7.38,2.43-7.82,2.5s-1.21.24-1.7.4l-2.31.84-2.15.83c-2.01.6-2.59.78-3.81,1.29-6.31,2.67-17.96,8.6-18.48,8.94s-1.41.97-1.73,1.1-10.78,6.74-11.62,7.26-2.44,1.7-3.36,2.29l-3.31,2.14c-2.22,1.45-4.33,3.7-4.8,4.06s-2.26,1.55-2.26,1.55c-1,.83-.81.72-2.25,1.99-3.46,3.06-6.68,6.19-9.87,9.53-.45.47-.77.88-1.41,1.55s-3.97,4.5-3.97,4.5c-.39.43-.41.46-.73.83s-1.49,1.78-1.78,2.14-.47.6-.69.88-.97,1.2-1.3,1.62-.5.55-.75.83l-1.95,2.57c-.32.42-5.93,8.45-6.32,9.08s-.49.87-.74,1.31l-1.46,2.55c-.23.41-1.94,3.5-2.84,5.24-2.85,5.5-6.29,12.92-7.04,14.95-.13.34-.77,2.03-.78,3.26-.28.88-.42,1.03-.48,1.28l-.98,2.17c-.62,1.55-1.97,5.72-2.21,7.48-.04,1.18.87,2.37,2.46,2.14,1.36-.2,3.4,1.03,3.82-1.51.89-5.45,3.04-10.47,5.24-15.47,4.7-10.69,10.82-20.45,18.35-29.43,7.31-8.71,15.53-16.42,24.39-23.4,8.05-6.35,16.58-12.04,25.79-16.74,11.55-5.89,23.34-11.01,35.84-14.55,13.33-3.77,26.91-5.76,40.71-6.29,12.7-.48,25.36.13,37.8,2.97,6.06,1.38,12.08,2.92,18.06,4.58,6.56,1.82,13.18,3.67,19.29,6.62,12.26,5.91,24.13,12.5,34.96,20.89,12.09,9.37,23.01,19.91,32.25,32.05,8.06,10.6,14.74,22.07,18.4,35.07,1.37,5.84,2.04,5.81,7.65,6.01,0-1.43-.38-2.35-.6-3.13-1.89-7.75-4.51-15.25-7.74-22.56-11.5-25.25-30.56-43.56-38.2-49.43-.91-.8-1.36-1.23-2.62-2.21h.02Z"/>
        <path class="cls-20" d="M334.89,294.66c4.88-6.6,2.19-19.84-6-23.75-.9-.29-2.31-1.18-2.13-2.18s2.44-.73,3.85-.64c12.32.78,17.9,3.56,25.63,6.87,7.55,3.36,14.96,7.3,20.21,13.8,3.26,4.03,6.77,5.07,11.56,4.77,8.39-.52,16.82.01,25.18.59,15.26,1.07,29.42,5.7,41.86,14.88,1.98,1.47,3.7,3.3,5.54,4.96.06,1.46-.42,2.75-1.17,3.99-3.82,6.31-7.31,12.8-11.66,18.79-4.46,6.15-9.44,11.77-15.28,16.65-2.23,1.86-4.09,4.12-6.43,5.88-5.8,4.37-11.48,8.88-17.83,12.51-4.96,2.84-9.83,5.84-15.12,8.02-6.5,2.68-12.98,5.39-19.68,7.59-8.35,2.74-16.81,5.07-25.39,6.9-6.13,1.31-12.37,2.01-18.61,2.67-6.82.73-13.63.51-20.43.36-8.45-.2-16.95-.46-25.3-1.62-8.27-1.14-16.41-3.26-24.47-5.58-9.54-2.75-18.89-6.13-27.81-10.4-9.54-4.57-18.76-9.79-27.12-16.45-4.41-3.52-8.99-6.86-13.02-10.78-4.52-4.38-8.69-9.12-12.52-14.16-4.59-6.02-8.37-12.53-12.04-19.12-.8-1.44-1.44-2.96-2.15-4.45.06-.61.12-1.22.18-1.82,2.47-.91,4.08-3.02,6.17-4.47,9.45-6.57,19.83-10.48,31.12-12.61,11.6-2.19,23.25-2.35,34.95-2.44,1.99-.01,3.97-.32,5.96-.37,1.39-.04,2.1-.98,2.79-1.88,4.49-5.84,10.81-9.28,16.99-12.81,5.55-3.17,11.5-5.46,17.67-7.28,5.83-1.71,7.4-1.75,13.3-3.05,3.73-.67,4.63-.03,4.91.46.63,1.08-6.36,3.69-9.96,11.59-1.39,2.61-1.27,4.67-.09,9.54,2.54,6.31,10.4,11.81,13.6,12.47,2.49.52,4.47-.52,2.34,4.75-1.22,4.47-5.75,8.65-5.75,8.65-5.36,3.71-8.33,4.8-15.67-1.98-1.78-1.64-3.39-3.99-3.39-3.99l-.02-.02c-2.02-2.34-4.45-2.23-6.52.3l-.05.05c-1.13,2.04-1,2.88-.87,5.63s2.53,7.46,5.05,9.2,9.73,4.13,12.31,4.19c9.55.09,12.77-2.22,14.52-3.21s4.24-3.6,4.24-3.6c1.29-1.34,2.03-2.3,2.51-3.81.08-.14.46-1.58,1.57-1.63,1.19,0,1.79.71,1.88,1.36s1.17,3.65,4.48,6.54c2.38,2.07,9.9,4.57,14.4,4.31s6.58-.42,8.4-1.06,5.9-3.44,9.11-7.62c1.6-2.08,1.87-3.61,1.84-6.28-.06-4.2-1.2-4.16-1.2-4.16-1.46-1.13-3.03-.99-5.36.64-1.26.87-2.03,2.42-2.89,3.62-2.45,3.39-7.41,5.24-11.22,4.5s-7.3-2.77-8.73-4.3-2.75-5.43-3.48-7.28c-.92-2.33.16-3.74,2.47-4.45s9.64-2.89,12.78-7.77h-.01ZM203.6,333.3c1.46.14,2.89-.68,4.32-1.56,3.8-2.37,7.48-4.91,11.39-7.11,4.98-2.8,9.92-5.7,14.72-8.79,3.34-2.15,4.19-5.41,2.69-8.39-1.79-3.56-5.84-5.5-9.33-4.44-2.88.87-5.44,2.38-8,3.94-6.36,3.89-12.81,7.63-19.19,11.49-3.12,1.89-5.1,6.1-4.3,8.86,1.04,3.57,3.99,5.96,7.69,6.01h0ZM395.79,303.16c-3.36.03-5.95,1.9-7.3,5.06-1.32,3.08.49,5.07,2.32,7.03,1.78,1.91,4.17,2.97,6.39,4.28,7.43,4.38,14.81,8.84,22.28,13.15,2.86,1.65,5.93.67,8.34-2.28,2.47-3.02,2.65-5.91.47-8.59-1.49-1.82-3.39-3.17-5.39-4.37-6.48-3.87-12.96-7.75-19.45-11.61-2.37-1.41-4.78-2.71-7.66-2.67Z"/>
        <path class="cls-18" d="M404.32,397.68c.88-.57-.1-.02,1.77-.93s4.42-2.21,5.63-2.76,1.66-.74,2.41-1.14.37-.43,1.1-.84,4.26-2.34,4.86-2.75.79-.5,1.01-.66.31-.23.5-.3,1.76-1.29,2.57-1.87,6.03-4.23,6.46-4.57.84-.75,1.04-.92,11.85-10.39,16.95-16.43c.69-.82,1.6-1.72,2.63-2.19,1.11,4.98,1.61,11.23,2.31,16.27-3.35,1.31-4.3,1.76-6.72,3.46-7.05,5.9-14.27,11.52-22.22,16.2-6.69,3.95-13.42,7.8-20.55,10.92-6.31,4.47-4.37,1.44-4.32-1.78.03-1.9.36-4.15.97-6.55.8-1.27,1.26-1.99,2.42-2.52.29-.23.31-.09,1.19-.65h-.01Z"/>
        <path class="cls-18" d="M225.27,409.37c0,.17,0,1.34.02,2-2.64-.49-4.88-1.96-7.25-3.08-6.6-3.1-12.53-7.4-18.92-10.88-7.4-4.03-14.02-9.1-19.76-15.27-2.07-2.23-3.95-4.64-6-7.07-1.47,1.73-.16,4.29-1.81,5.88.14-4.62,1.24-9.12,1.64-13.71.2-2.25,1.14-4.51.1-6.79,1.65.44,1.49,2.21,2.36,3.26,5.83,6.95,12.15,13.36,19.52,18.7,8.27,5.99,17.1,11.04,26.25,15.52,1.84.9,3.19,1.82,3.11,4.18-.07,2.06.42,5.7.42,6.2s.32.88.32,1.05h0Z"/>
        <path class="cls-5" d="M159.85,338.95c-.64-1.49-1.11-2.59-1.66-3.88.09-1.83-.89-3.36-1.64-4.84-1.43-2.83-1.42-5.3.72-7.71,2.36-2.66,3.92-6.07,7.32-7.75.71,1.48,1.35,3.01,2.15,4.45,3.66,6.59,7.45,13.1,12.04,19.12,3.83,5.03,8.01,9.77,12.52,14.16,4.04,3.92,8.61,7.26,13.02,10.78,8.36,6.66,17.58,11.88,27.12,16.45,8.92,4.27,18.27,7.65,27.81,10.4,8.05,2.32,16.2,4.43,24.47,5.58,8.35,1.15,16.85,1.42,25.3,1.62,6.8.16,13.61.37,20.43-.36,6.25-.66,12.48-1.37,18.61-2.67,8.59-1.83,17.04-4.16,25.39-6.9,6.69-2.2,13.18-4.91,19.68-7.59,5.28-2.18,10.16-5.18,15.12-8.02,6.35-3.63,12.03-8.14,17.83-12.51,2.34-1.77,4.2-4.02,6.43-5.88,5.84-4.88,10.82-10.49,15.28-16.65,4.34-5.99,7.84-12.48,11.66-18.79.75-1.24,1.24-2.53,1.17-3.99.2-.03.4-.06.6-.1,2.52,3.24,5.56,6.03,7.87,9.47.97,1.44,1.27,2.51.63,4.05-1.1,2.66-1.48,4.74-2.05,7.61-.87,1.81-1.17,3.11-2.61,5.43s-1.13,2.02-2.56,4.25c-1.66,3.3-2.07,3.42-2.78,4.13-1.92,3.57-1.92,2.66-2.56,4.17s-2.8,7.07-5.2,8.88-2.64,1.85-3.33,2.67c-5.1,6.04-16.43,15.93-16.95,16.43s-.62.63-1.04.92-5.56,3.91-6.46,4.57-2.19,1.61-2.57,1.86-.41.24-.41.24c0,0-.42.33-1.1.72-.68.67-4.34,2.56-4.86,2.75s-.23.48-1.1.84c-.71.5-1.01.65-2.41,1.14-1.17.56-4.87,2.44-5.63,2.76-1.12.72-1.38.91-1.7,1.12s-.97.22-1.26.46-2.06,1.55-2.17,2.99c-1.44,1.81-.86,4.05-1.23,6.08-.23,1.28-.06,2.64-.06,3.96-.41.05-.85.03-1.23.17-5.26,1.89-10.42,4.1-15.78,5.64-5.76,1.66-11.43,3.64-17.33,4.93-5.78,1.26-11.57,2.42-17.39,3.46-2.74.49-3.84.27-8.03.6-1.16-.15-2.32-.2-3.39-.38s-2.39-.32-3.06-.52-17.51-1.68-26.99-1.46c-4.1.09-8.05.95-12.05,1.55-1.39.21-3.81.24-4.18.52s-.47.46-1,.5-2.63.56-4,.51c-2.11-.81-4.41-.72-6.54-1.22-7.21-1.72-14.64-2.23-21.8-4.26-6.65-1.89-13.45-3.25-19.92-5.8-3.65-1.44-7.46-2.49-11.2-3.71-.17-.17-.34-.34-.51-.51,0-.67-.02-2-.02-2,0,0-.34-.5-.32-1.05-.05-.43-.49-4.14-.42-6.2.08-2.36-1.27-3.28-3.11-4.18-9.15-4.49-17.98-9.54-26.25-15.52-7.37-5.34-13.69-11.74-19.52-18.7-.88-1.05-.71-2.82-2.36-3.26-1.35-1.82-1.21-1.52-4.04-5.46s-5.32-8.9-9.41-16.05l.02-.02Z"/>
        <path class="cls-14" d="M477.61,279.49c0-.62-.1-.79-.19-1.45s-.16-1.38-.23-2.06-.14-2.14-.18-2.95-.29-2.22-.42-3.02,0,0-.13-.96-.18-1.36-.28-2.06,0,0-.08-.97-.5-1.83-.62-2.78c-.02-.13-.06-.17-.06-.17l-.75-.03c-5.21-.25-5.28-.23-6.85-5.81-3.66-12.99-10.33-24.47-18.4-35.07-9.23-12.14-20.15-22.69-32.25-32.05-10.83-8.39-22.71-14.98-34.96-20.89-6.11-2.95-12.73-4.8-19.29-6.62-5.98-1.66-12.01-3.2-18.06-4.58-12.45-2.83-25.1-3.45-37.8-2.97-13.8.52-27.38,2.51-40.71,6.29-12.5,3.54-24.29,8.65-35.84,14.55-9.21,4.7-17.74,10.39-25.79,16.74-8.86,6.99-17.09,14.69-24.39,23.4-7.53,8.98-13.65,18.74-18.35,29.43-2.2,5-4.34,10.02-5.24,15.47-.42,2.54-2.46,1.31-3.82,1.51-1.59.23-1.66-.92-1.62-2.1.09-2.57,1.51-4.9,1.37-7.52-1.79,3.87-2.99,11.61-3.09,12.35-.1.74-.32,2.33-.42,3.91-.11,1.58-.15,2.02-.22,2.94s-.54,5.51-.75,7.56c-.21,2.04-.28,10.89,0,16.33.35.43.71.87,1.17,1.44,1.17-1.67,2.23-3.51,4.48-3.79,1.8-.22,3.39.34,4.89,1.35,2.98,2.02,3.08,4.76,2.27,8.4-.21.96-.35,1.59.13,2.46,1.31,2.35,1.66,5.19,3.65,7.2,2.47-.91,4.08-3.02,6.17-4.47,9.45-6.57,19.83-10.48,31.12-12.61,11.6-2.19,23.25-2.35,34.95-2.44,1.99-.01,3.97-.32,5.96-.37,1.39-.04,2.1-.98,2.79-1.88,4.49-5.84,10.81-9.28,16.99-12.81,5.55-3.17,11.5-5.46,17.67-7.28,5.83-1.71,11.81-.51,17.72-1.82.33-.07.75.24,1.13.37,9.3-3.92,18.31-3.84,27.46,0,10.37-.16,20.23,1.16,29.54,5.31,7.55,3.36,14.96,7.3,20.21,13.8,3.26,4.03,6.77,5.07,11.56,4.77,8.39-.52,16.82.01,25.18.59,15.26,1.07,29.42,5.7,41.86,14.88,1.98,1.47,3.7,3.3,5.54,4.96.2-.03.4-.06.6-.1.43-1.41.64-2.94,1.34-4.19,1.68-3.03,1.94-6.15,1.66-9.54-.25-3,1.71-5.54,4.24-6.32,2.59-.8,5.17.26,6.98,2.86.18.26.34.59,1.23.33,0-2.77-.11-5.72.03-8.65.14-2.95.93-8.24.93-8.86h-.02Z"/>
        <path class="cls-18" d="M466.63,335.45c.57-2.87,1.98-5.42,3.08-8.08.64-1.54.34-2.6-.63-4.05-2.31-3.44-5.35-6.23-7.87-9.47.43-1.41.64-2.94,1.34-4.2,1.68-3.03,1.94-6.15,1.66-9.54-.25-3,1.71-5.54,4.24-6.32,2.59-.8,5.17.26,6.98,2.86.18.26.34.59,1.23.33,0-2.77-.11-5.72.03-8.65.14-2.95-.53-6.32.45-9.23.43.37.93,1.01.96,1.51.83,14.66-.67,29.39-5.75,43.28-1.17,3.19-2.36,6.37-3.7,9.48-.35.81-1.04,1.65-2.01,2.06v.02Z"/>
        <path class="cls-18" d="M164.57,314.77c-3.4,1.67-4.97,5.09-7.32,7.75-2.13,2.4-2.15,4.88-.72,7.71.75,1.49,1.74,3.02,1.64,4.84-1.82-2.3-2.68-5.1-3.49-7.8-1.95-6.48-3.73-13.03-5.23-19.63-.87-3.83-1.66-7.75-1.29-11.76.35.43.71.87,1.17,1.44,1.17-1.67,2.23-3.51,4.48-3.79,1.8-.22,3.39.34,4.89,1.35,2.98,2.02,3.08,4.76,2.27,8.4-.21.96-.35,1.59.13,2.46,1.31,2.35,1.66,5.19,3.65,7.2-.06.61-.12,1.22-.18,1.82h0Z"/>
      </g>
      <path id="Oscar_Right_Whisker" data-name="Oscar Right Whisker" class="cls-1" d="M203.6,333.3c-3.71-.04-6.65-2.44-7.69-6.01-.8-2.75,1.17-6.97,4.3-8.86,6.38-3.86,12.83-7.6,19.19-11.49,2.56-1.56,5.11-3.07,8-3.94,3.49-1.05,7.54.89,9.33,4.44,1.5,2.98.64,6.24-2.69,8.39-4.8,3.1-9.74,5.99-14.72,8.79-3.91,2.2-7.59,4.74-11.39,7.11-1.43.89-2.86,1.71-4.32,1.56h0Z"/>
      <path id="Oscar_Left_Whisker" data-name="Oscar Left Whisker" class="cls-1" d="M395.79,303.16c2.88-.05,5.29,1.26,7.65,2.67,6.49,3.86,12.97,7.74,19.45,11.61,2.01,1.2,3.91,2.54,5.39,4.37,2.18,2.68,2,5.57-.47,8.59-2.41,2.95-5.49,3.93-8.34,2.28-7.47-4.31-14.85-8.77-22.28-13.15-2.21-1.31-4.6-2.36-6.39-4.28-1.83-1.96-3.64-3.95-2.32-7.03,1.35-3.16,3.94-5.03,7.3-5.06h.01Z"/>
      <g id="Oscar_Nose_and_Mouth" data-name="Oscar Nose and Mouth">
        <path class="cls-4" d="M313.09,318.31c-.09-.33-.29-.53-.69-.53-.48,0-.56.34-.72.59s-2.32,3.68-3,4.49c-1.85,2.01-2.82,2.35-3.92,3.03s-3.12,1.62-3.12,1.62c-3.82,1.86-7.66,2.59-12.04,2.12s-7.7-2.17-7.7-2.17c-8.29-3.42-11.5-11.64-8.8-17.62.41-.89,2.86-4.31,6.57-.36l1.03,1.01c3.65,4.27,8.99,10.22,15.63,6.23,1.76-1.13,2.42-1.36,3.77-2.99s4.32-4.6,4.74-8.78c.14-1.37.26-1.77-.98-1.93-4.17-.61-7.41-2.65-10.5-5.37,0,0-4.75-4.07-6.09-10.59-.07-1.4-.16-4.06.47-6.12.93-3.03,2.23-5.56,4.53-7.93,0,0,3.92-4.02,10.7-6.11,8.59-3.13,18.12-.47,23.07,1.73,3.09,1.45,5.13,3.13,5.13,3.13,5.03,4.6,7.21,9.54,6.34,17.05-.17,1.84-2,7.06-5.71,9.77-1.92,1.29-6.63,3.98-10.45,4.91-.81.2-1.19.96-1.04,1.77.56,2.92,2.04,6.26,3.78,8.24,1.53,1.58,2.38,2.3,3.65,2.98,5.53,2.73,12.1,1.42,15.93-3.99,2.98-4.21,5.27-5.82,8.6-2.67,0,0,2.08,2.52,1.41,6.68-1.5,5.53-7.64,10.03-8.77,10.85s-4.32,1.99-7.08,2.27c-3.22.15-5.65.25-9.37-.56-4.29-.94-6.4-1.38-9.86-3.84-.46-.36-1.72-1.06-2.64-2.15-.64-.86-1.65-2.17-2.88-4.77h.01ZM311.23,282.07c2.87.1,5.2.13,7.36-.94,2.8-1.39,3.33-4.56,1.16-6.81-3.52-3.66-12.39-3.54-15.76.22-1.98,2.22-1.43,5.07,1.23,6.37,2.08,1.02,4.28,1.23,6.01,1.16Z"/>
        <path class="cls-8" d="M311.23,282.07c-1.73.07-3.94-.14-6.01-1.16-2.65-1.31-3.21-4.16-1.23-6.37,3.36-3.75,12.24-3.88,15.76-.22,2.17,2.25,1.64,5.42-1.16,6.81-2.16,1.07-4.49,1.04-7.36.94Z"/>
      </g>
      <g id="Oscar_Eyes" data-name="Oscar Eyes">
        <g id="Oscar_Right_Eye" data-name="Oscar Right Eye">
          <path class="cls-4" d="M386.78,274.76c-9.3-.03-16.86-8.39-16.85-18.63.01-10.3,8.28-18.44,18.67-18.36,9.55.07,17.59,8.68,17.54,18.78-.05,10.46-8.32,18.25-19.36,18.22h0Z"/>
          <circle class="cls-20" cx="396.37" cy="248.6" r="3.8"/>
        </g>
        <g id="Oscar_Left_Eye" data-name="Oscar Left Eye">
          <path class="cls-4" d="M252.79,256.29c.13,10.6-7.55,18.36-18.3,18.47-9.56.1-18.12-8.39-18.12-18.18,0-10.75,7.64-18.5,17.62-18.9,10.64-.43,18.67,7.76,18.8,18.62h0Z"/>
          <circle class="cls-20" cx="242.53" cy="249.7" r="4.26"/>
        </g>
      </g>
    </g>
    <g id="Nosebit">
      <path class="cls-12" d="M351.11,242.5s-4.63-6.73-36.19-9.58c-28.69-.53-36.19,9.58-36.19,9.58v-19.89s11.61-7.37,36.65-6.04c25.93,1.37,35.73,6.04,35.73,6.04v19.89Z"/>
      <path class="cls-13" d="M314.92,226.73c-28.69-.43-36.19,7.72-36.19,7.72v6.65s7.5-8.15,36.19-7.72c31.56,2.29,36.19,7.72,36.19,7.72v-6.65s-4.63-5.43-36.19-7.72Z"/>
    </g>
    <g id="Right_lens" data-name="Right lens">
      <circle class="cls-21" cx="405.15" cy="250.77" r="58.13"/>
      <path class="cls-12" d="M405.57,317.56c-36.82,0-66.78-29.96-66.78-66.78,0-21.52,7.2-39.16,20.83-51.01,11.7-10.17,28.02-15.78,45.95-15.78,36.82,0,66.78,29.96,66.78,66.78s-29.96,66.78-66.78,66.78h0ZM405.57,198.83c-14.35,0-27.21,4.31-36.21,12.14-10.44,9.07-15.73,22.47-15.73,39.8,0,28.64,23.3,51.94,51.94,51.94s51.94-23.3,51.94-51.94-23.3-51.94-51.94-51.94h0Z"/>
      <path class="cls-9" d="M452.86,272.8c-8.2,17.91-26.29,30.39-47.24,30.39-28.64,0-51.94-23.3-51.94-51.94,0-6.86.84-13.09,2.49-18.69-2.72-6.93-4.21-14.37-4.21-22.12,0-.68.03-1.35.05-2.03-8.64,11.22-13.17,25.81-13.17,42.84,0,36.82,29.96,66.78,66.78,66.78,32.61,0,59.82-23.5,65.62-54.45-5.57,3.81-11.75,6.92-18.38,9.21h0Z"/>
      <g id="Right_Glare" data-name="Right Glare">
        <path class="cls-19" d="M426.41,203.44l-60.88,80.4c5.7,7.44,13.95,12.44,22.74,15.9l59.72-78.87c-5.47-7.63-12.92-13.7-21.58-17.43Z"/>
        <path class="cls-19" d="M360.28,220.84c.41-1.09,7.12-9.51,13.74-13.58,8.34-5.86,18.29-7.75,18.29-7.75,4.73-.77,6.09.2,7.55,1.9l1.01,1.87c-.04,2.64-.87,4.18-2.49,5.17,0,0-8.91,2.54-13.2,3.88-6.78,2.12-15.11,12.14-15.11,12.14-1.7,1.46-2.82,3.75-6.56,1.81s-3.65-4.34-3.24-5.43h0Z"/>
        <path class="cls-19" d="M362.56,237.58c-1.1,3.27-1.42,6.11-4.93,4.94-4.15-1.39-3.73-4.2-2.63-7.47s1.98-5.93,6.6-4.38c3.82,1.28,2.06,3.64.96,6.91Z"/>
      </g>
    </g>
    <g id="Left_Lens" data-name="Left Lens">
      <path class="cls-21" d="M220.68,198.83c-28.64,0-51.94,23.3-51.94,51.94s23.3,51.94,51.94,51.94,51.94-23.3,51.94-51.94c0-34.46-17.48-51.94-51.94-51.94h0Z"/>
      <path class="cls-12" d="M154.67,241.42c2.29,3.91,5.01,7.59,8.08,10.99-.02-.55-.04-1.09-.04-1.65,0-32.11,26.03-58.13,58.13-58.13s58.13,26.03,58.13,58.13c0,.28-.02.56-.02.84,3.06-3.5,5.74-7.27,7.98-11.27.1.95.19,1.9.26,2.87-1.31-18.58-7.55-33.13-18.62-43.3-11.49-10.56-27.6-15.91-47.89-15.91-36.82,0-66.78,29.96-66.78,66.78,0,2.33.12,4.64.36,6.91-.2-2.11-.32-4.25-.32-6.42,0-3.34.25-6.62.73-9.84h0Z"/>
      <path class="cls-12" d="M220.84,192.64c-32.11,0-58.13,26.03-58.13,58.13,0,.55.03,1.1.04,1.65,2.04,2.26,4.24,4.41,6.59,6.42,3.68,25.06,25.32,44.36,51.38,44.36s47.95-19.53,51.44-44.81c2.43-2.12,4.7-4.39,6.79-6.79,0-.28.02-.56.02-.84,0-32.11-26.03-58.13-58.13-58.13h0ZM220.68,302.71c-28.64,0-51.94-23.3-51.94-51.94s23.3-51.94,51.94-51.94c34.46,0,51.94,17.48,51.94,51.94,0,28.64-23.3,51.94-51.94,51.94Z"/>
      <path class="cls-9" d="M287.2,243.21c.17,2.45.27,4.97.27,7.57,0,36.82-29.96,66.78-66.78,66.78-34.49,0-62.96-26.28-66.43-59.88,3.24,33.82,31.81,60.36,66.47,60.36,36.82,0,66.78-29.96,66.78-66.78,0-2.77-.11-5.45-.31-8.05h0Z"/>
      <path class="cls-9" d="M220.68,317.56c36.82,0,66.78-29.96,66.78-66.78,0-2.59-.1-5.11-.27-7.57-.07-.97-.16-1.92-.26-2.87-2.24,4.01-4.93,7.78-7.98,11.27-.45,31.72-26.29,57.3-58.11,57.3s-57.22-25.14-58.09-56.49c-3.07-3.41-5.79-7.08-8.08-10.99-.48,3.21-.73,6.49-.73,9.84,0,2.17.11,4.31.32,6.42,3.47,33.59,31.93,59.88,66.43,59.88h-.01Z"/>
      <path class="cls-9" d="M272.16,258.39c-3.49,25.27-25.22,44.81-51.44,44.81s-47.7-19.3-51.38-44.36c-2.35-2.01-4.55-4.15-6.59-6.42.87,31.34,26.54,56.49,58.09,56.49s57.66-25.58,58.11-57.3c-2.09,2.4-4.36,4.67-6.79,6.79h0Z"/>
      <g id="Left_Glare" data-name="Left Glare">
        <path class="cls-19" d="M242.53,201.84l-62.58,81.13c5.86,7.66,14.05,13.21,23.09,16.78l61.47-81.77c-7.13-10.53-14.8-13.58-21.98-16.14h0Z"/>
        <path class="cls-19" d="M177.95,221.28c.41-1.09,7.12-9.51,13.74-13.58,8.34-5.86,18.29-7.75,18.29-7.75,4.73-.77,6.09.2,7.55,1.9l1.01,1.87c-.04,2.64-.87,4.18-2.49,5.17,0,0-8.91,2.54-13.2,3.88-6.78,2.12-15.11,12.14-15.11,12.14-1.7,1.46-2.82,3.75-6.56,1.81s-3.65-4.34-3.24-5.43h0Z"/>
        <path class="cls-19" d="M178.58,237.58c-1.1,3.27-1.42,6.11-4.93,4.94-4.15-1.39-3.73-4.2-2.63-7.47s1.98-5.93,6.6-4.38c3.82,1.28,2.06,3.64.96,6.91h0Z"/>
      </g>
    </g>
    <g id="Medal">
      <g id="Medal_Ribbon" data-name="Medal Ribbon">
        <polygon class="cls-25" points="285.1 482.04 237.63 527.18 143.78 418.19 153.3 360.46 285.1 482.04"/>
        <polygon class="cls-24" points="341.08 482.04 388.54 527.18 482.4 418.19 472.88 360.46 341.08 482.04"/>
      </g>
      <g id="The_Medal_Itself" data-name="The Medal Itself">
        <path class="cls-12" d="M311.94,438.3c-49.09,0-88.88,39.79-88.88,88.88s39.79,88.88,88.88,88.88,88.88-39.79,88.88-88.88-39.79-88.88-88.88-88.88ZM311.94,582.89c-30.77,0-55.71-24.94-55.71-55.71s24.94-55.71,55.71-55.71,55.71,24.94,55.71,55.71-24.94,55.71-55.71,55.71Z"/>
        <path class="cls-9" d="M365.08,542.93c-6.87,22.98-28.16,39.73-53.37,39.73-17.67,0-33.41-8.24-43.61-21.07-17.11-4.83-32.44-13.69-44.8-25.43,4.6,44.76,42.43,79.68,88.41,79.68,49.09,0,88.88-39.79,88.88-88.88,0-8.81-1.29-17.31-3.67-25.35-6.84,16.27-17.89,30.46-31.84,41.33h0Z"/>
        <circle class="cls-16" cx="311.94" cy="527.18" r="55.71"/>
        <path class="cls-6" d="M309.67,557.66c-23.45,0-43.72-13.6-53.36-33.34-.05.95-.07,1.9-.07,2.86,0,30.77,24.94,55.71,55.71,55.71s55.71-24.94,55.71-55.71c0-3.95-.42-7.81-1.2-11.53-7.42,24.32-30.03,42.01-56.78,42.01h0Z"/>
        <path class="cls-22" d="M260.1,530.28c0-30.34,24.6-54.94,54.94-54.94,17.85,0,33.7,8.52,43.74,21.7-9.92-15.38-27.18-25.57-46.84-25.57-30.77,0-55.71,24.94-55.71,55.71,0,19.66,10.19,36.92,25.57,46.84-13.18-10.04-21.7-25.89-21.7-43.74h0Z"/>
        <polygon class="cls-21" points="330.89 550.27 313.02 543.05 295.31 550.68 296.65 531.44 283.93 516.96 302.63 512.3 312.47 495.72 322.69 512.07 341.5 516.3 329.11 531.07 330.89 550.27"/>
        <polygon class="cls-2" points="343.81 516.84 339.05 515.8 327.52 529.16 329.25 547.23 311.94 540.44 295.23 547.43 294.89 552.24 313.64 544.38 332.57 551.82 330.68 532.05 343.81 516.84"/>
      </g>
    </g>
  </g>
  <g id="Hat">
    <g id="Michael_Hat" data-name="Michael Hat">
      <g>
        <path class="cls-11" d="M177.14,102.93c-.12-2.29-.96-3.52,0-5.85l134.88-44.79c.38-.1.77-.1,1.15,0l133.91,44.24c1.92,2.04,1.94,4.44-.38,5.08l-134.11,35.05-135.45-33.73h0Z"/>
        <path class="cls-4" d="M311.96,140.28l-134.07-37.16c-2.31-.64-2.28-3.94.05-4.53l134.07-42.51c.38-.1.77-.1,1.15,0l134.07,42.51c2.33.59,2.36,3.88.05,4.53l-134.07,37.16c-.41.11-.84.11-1.25,0Z"/>
        <path class="cls-23" d="M447.22,96.53l-133.91-44.24c-.38-.1-.77-.1-1.15,0l-2.54.84v82.75l3.12.78,134.11-35.05c2.31-.64,2.3-3.04.38-5.08h0Z"/>
        <path class="cls-17" d="M446.3,98.85l-134.07-42.51c-.38-.1-.77-.1-1.15,0l-1.47.47v83.34l1.42.39c.41.11.84.11,1.25,0l134.07-37.16c2.31-.64,2.28-3.94-.05-4.53h0Z"/>
        <path class="cls-7" d="M390.21,164.52c0,1.94-1.57,3.36-3.18,2.87-4.43-1.36-12.82-3.68-20.64-4.51-10.91-1.17-25.93-3.52-52.47,7.08-1.94.77-4.04.81-5.99.11-26.16-9.5-37-11.5-50.53-10.57-9.32.64-17.58,4.36-22.08,6.79-1.68.91-3.6-.52-3.6-2.69v-58.39c0-1.44.89-2.68,2.11-2.92,5.3-1.06,19.37-3.81,27.54-4.8,10.22-1.24,34.81-3.09,49.59-3.09s34.83,2.61,50.85,4.78c11.92,1.62,21.82,2.78,26.11,3.27,1.3.15,2.28,1.42,2.28,2.95v59.12h0Z"/>
        <path class="cls-23" d="M310.64,98.57c-13.42,0-34.9,1.35-46.4,2.43v54.51c10.78.2,21.92,3.55,43.36,10.46,1.76.6,3.11,1.44,6.08.08.71-.32,1.29-.51,2.08-.8v-66.6c-1.76-.05-3.48-.09-5.12-.09h0Z"/>
        <path class="cls-4" d="M310.79,174.35c-1.29,0-2.58-.22-3.81-.67-24.8-9-35.87-11.34-49.38-10.41-8.94.62-16.94,4.3-20.91,6.44-1.8.97-3.87.8-5.54-.45s-2.66-3.37-2.66-5.69v-58.39c0-3.3,2.02-6.1,4.8-6.66,5.61-1.12,19.55-3.84,27.75-4.83,10.46-1.27,35.11-3.11,49.93-3.11s34.1,2.48,51.22,4.81c12.13,1.65,22.26,2.83,26.05,3.27,2.97.34,5.21,3.23,5.21,6.73v59.12c0,2.11-.82,4.06-2.25,5.35-1.43,1.29-3.25,1.73-4.99,1.19-4.24-1.3-12.48-3.59-20.11-4.41l-1.64-.18c-10.51-1.16-24.9-2.74-49.49,7.08-1.35.54-2.77.81-4.19.81h.01ZM263,155.49c12.06,0,23.73,2.89,45.9,10.94,1.28.47,2.7.44,3.98-.07,25.91-10.35,41.1-8.67,52.19-7.45l1.62.18c7.58.81,15.64,2.97,20.27,4.35v-57.3c-4.94-.57-14.3-1.68-25.52-3.21-16.94-2.3-36.2-4.76-50.48-4.76s-38.94,1.82-49.26,3.07c-7.74.94-20.86,3.47-26.74,4.64v56.4c4.65-2.4,12.95-5.96,22.24-6.6,1.97-.14,3.88-.21,5.78-.21l.02.02Z"/>
        <path class="cls-9" d="M257.41,147.58c13.53-.82,24.37.95,50.53,9.35,1.95.63,4.05.59,5.99-.09,26.54-9.38,41.56-7.3,52.47-6.27,7.78.74,16.12,2.77,20.57,3.98v-14.72c-4.45-1.2-12.79-3.24-20.57-3.98-11.02-1.04-26.22-3.15-53.25,6.55-1.43.51-2.98.53-4.42.07-26.73-8.62-37.65-10.44-51.32-9.61-9.57.58-18.02,4.04-22.43,6.17v14.69c.12-.04.24-.08.35-.14,4.5-2.15,12.76-5.44,22.08-6h0Z"/>
        <path class="cls-12" d="M313.15,142.39c-1.43.51-2.98.53-4.42.07-22.19-7.16-33.48-9.62-44.49-9.78v14.72c10.88.16,22.03,2.57,43.7,9.53,1.95.63,4.05.59,5.99-.09,1.14-.4,2.25-.78,3.35-1.14v-14.72c-1.35.44-2.72.91-4.13,1.42h0Z"/>
      </g>
      <g id="Tissle_thingy" data-name="Tissle thingy">
        <g>
          <path class="cls-9" d="M241.24,75.79l-10.42,3.46s-9.29,8.72-12.45,24.72,2.37,33.69,1.32,41.98-2.31,13.74-2.31,13.74h-5.34s2.69-12.34,2.2-17.2c-1.62-16.24-4.38-18.85-1.98-39.88,5.17-19.79,8.54-22.78,10.31-25.91,1.55-2.75,5.13-5.01,7.2-5.01,11.86,0,11.47,4.11,11.47,4.11h0Z"/>
          <path class="cls-12" d="M229.88,71.69c-2.07,0-5.65,2.26-7.2,5.01-1.57,2.78-4.4,5.45-8.63,19.85,1.08-.19,2.15-.2,3.21,0,1.02.2,1.97.6,2.87,1.15,3.94-11.99,10.8-18.45,10.8-18.45l10.42-3.46s.39-4.11-11.47-4.11h0Z"/>
          <path class="cls-10" d="M218.17,160.69h-7.38l.26-1.21c.03-.12,2.65-12.24,2.19-16.89-.47-4.67-1.03-8.24-1.53-11.4-1.25-7.91-2.16-13.62-.44-28.7l.03-.14c4.4-16.84,7.58-21.74,9.48-24.67.34-.53.65-1,.92-1.47,1.63-2.89,5.48-5.52,8.07-5.52h.02c5.88,0,9.75.98,11.52,2.93.99,1.09.95,2.09.93,2.28l-.06.65-10.82,3.59c-1.19,1.2-9.17,9.67-12.01,24.03-1.9,9.62-.59,20.02.47,28.37.69,5.47,1.29,10.19.86,13.53-1.05,8.24-2.31,13.78-2.32,13.84l-.18.78h0ZM213.26,158.69h3.3c.38-1.78,1.31-6.51,2.12-12.87.39-3.1-.19-7.7-.86-13.03-1.07-8.5-2.41-19.08-.45-29.01,3.19-16.13,12.36-24.89,12.75-25.25l.16-.15,9.71-3.22c-.72-1-3.28-2.46-10.22-2.46h-.02c-1.71,0-4.96,2.08-6.33,4.5-.29.51-.61,1.01-.98,1.58-1.83,2.82-4.9,7.55-9.21,24.02-1.68,14.76-.79,20.35.44,28.09.5,3.18,1.08,6.78,1.55,11.51.41,4.1-1.3,13.03-1.97,16.3h0Z"/>
        </g>
        <g id="Tassles">
          <g>
            <path class="cls-9" d="M216.32,161.8s.47,10.4,1.85,15.92c1.39,5.51,3.54,14.88,5,14.86s2.54-1.29,3.03-2.2-.25-8.08-.98-10.76-1.8-7.75-2.74-10.33c-.71-1.95-3.85-9.82-5.01-8.65l-1.16,1.17h0Z"/>
            <path class="cls-3" d="M223.17,193.55c-1.69,0-2.72-2.6-5.5-13.8l-.45-1.8c-1.39-5.55-1.86-15.68-1.88-16.11l-.02-.43,1.47-1.47c.34-.34.8-.48,1.26-.37,1.9.42,4.38,6.7,5.36,9.38.65,1.79,1.35,4.66,1.96,7.2.29,1.21.57,2.34.8,3.21.62,2.31,1.63,10.09.89,11.47-.69,1.3-2.08,2.7-3.88,2.72h-.02.01ZM217.32,162.18c.11,2.01.62,10.57,1.8,15.3l.45,1.81c.9,3.63,2.74,11.07,3.8,12.3.86-.13,1.59-.95,1.98-1.67.26-.87-.34-7.37-1.06-10.04-.24-.89-.52-2.03-.82-3.26-.6-2.49-1.28-5.3-1.9-6.99-1.14-3.13-2.87-6.87-3.77-7.92l-.49.49v-.02Z"/>
          </g>
          <g>
            <path class="cls-9" d="M212.81,161.58s-2.47,10.67-2.14,16.38c.32,5.71.59,15.4,2.69,15.45s4.04-1.2,5.01-2.11,2.08-8.29,1.85-11.06-.24-8.02-.81-10.71c-.43-2.03-2.56-10.24-4.58-9.1l-2.02,1.14h0Z"/>
            <path class="cls-3" d="M213.48,194.39h-.15c-2.41-.06-3.02-4.33-3.55-14.52l-.1-1.85c-.33-5.78,2.06-16.22,2.17-16.66l.1-.42,2.4-1.35c.51-.29,1.09-.31,1.62-.07,2.48,1.12,4.2,8.93,4.39,9.81.4,1.89.53,4.88.65,7.52.05,1.25.11,2.41.18,3.31.2,2.35-.72,10.52-2.15,11.86-1.24,1.16-3.33,2.37-5.56,2.37h0ZM213.67,162.2c-.44,1.98-2.31,10.81-2.03,15.71l.1,1.86c.19,3.55.62,11.87,1.77,12.7h0c1.56,0,3.24-1.01,4.18-1.88.66-.83,1.77-7.54,1.54-10.26-.08-.92-.13-2.11-.19-3.39-.11-2.56-.24-5.47-.61-7.2-.84-3.95-2.47-8.13-3.28-8.44l-1.49.9h0Z"/>
          </g>
          <g>
            <path class="cls-9" d="M210.33,161.21s-3.73,9.94-4.42,15.6-2.09,15.19-.42,15.67,3.41-.35,4.33-1.04,3.03-7.69,3.3-10.45,1.14-7.9,1.13-10.65c0-2.08-.33-10.54-2.13-9.84l-1.8.7h0Z"/>
            <path class="cls-3" d="M206.52,193.6c-.43,0-.87-.06-1.3-.18-1.95-.56-1.83-4.39-.51-14.89l.23-1.85c.69-5.71,4.32-15.41,4.47-15.83l.15-.41,2.2-.86c.48-.19.99-.13,1.42.16,1.87,1.27,2.04,8.43,2.05,10.59,0,1.91-.38,4.86-.73,7.45-.17,1.24-.32,2.4-.41,3.3-.24,2.4-2.29,10.09-3.69,11.13-.97.73-2.4,1.38-3.89,1.38h.01ZM205.92,191.58c1.19.26,2.52-.32,3.32-.92.66-.73,2.64-7.01,2.92-9.76.09-.92.25-2.09.41-3.36.34-2.54.72-5.41.71-7.19,0-3.4-.48-7.75-1.08-8.82l-1.1.43c-.7,1.92-3.63,10.13-4.22,14.97l-.23,1.85c-.47,3.73-1.43,11.41-.73,12.8h0Z"/>
          </g>
        </g>
        <g>
          <circle class="cls-9" cx="215.53" cy="158.69" r="4.91"/>
          <path class="cls-15" d="M215.53,164.59c-3.26,0-5.91-2.65-5.91-5.91s2.65-5.91,5.91-5.91,5.91,2.65,5.91,5.91-2.65,5.91-5.91,5.91ZM215.53,154.78c-2.15,0-3.91,1.75-3.91,3.91s1.75,3.91,3.91,3.91,3.91-1.75,3.91-3.91-1.75-3.91-3.91-3.91Z"/>
        </g>
      </g>
    </g>
  </g>
</svg>