<?xml version="1.0" encoding="UTF-8"?>
<svg id="OSCAR" xmlns="http://www.w3.org/2000/svg" version="1.1" viewBox="0 0 16 16">
  <defs>
    <style>
      .cls-1 {
        fill: #433479;
      }

      .cls-1, .cls-2, .cls-3, .cls-4, .cls-5, .cls-6, .cls-7, .cls-8, .cls-9, .cls-10, .cls-11, .cls-12, .cls-13, .cls-14, .cls-15, .cls-16, .cls-17, .cls-18, .cls-19 {
        stroke-width: 0px;
      }

      .cls-2 {
        fill: #372b62;
      }

      .cls-3 {
        fill: #9f6f2a;
      }

      .cls-4 {
        fill: #ffbc00;
      }

      .cls-5 {
        fill: #cadbf5;
        opacity: .3;
      }

      .cls-6 {
        fill: #a07fb2;
      }

      .cls-7 {
        fill: #c98e25;
      }

      .cls-8 {
        fill: #fcfcfd;
      }

      .cls-9 {
        fill: #c9b5c7;
      }

      .cls-10 {
        fill: #585287;
      }

      .cls-11 {
        fill: #181632;
      }

      .cls-12 {
        fill: #494170;
      }

      .cls-13 {
        fill: #f7eefd;
      }

      .cls-14 {
        fill: #c67600;
      }

      .cls-15 {
        fill: #756aac;
      }

      .cls-16 {
        fill: #ffcd4e;
      }

      .cls-17 {
        fill: #656386;
      }

      .cls-18 {
        fill: #d9cdf5;
      }

      .cls-19 {
        fill: #9e8dab;
      }
    </style>
  </defs>
  <g id="OSCAR_HIMSELF" data-name="OSCAR HIMSELF">
    <g id="Oscar_Left_Ear" data-name="Oscar Left Ear">
      <path class="cls-2" d="M1.19,8.59c-.29-.23-.45-.52-.5-.89,0-.06,0-.11,0-.17,0-.05.02-.14.05-.25.25-.57.7-.95,1.25-.88.09.01.19.04.28.08,0,0,0,0,.01,0,.13-.17.26-.34.4-.5-.03-.01-.07-.03-.12-.05-.49-.24-1.32-.04-1.45.01-.09.04-.24.1-.33.17s-.24.19-.32.31c-.09.12-.19.24-.25.38s-.11.26-.14.4c-.07.31-.01.76.02.92.05.16.08.23.12.3s.11.19.17.28h0s.07.08.08.1c0,.01.03.03.04.04.01.01.02.02.04.04.02.01.23.2.36.28.08.05.16.1.25.12,0,0,0,0,0,0,.01-.23.04-.45.09-.67-.01,0-.03-.02-.05-.03Z"/>
      <path class="cls-9" d="M1.2,8.48s0,.02,0,.04c0,.03,0,.04,0,.06-.02.13-.03.14-.15.06-.29-.23-.45-.52-.5-.89.13.05.22,0,.25-.13.05-.23.15-.42.34-.57.25-.2.53-.33.85-.19-.1.15-.19.29-.29.44-.07,0-.15,0-.21.02-.23.05-.49.34-.47.57.02.21.13.51.19.59Z"/>
      <path class="cls-13" d="M1.97,6.86c-.33-.14-.61-.01-.86.19-.18.15-.29.34-.34.57-.03.13-.12.18-.25.13,0-.06,0-.14,0-.17s0-.04.02-.07c0-.03.02-.13.02-.14s0,.02.05-.13c.17-.48.82-.85,1.25-.86.16,0,.22.01.31.05.16.06.17.02-.03.2-.07.06-.12.15-.17.23Z"/>
      <path class="cls-6" d="M1.2,8.48c-.07-.09-.18-.39-.19-.6-.02-.24.23-.53.47-.57.07-.01.15-.03.21-.02-.09.18-.18.37-.26.55-.08.18-.15.37-.18.56,0,.03,0,.06-.04.08Z"/>
    </g>
    <g id="Oscar_Right_Ear" data-name="Oscar Right Ear">
      <path class="cls-2" d="M13.7,6.51s.04-.02.05-.02c0,0,.11-.06.2-.06.51-.06.7.07.88.28.31.34.43.59.46.77.15.62-.21.98-.21.98-.08.1-.15.16-.27.22-.04.02-.07.03-.1.02.05.21.09.43.12.64,0,0,.02-.01.03-.02.5-.18.82-.55,1.01-1.04.03-.09.05-.19.07-.29,0,0,0-.02.01-.04,0-.02.01-.16.02-.25,0-.01,0-.03,0-.04,0-.08,0-.17,0-.23,0-.06-.02-.13-.02-.16-.04-.3-.16-.49-.33-.73-.11-.15-.31-.33-.35-.36-.05-.03-.08-.06-.15-.11-.07-.04-.1-.06-.13-.08-.03-.01-.1-.05-.14-.06s-.12-.05-.17-.07-.06-.02-.13-.04c-.07-.02-.14-.03-.23-.04-.09,0-.25,0-.32,0-.08,0-.2.03-.3.05s-.27.1-.39.19c0,0,0,0-.01,0,.15.15.29.31.42.47Z"/>
      <path class="cls-6" d="M15.34,8.28c-.03.07-.05.11-.11.19-.09.13-.18.18-.27.26-.07.06-.19.03-.2-.06-.05-.43-.23-.81-.43-1.19-.02-.04-.05-.07-.04-.11.03,0,.07-.02.1-.02.21.02.38.08.48.29.06.13.09.14.23.09.01,0,.03,0,.05,0,0,.05.03.08.08.08.04,0,.07,0,.11,0,.04.01.11.07.11.07.02.12-.05.29-.06.31,0,.03-.01.04-.05.12Z"/>
      <path class="cls-13" d="M13.99,6.72s-.03-.06-.07-.11-.12-.15-.11-.16c.08-.04.13-.03.18-.04.18,0,.26,0,.36,0,.16.02.4.13.56.25.08.07.21.17.31.34.11.18.11.2.14.27s.05.23.05.23c.02.08.03.15.03.2,0,.08.06.31-.11.08-.04,0-.07,0-.11,0-.05,0-.08-.02-.08-.08,0-.02,0-.03,0-.05-.06-.27-.18-.49-.4-.65-.19-.15-.41-.22-.66-.15-.01,0-.03-.03-.03-.04l-.05-.09Z"/>
      <path class="cls-9" d="M13.96,6.86s.08,0,.11,0c.25-.07.47,0,.66.15.22.16.35.39.4.65,0,.01,0,.03,0,.05-.02,0-.03,0-.05,0-.14.05-.17.04-.23-.09-.09-.2-.27-.27-.48-.29-.03,0-.07.01-.1.02-.03-.01-.06-.03-.07-.06-.07-.15-.16-.3-.25-.44Z"/>
    </g>
    <g id="Oscar_Head_Shape" data-name="Oscar Head Shape">
      <path class="cls-13" d="M12.39,5.96s-.25-.2-.27-.21-.05-.04-.1-.07-.14-.1-.2-.14-.18-.12-.22-.15-.23-.13-.33-.19-.36-.09-.47-.14-.21-.09-.31-.12-.49-.17-.6-.2-.19-.05-.19-.05l-.13-.04-.27-.06-.19-.04-.35-.07c-.08,0-.16-.02-.3-.03-.02,0-.16,0-.27,0-.18,0-.37,0-.43,0-.05,0-.15,0-.17,0-.15,0-.43.03-.49.04s-.17.03-.21.04-.12.02-.13.03-.02,0-.03,0-.14.03-.15.03-.03,0-.05,0-.09.02-.11.03-.05,0-.06.01-.08.02-.1.03-.04,0-.07.01-.09.02-.1.03-.1.03-.12.03-.02,0-.04,0c-.17.02-.28.09-.3.1s-.05,0-.07.02l-.09.03-.08.03c-.08.02-.19.01-.24.03-.24.1-.69.33-.71.34s-.05.04-.07.04-.41.26-.45.28-.09.07-.13.09l-.13.08c-.09.06-.17.14-.18.16s-.09.06-.09.06c-.04.03-.03.03-.09.08-.13.12-.44.17-.57.3-.02.02-.03.03-.05.06s-.15.17-.15.17c-.01.02-.02.02-.03.03s-.06.07-.07.08-.02.02-.03.03-.04.05-.05.06-.02.02-.03.03l-.07.1s-.23.32-.24.35-.02.03-.03.05l-.06.1s-.12.34-.13.46c-.06.28-.07.31-.08.38,0,.01,0,.07,0,.12-.01.03-.02.04-.02.05l-.04.08c-.02.06-.08.22-.08.29,0,.05.03.09.09.08.05,0,.22.06.24-.04.03-.21.12-.4.2-.59.18-.41.42-.78.7-1.13.28-.33.6-.63.94-.9.31-.24.64-.46.99-.64.44-.23.9-.42,1.37-.56.51-.14,1.03-.22,1.56-.24.49-.02.97,0,1.45.11.23.05.46.11.69.18.25.07.51.14.74.25.47.23.93.48,1.34.8.46.36.88.76,1.24,1.23.31.41.57.85.71,1.35.05.22.19.19.4.19,0-.06-.01-.09-.02-.12-.07-.3-.29-1.21-.41-1.49-.5-.82-1.05-1.05-1.35-1.27-.04-.03-.05-.05-.1-.08Z"/>
      <path class="cls-8" d="M8.77,10.17c.19-.25.08-.76-.23-.91-.03-.01-.09-.05-.08-.08s.09-.03.15-.02c.47.03.69.14.98.26.29.13.57.28.78.53.12.15.26.19.44.18.32-.02.65,0,.97.02.59.04,1.13.22,1.61.57.08.06.14.13.21.19,0,.06-.02.11-.04.15-.15.24-.28.49-.45.72-.17.24-.36.45-.59.64-.09.07-.16.16-.25.23-.22.17-.44.34-.68.48-.19.11-.38.22-.58.31-.25.1-.5.21-.75.29-.32.11-.64.19-.97.26-.24.05-.47.08-.71.1-.26.03-.52.02-.78.01-.32,0-.65-.02-.97-.06-.32-.04-.63-.12-.94-.21-.37-.11-.72-.24-1.07-.4-.37-.18-.72-.38-1.04-.63-.17-.13-.34-.26-.5-.41-.17-.17-.33-.35-.48-.54-.18-.23-.32-.48-.46-.73-.03-.06-.06-.11-.08-.17,0-.02,0-.05,0-.07.09-.03.16-.12.24-.17.36-.25.76-.4,1.19-.48.44-.08.89-.09,1.34-.09.08,0,.15-.01.23-.01.05,0,.08-.04.11-.07.17-.22.41-.36.65-.49.21-.12.44-.21.68-.28.22-.07.28-.07.51-.12.14-.03.18,0,.19.02.02.04-.24.14-.38.44-.05.1-.05.18,0,.37.1.24.4.45.52.48.1.02.17-.02.09.18-.05.17-.22.33-.22.33-.21.14-.32.18-.6-.08-.07-.06-.13-.15-.13-.15h0c-.08-.09-.17-.09-.25.01h0c-.04.08-.04.11-.03.22s.1.29.19.35.37.16.47.16c.37,0,.49-.09.56-.12s.16-.14.16-.14c.05-.05.08-.09.1-.15,0,0,.02-.06.06-.06.05,0,.07.03.07.05s.04.14.17.25c.09.08.38.18.55.17s.25-.02.32-.04.23-.13.35-.29c.06-.08.07-.14.07-.24,0-.16-.05-.16-.05-.16-.06-.04-.12-.04-.21.02-.05.03-.08.09-.11.14-.09.13-.28.2-.43.17s-.28-.11-.34-.16-.11-.21-.13-.28c-.04-.09,0-.14.09-.17s.37-.11.49-.3ZM3.73,11.65c.06,0,.11-.03.17-.06.15-.09.29-.19.44-.27.19-.11.38-.22.56-.34.13-.08.16-.21.1-.32-.07-.14-.22-.21-.36-.17-.11.03-.21.09-.31.15-.24.15-.49.29-.74.44-.12.07-.2.23-.16.34.04.14.15.23.3.23ZM11.11,10.49c-.13,0-.23.07-.28.19-.05.12.02.19.09.27.07.07.16.11.25.16.29.17.57.34.85.5.11.06.23.03.32-.09.09-.12.1-.23.02-.33-.06-.07-.13-.12-.21-.17-.25-.15-.5-.3-.75-.45-.09-.05-.18-.1-.29-.1Z"/>
      <path class="cls-18" d="M13.87,11.71c-.11.29-.52,1.06-1.42,1.72-.39.24-.83.61-2.03,1.04-.5.17-1.98.39-2.58.39s-1.78-.19-2.24-.32-1.18-.41-1.18-.41c-.35-.17-.69-.37-1.01-.6-.28-.2-.53-.45-.75-.72-.03-.04-.03-.11-.09-.12-.05-.07-.05-.06-.16-.21s-.2-.34-.36-.62c-.02-.06-.04-.1-.06-.15,0-.07-.03-.13-.06-.19-.06-.11-.05-.2.03-.3.09-.1.15-.23.28-.3.03.06.05.12.08.17.14.25.29.5.46.73.15.19.31.37.48.54.15.15.33.28.5.41.32.26.67.46,1.04.63.34.16.7.29,1.07.4.31.09.62.17.94.21.32.04.65.05.97.06.26,0,.52.01.78-.01.24-.03.48-.05.71-.1.33-.07.65-.16.97-.26.26-.08.51-.19.75-.29.2-.08.39-.2.58-.31.24-.14.46-.31.68-.48.09-.07.16-.15.25-.23.22-.19.41-.4.59-.64.17-.23.3-.48.45-.72.03-.05.05-.1.04-.15,0,0,.02,0,.02,0,.1.12.21.23.3.36.04.06.05.1.02.16-.04.1-.06.18-.08.29"/>
      <path class="cls-9" d="M14.25,9.58s.04-.07.04-.1c0-.03,0-.05,0-.08,0-.03,0-.08,0-.11s-.01-.09-.02-.12c0-.03,0,0,0-.04,0-.04,0-.05-.01-.08s0,0,0-.04-.02-.07-.02-.11c0,0,0,0,0,0h-.03c-.2-.01-.25.03-.31-.18-.14-.5-.4-.94-.71-1.35-.35-.47-.77-.87-1.24-1.23-.42-.32-.87-.57-1.34-.8-.23-.11-.49-.18-.74-.25-.23-.06-.46-.12-.69-.18-.48-.11-.96-.13-1.45-.11-.53.02-1.05.1-1.56.24-.48.14-.93.33-1.37.56-.35.18-.68.4-.99.64-.34.27-.66.56-.94.9-.29.34-.52.72-.7,1.13-.08.19-.17.38-.2.59-.02.1-.09.05-.15.06-.06,0-.06-.04-.06-.08,0-.1-.02-.2-.02-.3-.07.15-.11.45-.12.47,0,.03-.01.09-.02.15,0,.06,0,.08,0,.11,0,.09-.02.21-.03.29,0,.08.01.48.07.64.01.02.03.03.05.06.04-.06.09-.13.17-.15.07,0,.13.01.19.05.11.08.12.18.09.32,0,.04-.01.06,0,.09.05.09.06.2.14.28.09-.03.16-.12.24-.17.36-.25.76-.4,1.19-.48.44-.08.89-.09,1.34-.09.08,0,.15-.01.23-.01.05,0,.08-.04.11-.07.17-.22.41-.36.65-.49.21-.12.44-.21.68-.28.22-.07.45-.02.68-.07.01,0,.03,0,.04.01.36-.15.7-.15,1.05,0,.4,0,.78.04,1.13.2.29.13.57.28.78.53.12.15.26.19.44.18.32-.02.65,0,.97.02.59.04,1.13.22,1.61.57.08.06.14.13.21.19,0,0,.02,0,.02,0,.02-.05.02-.11.05-.16.06-.12.07-.24.06-.37,0-.11.07-.21.16-.24.1-.03.2,0,.27.11,0,.01.01.02.05.01,0-.11,0-.22,0-.33,0-.11.04-.32.04-.34Z"/>
      <path class="cls-6" d="M13.83,11.73c.02-.11.08-.21.12-.31.02-.06.01-.1-.02-.16-.09-.13-.21-.24-.3-.36.02-.05.02-.11.05-.16.06-.12.07-.24.06-.37,0-.11.07-.21.16-.24.1-.03.2,0,.27.11,0,.01.01.02.05.01,0-.11,0-.22,0-.33,0-.11-.02-.24.02-.35.02.01.04.04.04.06.03.56-.03,1.13-.22,1.66-.04.12-.09.24-.14.36-.01.03-.04.06-.08.08Z"/>
      <path class="cls-6" d="M2.24,10.94c-.13.06-.19.2-.28.3-.08.09-.08.19-.03.3.03.06.07.12.06.19-.07-.09-.1-.2-.13-.3-.07-.25-.14-.5-.2-.75-.03-.15-.06-.3-.05-.45.01.02.03.03.05.06.04-.06.09-.13.17-.15.07,0,.13.01.19.05.11.08.12.18.09.32,0,.04-.01.06,0,.09.05.09.06.2.14.28,0,.02,0,.05,0,.07Z"/>
    </g>
    <path id="Oscar_Right_Whisker" data-name="Oscar Right Whisker" class="cls-19" d="M3.73,11.65c-.14,0-.26-.09-.3-.23-.03-.11.05-.27.16-.34.24-.15.49-.29.74-.44.1-.06.2-.12.31-.15.13-.04.29.03.36.17.06.11.02.24-.1.32-.18.12-.37.23-.56.34-.15.08-.29.18-.44.27-.05.03-.11.07-.17.06Z"/>
    <path id="Oscar_Left_Whisker" data-name="Oscar Left Whisker" class="cls-19" d="M11.11,10.49c.11,0,.2.05.29.1.25.15.5.3.75.45.08.05.15.1.21.17.08.1.08.21-.02.33-.09.11-.21.15-.32.09-.29-.17-.57-.34-.85-.5-.08-.05-.18-.09-.25-.16-.07-.08-.14-.15-.09-.27.05-.12.15-.19.28-.19Z"/>
    <g id="Oscar_Nose_and_Mouth" data-name="Oscar Nose and Mouth">
      <path class="cls-2" d="M7.94,11.07s-.01-.02-.03-.02c-.02,0-.02.01-.03.02s-.09.14-.12.17c-.07.08-.11.09-.15.12s-.12.06-.12.06c-.15.07-.29.1-.46.08s-.3-.08-.3-.08c-.32-.13-.44-.45-.34-.68.02-.03.11-.17.25-.01l.04.04c.14.16.34.39.6.24.07-.04.09-.05.14-.11s.17-.18.18-.34c0-.05.01-.07-.04-.07-.16-.02-.28-.1-.4-.21,0,0-.18-.16-.23-.41,0-.05,0-.16.02-.23.04-.12.09-.21.17-.3,0,0,.15-.15.41-.23.33-.12.69-.02.89.07.12.06.2.12.2.12.19.18.28.37.24.65,0,.07-.08.27-.22.37-.07.05-.25.15-.4.19-.03,0-.05.04-.04.07.02.11.08.24.15.32.06.06.09.09.14.11.21.1.46.05.61-.15.11-.16.2-.22.33-.1,0,0,.08.1.05.26-.06.21-.29.38-.34.42s-.17.08-.27.09c-.12,0-.22,0-.36-.02-.16-.04-.25-.05-.38-.15-.02-.01-.07-.04-.1-.08-.02-.03-.06-.08-.11-.18ZM7.86,9.68c.11,0,.2,0,.28-.04.11-.05.13-.17.04-.26-.13-.14-.48-.14-.6,0-.08.08-.05.19.05.24.08.04.16.05.23.04Z"/>
      <path class="cls-13" d="M7.86,9.68c-.07,0-.15,0-.23-.04-.1-.05-.12-.16-.05-.24.13-.14.47-.15.6,0,.08.09.06.21-.04.26-.08.04-.17.04-.28.04Z"/>
    </g>
    <g id="Oscar_Eyes" data-name="Oscar Eyes">
      <g id="Oscar_Right_Eye" data-name="Oscar Right Eye">
        <path class="cls-2" d="M10.76,9.4c-.36,0-.65-.32-.65-.71,0-.4.32-.71.72-.7.37,0,.67.33.67.72,0,.4-.32.7-.74.7Z"/>
        <circle class="cls-8" cx="11.13" cy="8.4" r=".15"/>
      </g>
      <g id="Oscar_Left_Eye" data-name="Oscar Left Eye">
        <path class="cls-2" d="M5.62,8.69c0,.41-.29.7-.7.71-.37,0-.7-.32-.7-.7,0-.41.29-.71.68-.73.41-.02.72.3.72.71Z"/>
        <circle class="cls-8" cx="5.23" cy="8.44" r=".16"/>
      </g>
    </g>
    <path id="Outline" class="cls-2" d="M7.92,15.2c-1.86,0-3.61-.58-4.93-1.64-1.34-1.07-2.08-2.51-2.08-4.04s.74-2.96,2.08-4.04c1.32-1.06,3.07-1.64,4.93-1.64s3.61.58,4.93,1.64c1.34,1.07,2.08,2.51,2.08,4.04s-.74,2.96-2.08,4.04c-1.32,1.06-3.07,1.64-4.93,1.64ZM7.92,4.54c-3.49,0-6.32,2.24-6.32,4.98s2.84,4.98,6.32,4.98,6.32-2.24,6.32-4.98-2.84-4.98-6.32-4.98Z"/>
  </g>
  <g id="Glasses">
    <g id="Nosebit">
      <path class="cls-15" d="M9.46,8.16s-.18-.26-1.39-.37c-1.1-.02-1.39.37-1.39.37v-.76s.45-.28,1.41-.23,1.37.23,1.37.23v.76Z"/>
      <path class="cls-10" d="M8.07,7.56c-1.1-.02-1.39.3-1.39.3v.26s.29-.31,1.39-.3c1.21.09,1.39.3,1.39.3v-.26s-.18-.21-1.39-.3Z"/>
    </g>
    <g id="Left_Lens" data-name="Left Lens">
      <circle class="cls-5" cx="4.46" cy="8.48" r="2.23"/>
      <path class="cls-17" d="M4.45,11.04c-1.41,0-2.56-1.15-2.56-2.56s1.15-2.56,2.56-2.56c.78,0,1.4.21,1.84.61.48.44.72,1.1.72,1.95,0,1.41-1.15,2.56-2.56,2.56ZM4.45,6.49c-1.1,0-1.99.89-1.99,1.99s.89,1.99,1.99,1.99,1.99-.89,1.99-1.99c0-1.32-.67-1.99-1.99-1.99Z"/>
      <path class="cls-12" d="M6.43,8.77c-.13.97-.97,1.72-1.97,1.72s-1.83-.74-1.97-1.7c-.23-.19-.42-.42-.56-.67-.02.12-.03.25-.03.38,0,1.41,1.15,2.56,2.56,2.56s2.56-1.15,2.56-2.56c0-.15,0-.29-.02-.42-.14.26-.34.49-.57.69Z"/>
    </g>
    <g id="Right_lens" data-name="Right lens">
      <circle class="cls-5" cx="11.53" cy="8.48" r="2.23"/>
      <path class="cls-17" d="M11.55,11.04c-1.41,0-2.56-1.15-2.56-2.56,0-.83.28-1.5.8-1.96.45-.39,1.08-.61,1.76-.61,1.41,0,2.56,1.15,2.56,2.56s-1.15,2.56-2.56,2.56ZM11.55,6.49c-.55,0-1.04.17-1.39.47-.4.35-.6.86-.6,1.53,0,1.1.89,1.99,1.99,1.99s1.99-.89,1.99-1.99-.89-1.99-1.99-1.99Z"/>
      <path class="cls-12" d="M13.36,9.33c-.31.69-1.01,1.17-1.81,1.17-1.1,0-1.99-.89-1.99-1.99,0-.26.03-.5.1-.72-.1-.27-.16-.55-.16-.85,0-.03,0-.05,0-.08-.33.43-.51.99-.51,1.64,0,1.41,1.15,2.56,2.56,2.56,1.25,0,2.29-.9,2.51-2.08-.21.15-.45.26-.7.35Z"/>
    </g>
  </g>
  <g id="Michael_Hat" data-name="Michael Hat">
    <g>
      <path class="cls-11" d="M2.8,2.74c0-.09-.04-.13,0-.22L7.98.8s.03,0,.04,0l5.14,1.7c.07.08.07.17-.01.19l-5.15,1.34-5.2-1.29Z"/>
      <path class="cls-2" d="M7.98,4.18l-5.14-1.43c-.09-.02-.09-.15,0-.17L7.98.95s.03,0,.04,0l5.14,1.63c.09.02.09.15,0,.17l-5.14,1.43s-.03,0-.05,0Z"/>
      <path class="cls-17" d="M13.17,2.5l-5.14-1.7s-.03,0-.04,0l-.1.03v3.17l.12.03,5.15-1.34c.09-.02.09-.12.01-.19Z"/>
      <path class="cls-1" d="M13.13,2.59L7.99.96s-.03,0-.04,0l-.06.02v3.2l.05.02s.03,0,.05,0l5.14-1.43c.09-.02.09-.15,0-.17Z"/>
      <path class="cls-12" d="M10.98,5.11c0,.07-.06.13-.12.11-.17-.05-.49-.14-.79-.17-.42-.04-.99-.13-2.01.27-.07.03-.15.03-.23,0-1-.36-1.42-.44-1.94-.41-.36.02-.67.17-.85.26-.06.03-.14-.02-.14-.1v-2.24c0-.06.03-.1.08-.11.2-.04.74-.15,1.06-.18.39-.05,1.34-.12,1.9-.12s1.34.1,1.95.18c.46.06.84.11,1,.13.05,0,.09.05.09.11v2.27Z"/>
      <path class="cls-17" d="M7.93,2.58c-.51,0-1.34.05-1.78.09v2.09c.41,0,.84.14,1.66.4.07.02.12.06.23,0,.03-.01.05-.02.08-.03v-2.55c-.07,0-.13,0-.2,0Z"/>
      <path class="cls-2" d="M7.93,5.48s-.1,0-.15-.03c-.95-.35-1.38-.43-1.89-.4-.34.02-.65.17-.8.25-.07.04-.15.03-.21-.02-.06-.05-.1-.13-.1-.22v-2.24c0-.13.08-.23.18-.26.22-.04.75-.15,1.06-.19.4-.05,1.35-.12,1.92-.12s1.31.1,1.97.18c.47.06.85.11,1,.13.11.01.2.12.2.26v2.27c0,.08-.03.16-.09.21-.05.05-.12.07-.19.05-.16-.05-.48-.14-.77-.17h-.06c-.4-.05-.96-.11-1.9.26-.05.02-.11.03-.16.03ZM6.1,4.76c.46,0,.91.11,1.76.42.05.02.1.02.15,0,.99-.4,1.58-.33,2-.29h.06c.29.04.6.12.78.17v-2.2c-.19-.02-.55-.06-.98-.12-.65-.09-1.39-.18-1.94-.18s-1.49.07-1.89.12c-.3.04-.8.13-1.03.18v2.16c.18-.09.5-.23.85-.25.08,0,.15,0,.22,0Z"/>
      <path class="cls-4" d="M5.88,4.46c.52-.03.93.04,1.94.36.07.02.16.02.23,0,1.02-.36,1.59-.28,2.01-.24.3.03.62.11.79.15v-.56c-.17-.05-.49-.12-.79-.15-.42-.04-1.01-.12-2.04.25-.05.02-.11.02-.17,0-1.03-.33-1.44-.4-1.97-.37-.37.02-.69.15-.86.24v.56s0,0,.01,0c.17-.08.49-.21.85-.23Z"/>
      <path class="cls-16" d="M8.02,4.26c-.05.02-.11.02-.17,0-.85-.27-1.28-.37-1.71-.38v.56c.42,0,.85.1,1.68.37.07.02.16.02.23,0,.04-.02.09-.03.13-.04v-.56c-.05.02-.1.03-.16.05Z"/>
    </g>
    <g id="Tissle_thingy" data-name="Tissle thingy">
      <g>
        <path class="cls-4" d="M5.26,1.7l-.4.13s-.36.33-.48.95.09,1.29.05,1.61-.09.53-.09.53h-.2s.1-.47.08-.66c-.06-.62-.17-.72-.08-1.53.2-.76.33-.87.4-.99.06-.11.2-.19.28-.19.46,0,.44.16.44.16Z"/>
        <path class="cls-16" d="M4.83,1.54c-.08,0-.22.09-.28.19-.06.11-.17.21-.33.76.04,0,.08,0,.12,0,.04,0,.08.02.11.04.15-.46.41-.71.41-.71l.4-.13s.02-.16-.44-.16Z"/>
        <path class="cls-7" d="M4.38,4.96h-.28v-.05s.11-.47.09-.65c-.02-.18-.04-.32-.06-.44-.05-.3-.08-.52-.02-1.1h0c.17-.65.29-.84.36-.95.01-.02.02-.04.04-.06.06-.11.21-.21.31-.21h0c.23,0,.37.04.44.11.04.04.04.08.04.09v.02s-.42.14-.42.14c-.05.05-.35.37-.46.92-.07.37-.02.77.02,1.09.03.21.05.39.03.52-.04.32-.09.53-.09.53v.03ZM4.19,4.88h.13c.01-.07.05-.25.08-.49.02-.12,0-.3-.03-.5-.04-.33-.09-.73-.02-1.11.12-.62.47-.95.49-.97h0s.37-.13.37-.13c-.03-.04-.13-.09-.39-.09h0c-.07,0-.19.08-.24.17-.01.02-.02.04-.04.06-.07.11-.19.29-.35.92-.06.57-.03.78.02,1.08.02.12.04.26.06.44.02.16-.05.5-.08.63Z"/>
      </g>
      <g id="Tassles">
        <g>
          <path class="cls-4" d="M4.31,5s.02.4.07.61.14.57.19.57.1-.05.12-.08,0-.31-.04-.41-.07-.3-.11-.4c-.03-.07-.15-.38-.19-.33l-.04.04Z"/>
          <path class="cls-3" d="M4.57,6.22c-.06,0-.1-.1-.21-.53l-.02-.07c-.05-.21-.07-.6-.07-.62v-.02s.06-.06.06-.06c.01-.01.03-.02.05-.01.07.02.17.26.21.36.02.07.05.18.08.28.01.05.02.09.03.12.02.09.06.39.03.44-.03.05-.08.1-.15.1h0ZM4.34,5.02c0,.08.02.41.07.59l.02.07c.03.14.11.42.15.47.03,0,.06-.04.08-.06.01-.03-.01-.28-.04-.39,0-.03-.02-.08-.03-.13-.02-.1-.05-.2-.07-.27-.04-.12-.11-.26-.14-.3l-.02.02Z"/>
        </g>
        <g>
          <path class="cls-4" d="M4.17,4.99s-.09.41-.08.63.02.59.1.59.16-.05.19-.08.08-.32.07-.42,0-.31-.03-.41c-.02-.08-.1-.39-.18-.35l-.08.04Z"/>
          <path class="cls-3" d="M4.2,6.25s0,0,0,0c-.09,0-.12-.17-.14-.56v-.07c-.02-.22.08-.62.08-.64v-.02s.1-.05.1-.05c.02-.01.04-.01.06,0,.09.04.16.34.17.38.02.07.02.19.02.29,0,.05,0,.09,0,.13,0,.09-.03.4-.08.45-.05.04-.13.09-.21.09ZM4.2,5.02c-.02.08-.09.41-.08.6v.07c.01.14.03.46.07.49h0c.06,0,.12-.04.16-.07.03-.03.07-.29.06-.39,0-.04,0-.08,0-.13,0-.1,0-.21-.02-.28-.03-.15-.09-.31-.13-.32l-.06.03Z"/>
        </g>
        <g>
          <path class="cls-4" d="M4.08,4.98s-.14.38-.17.6-.08.58-.02.6.13-.01.17-.04.12-.29.13-.4.04-.3.04-.41c0-.08-.01-.4-.08-.38l-.07.03Z"/>
          <path class="cls-3" d="M3.93,6.22s-.03,0-.05,0c-.07-.02-.07-.17-.02-.57v-.07c.04-.22.17-.59.18-.61v-.02s.09-.03.09-.03c.02,0,.04,0,.05,0,.07.05.08.32.08.41,0,.07-.01.19-.03.29,0,.05-.01.09-.02.13,0,.09-.09.39-.14.43-.04.03-.09.05-.15.05ZM3.91,6.14s.1-.01.13-.04c.03-.03.1-.27.11-.37,0-.04,0-.08.02-.13.01-.1.03-.21.03-.28,0-.13-.02-.3-.04-.34l-.04.02c-.03.07-.14.39-.16.57v.07c-.03.14-.06.44-.04.49Z"/>
        </g>
      </g>
      <g>
        <circle class="cls-4" cx="4.28" cy="4.88" r=".19"/>
        <path class="cls-14" d="M4.28,5.11c-.12,0-.23-.1-.23-.23s.1-.23.23-.23.23.1.23.23-.1.23-.23.23ZM4.28,4.73c-.08,0-.15.07-.15.15s.07.15.15.15.15-.07.15-.15-.07-.15-.15-.15Z"/>
      </g>
    </g>
  </g>
</svg>