<?xml version="1.0" encoding="UTF-8"?>
<svg xmlns="http://www.w3.org/2000/svg" version="1.1" viewBox="0 0 612 792">
  <defs>
    <style>
      .cls-1 {
        fill: #9c8faa;
      }

      .cls-1, .cls-2, .cls-3, .cls-4, .cls-5, .cls-6, .cls-7, .cls-8, .cls-9, .cls-10, .cls-11, .cls-12, .cls-13, .cls-14, .cls-15, .cls-16, .cls-17, .cls-18, .cls-19 {
        stroke-width: 0px;
      }

      .cls-2 {
        fill: #997137;
      }

      .cls-3 {
        fill: #352b5f;
      }

      .cls-4 {
        fill: #d8cef3;
      }

      .cls-5 {
        fill: #48416d;
      }

      .cls-6 {
        fill: #f6effd;
      }

      .cls-7 {
        fill: #cedbf4;
        opacity: .3;
      }

      .cls-8 {
        fill: #f9c041;
      }

      .cls-9 {
        fill: #c1913d;
      }

      .cls-10 {
        fill: #736aa8;
      }

      .cls-11 {
        fill: #181630;
      }

      .cls-12 {
        fill: #ffd066;
      }

      .cls-13 {
        fill: #c7b7c7;
      }

      .cls-14 {
        fill: #bc7a11;
      }

      .cls-15 {
        fill: #575284;
      }

      .cls-16 {
        fill: #413575;
      }

      .cls-17 {
        fill: #9c80b0;
      }

      .cls-18 {
        fill: #fdfdfe;
      }

      .cls-20 {
        display: none;
      }

      .cls-19 {
        fill: #656384;
      }
    </style>
  </defs>
  <g id="Hat">
    <g>
      <g id="OSCAR_HIMSELF" data-name="OSCAR HIMSELF">
        <g id="Oscar_Left_Ear" data-name="Oscar Left Ear">
          <path class="cls-3" d="M105.7,352.72c-3.04-2.37-4.76-5.48-5.24-9.29-.07-.58-.03-1.19.01-1.75.04-.56.21-1.5.54-2.64,2.59-5.99,7.31-9.93,13.1-9.19,1,.13,1.95.46,2.89.8.04.02.08.03.12.05,1.34-1.82,2.75-3.59,4.19-5.29-.31-.12-.69-.31-1.21-.57-5.13-2.55-13.82-.39-15.24.14-.97.43-2.48,1.04-3.48,1.81s-2.49,2.04-3.4,3.25c-.91,1.21-1.99,2.52-2.62,3.99s-1.15,2.75-1.48,4.22c-.73,3.26-.12,8.02.24,9.68.5,1.64.86,2.36,1.3,3.16s1.18,1.98,1.77,2.97h0c.32.44.71.88.8,1,.09.12.26.28.39.42.13.14.22.26.4.41.17.15,2.36,2.14,3.76,2.94.84.48,1.65,1.01,2.6,1.25.03,0,.06.02.09.03.11-2.4.43-4.75.95-7.05-.14-.07-.31-.18-.5-.33Z"/>
          <path class="cls-13" d="M105.76,351.54c-.02.13-.04.25-.06.38-.01.32-.06.39-.1.63-.25,1.38-.35,1.49-1.62.62-3.04-2.37-4.76-5.48-5.24-9.29,1.38.49,2.35,0,2.65-1.39.53-2.39,1.62-4.45,3.53-6.01,2.61-2.13,5.55-3.43,8.97-1.99-1.02,1.53-2.04,3.06-3.06,4.58-.71-.1-1.52.07-2.21.21-2.46.49-5.11,3.55-4.88,6.02.2,2.16,1.36,5.32,2.03,6.23Z"/>
          <path class="cls-6" d="M113.89,334.49c-3.42-1.44-6.39-.15-9,1.98-1.92,1.56-3,3.62-3.53,6.01-.31,1.39-1.27,1.88-2.65,1.39-.07-.58.03-1.51.01-1.75s.06-.47.16-.75c.02-.3.19-1.31.23-1.46s.05.18.56-1.32c1.78-5.06,8.57-8.87,13.11-9.07,1.65-.07,2.31.14,3.24.51,1.65.67,1.76.2-.31,2.1-.73.67-1.22,1.58-1.82,2.37Z"/>
          <path class="cls-17" d="M105.76,351.54c-.72-.91-1.84-4.09-2.04-6.25-.23-2.47,2.42-5.53,4.88-6.02.68-.14,1.53-.34,2.24-.24-.92,1.93-1.87,3.84-2.76,5.78-.86,1.89-1.55,3.84-1.93,5.89-.05.28-.05.65-.4.85Z"/>
        </g>
        <g id="Oscar_Right_Ear" data-name="Oscar Right Ear">
          <path class="cls-3" d="M236.95,330.85c.18-.12.39-.19.53-.26,0,0,1.14-.62,2.07-.62,5.34-.66,7.33.76,9.21,2.89,3.26,3.58,4.48,6.16,4.78,8.07,1.54,6.5-2.21,10.31-2.21,10.31-.82,1.02-1.59,1.65-2.84,2.3-.42.17-.78.26-1.07.22.53,2.23.96,4.47,1.3,6.71.1-.06.22-.11.35-.16,5.3-1.94,8.65-5.75,10.57-10.95.36-.98.51-2,.77-3,0,0,.07-.17.11-.43.04-.25.11-1.72.17-2.58,0-.14,0-.28,0-.43-.02-.8-.05-1.77-.07-2.4-.02-.63-.16-1.36-.2-1.69-.4-3.17-1.63-5.14-3.47-7.68-1.12-1.54-3.2-3.46-3.67-3.81-.47-.35-.85-.66-1.58-1.11-.73-.44-1.01-.66-1.35-.81-.34-.15-1.07-.49-1.42-.63s-1.25-.57-1.82-.74-.67-.19-1.41-.39c-.74-.21-1.42-.32-2.41-.4-.99-.08-2.58-.05-3.37.02-.79.06-2.14.28-3.11.56s-2.87,1.08-4.13,1.97c-.04.03-.08.04-.12.06,1.6,1.57,3.07,3.23,4.41,4.97Z"/>
          <path class="cls-17" d="M254.12,349.4c-.36.78-.57,1.12-1.2,1.96-.97,1.35-1.88,1.88-2.88,2.74-.78.65-1.95.29-2.08-.68-.58-4.49-2.46-8.49-4.52-12.44-.2-.38-.51-.72-.44-1.2.36-.07.72-.24,1.07-.21,2.16.16,4,.87,5,3,.62,1.32.99,1.44,2.44.92.15-.05.32-.04.49-.06.03.55.32.81.88.79.39-.01.78.01,1.16.02.41.14,1.14.73,1.14.73.17,1.29-.51,3.08-.58,3.21-.08.28-.13.45-.49,1.23Z"/>
          <path class="cls-6" d="M239.96,333.09c-.06-.09-.32-.64-.71-1.11s-1.23-1.6-1.11-1.69c.81-.38,1.33-.34,1.94-.41,1.91-.1,2.69-.09,3.73.07,1.68.25,4.25,1.41,5.84,2.59.87.68,2.17,1.83,3.22,3.58,1.13,1.89,1.19,2.15,1.42,2.87s.51,2.4.51,2.4c.21.86.32,1.56.36,2.05.06.85.65,3.29-1.11.81-.39,0-.78-.03-1.16-.02-.56.02-.85-.24-.88-.79,0-.17.05-.34.02-.49-.59-2.79-1.93-5.16-4.21-6.87-2.04-1.52-4.34-2.34-6.96-1.6-.14-.01-.28-.34-.34-.44l-.56-.94Z"/>
          <path class="cls-13" d="M239.67,334.51c.4-.01.82.05,1.2-.05,2.62-.74,4.92.08,6.96,1.6,2.28,1.7,3.62,4.08,4.21,6.87.03.16-.01.33-.02.49-.16.02-.34,0-.49.06-1.45.52-1.82.39-2.44-.92-.99-2.13-2.84-2.84-5-3-.35-.03-.71.13-1.07.21-.32-.13-.58-.34-.72-.65-.72-1.62-1.65-3.13-2.63-4.61Z"/>
        </g>
        <g id="Oscar_Head_Shape" data-name="Oscar Head Shape">
          <path class="cls-6" d="M223.13,325.04c-.51-.4-2.64-2.07-2.83-2.2s-.57-.43-1.06-.76-1.47-1.01-2.15-1.46-1.84-1.22-2.29-1.53-2.44-1.38-3.5-1.96-3.82-.92-4.89-1.42-2.22-.89-3.2-1.25-5.1-1.75-6.26-2.14-1.98-.48-1.98-.48l-1.41-.39-2.81-.68-2.01-.39-3.71-.72c-.81-.06-1.68-.24-3.11-.31-.26-.01-1.63-.1-2.85-.05-1.86-.09-3.85-.08-4.47-.09-.54,0-1.57,0-1.77,0-1.57,0-4.56.32-5.16.43s-1.75.32-2.17.42-1.23.25-1.38.28-.21.03-.31.04-1.43.3-1.52.33-.32.03-.49.07-.92.25-1.2.3-.48.07-.58.11-.81.25-1.03.29-.47.09-.73.15-.91.25-1.06.29-1.06.32-1.23.35-.25.05-.38.07c-1.73.23-2.97.98-3.15,1.01s-.49.1-.69.16l-.93.34-.86.34c-.81.24-2.03.14-2.52.35-2.54,1.07-7.23,3.46-7.44,3.6s-.57.39-.69.44-4.34,2.71-4.68,2.92-.98.68-1.35.92l-1.33.86c-.89.59-1.74,1.49-1.93,1.63s-.91.62-.91.62c-.4.33-.32.29-.9.8-1.39,1.23-4.65,1.83-5.94,3.18-.18.19-.31.35-.57.62s-1.6,1.81-1.6,1.81c-.16.17-.16.19-.3.33s-.6.72-.72.86-.19.24-.28.35-.39.48-.52.65-.2.22-.3.33l-.78,1.04c-.13.17-2.39,3.4-2.54,3.65s-.2.35-.3.53l-.59,1.02c-.09.16-1.24,3.53-1.41,4.84-.61,2.98-.69,3.25-.86,4.03-.03.14-.06.73-.06,1.22-.11.36-.17.41-.19.51l-.39.87c-.25.62-.79,2.3-.89,3.01-.02.48.35.95.99.86.55-.08,2.36.59,2.53-.43.36-2.19,1.22-4.21,2.11-6.22,1.89-4.3,4.35-8.23,7.38-11.84,2.94-3.5,6.25-6.61,9.82-9.42,3.24-2.56,6.67-4.84,10.38-6.74,4.65-2.37,9.39-4.43,14.42-5.85,5.36-1.52,10.83-2.32,16.38-2.53,5.11-.19,10.2.05,15.21,1.19,2.44.55,4.86,1.18,7.27,1.84,2.64.73,5.3,1.48,7.76,2.66,4.93,2.38,9.71,5.03,14.07,8.41,4.87,3.77,9.26,8.01,12.98,12.9,3.24,4.27,5.93,8.88,7.4,14.11.55,2.35,1.96,1.94,4.22,2.02,0-.58-.15-.94-.24-1.26-.76-3.12-3.05-12.69-4.34-15.63-5.26-8.63-11.07-10.98-14.14-13.34-.37-.32-.55-.49-1.05-.89Z"/>
          <path class="cls-18" d="M185.21,369.2c1.96-2.66.88-7.98-2.41-9.56-.36-.12-.93-.48-.86-.88s.98-.3,1.55-.26c4.96.31,7.2,1.43,10.31,2.76,3.04,1.35,6.02,2.94,8.13,5.55,1.31,1.62,2.73,2.04,4.65,1.92,3.38-.21,6.77,0,10.13.24,6.14.43,11.84,2.29,16.84,5.99.8.59,1.49,1.33,2.23,2,.03.59-.17,1.11-.47,1.61-1.54,2.54-2.94,5.15-4.69,7.56-1.79,2.48-3.8,4.74-6.15,6.7-.9.75-1.65,1.66-2.59,2.37-2.34,1.76-4.62,3.57-7.18,5.03-2,1.14-3.96,2.35-6.08,3.23-2.61,1.08-5.22,2.17-7.92,3.05-3.36,1.1-6.76,2.04-10.22,2.78-2.47.53-4.98.81-7.49,1.08-2.74.29-5.48.21-8.22.14-3.4-.08-6.82-.19-10.18-.65-3.33-.46-6.6-1.31-9.85-2.24-3.84-1.11-7.6-2.47-11.19-4.18-3.84-1.84-7.55-3.94-10.91-6.62-1.77-1.41-3.62-2.76-5.24-4.34-1.82-1.76-3.5-3.67-5.04-5.7-1.85-2.42-3.37-5.04-4.84-7.69-.32-.58-.58-1.19-.87-1.79.02-.24.05-.49.07-.73.99-.37,1.64-1.22,2.48-1.8,3.8-2.64,7.98-4.22,12.52-5.08,4.67-.88,9.36-.95,14.06-.98.8,0,1.6-.13,2.4-.15.56-.01.84-.39,1.12-.75,1.81-2.35,4.35-3.73,6.84-5.16,2.23-1.27,4.63-2.2,7.11-2.93,2.35-.69,2.98-.7,5.35-1.23,1.5-.27,1.86-.01,1.98.19.25.43-2.56,1.48-4.01,4.67-.56,1.05-.51,1.88-.04,3.84,1.02,2.54,4.19,4.75,5.47,5.02,1,.21,1.8-.21.94,1.91-.49,1.8-2.31,3.48-2.31,3.48-2.16,1.49-3.35,1.93-6.31-.8-.72-.66-1.36-1.61-1.36-1.61h0c-.81-.95-1.79-.91-2.62.11l-.02.02c-.46.82-.4,1.16-.35,2.26s1.02,3,2.03,3.7,3.92,1.66,4.95,1.68c3.84.04,5.14-.89,5.84-1.29s1.7-1.45,1.7-1.45c.52-.54.82-.93,1.01-1.53.03-.06.19-.64.63-.66.48,0,.72.28.76.55s.47,1.47,1.8,2.63c.96.83,3.98,1.84,5.79,1.73s2.65-.17,3.38-.43,2.37-1.39,3.66-3.07c.64-.84.75-1.45.74-2.53-.02-1.69-.48-1.67-.48-1.67-.59-.46-1.22-.4-2.16.26-.51.35-.82.97-1.16,1.46-.99,1.36-2.98,2.11-4.52,1.81s-2.94-1.11-3.51-1.73-1.11-2.18-1.4-2.93c-.37-.94.06-1.51.99-1.79s3.88-1.16,5.14-3.13ZM132.38,384.74c.59.06,1.16-.27,1.74-.63,1.53-.95,3.01-1.97,4.58-2.86,2-1.13,3.99-2.29,5.92-3.54,1.34-.87,1.69-2.18,1.08-3.38-.72-1.43-2.35-2.21-3.75-1.79-1.16.35-2.19.96-3.22,1.59-2.56,1.57-5.16,3.07-7.72,4.62-1.26.76-2.05,2.46-1.73,3.56.42,1.44,1.6,2.4,3.1,2.42ZM209.71,372.62c-1.35.01-2.4.76-2.94,2.03-.53,1.24.2,2.04.94,2.83.72.77,1.68,1.2,2.57,1.72,2.99,1.76,5.96,3.56,8.97,5.29,1.15.66,2.39.27,3.36-.92.99-1.22,1.07-2.38.19-3.46-.6-.73-1.36-1.28-2.17-1.76-2.61-1.56-5.22-3.12-7.83-4.67-.95-.57-1.92-1.09-3.08-1.07Z"/>
          <path class="cls-4" d="M238.63,385.42c-1.17,3.05-5.43,11.12-14.86,17.99-4.13,2.56-8.69,6.36-21.25,10.91-5.28,1.82-20.73,4.09-27.1,4.09s-18.65-2.02-23.52-3.35-12.36-4.3-12.36-4.3c-3.68-1.81-7.23-3.84-10.56-6.25-2.97-2.15-5.51-4.73-7.85-7.52-.35-.42-.29-1.13-.95-1.31-.54-.73-.49-.61-1.63-2.2s-2.14-3.58-3.79-6.46c-.26-.6-.45-1.04-.67-1.56.04-.73-.36-1.35-.66-1.95-.58-1.14-.57-2.13.29-3.1.95-1.07,1.58-2.44,2.95-3.12.29.6.54,1.21.87,1.79,1.47,2.65,3,5.27,4.84,7.69,1.54,2.02,3.22,3.93,5.04,5.7,1.62,1.58,3.47,2.92,5.24,4.34,3.36,2.68,7.08,4.78,10.91,6.62,3.59,1.72,7.35,3.08,11.19,4.18,3.24.93,6.52,1.78,9.85,2.24,3.36.46,6.78.57,10.18.65,2.74.06,5.48.15,8.22-.14,2.51-.27,5.02-.55,7.49-1.08,3.45-.74,6.86-1.67,10.22-2.78,2.69-.88,5.3-1.97,7.92-3.05,2.13-.88,4.09-2.09,6.08-3.23,2.56-1.46,4.84-3.27,7.18-5.03.94-.71,1.69-1.62,2.59-2.37,2.35-1.96,4.35-4.22,6.15-6.7,1.75-2.41,3.15-5.02,4.69-7.56.3-.5.5-1.02.47-1.61.08-.01.16-.03.24-.04,1.01,1.3,2.24,2.42,3.17,3.81.39.58.51,1.01.25,1.63-.44,1.07-.6,1.91-.83,3.06"/>
          <path class="cls-13" d="M242.63,363.09c0-.25.41-.76.37-1.02-.04-.27-.06-.56-.09-.83-.03-.27-.06-.86-.07-1.19s-.12-.89-.17-1.22c-.05-.32,0,0-.05-.39-.05-.39-.07-.55-.11-.83s0,0-.03-.39-.2-.74-.25-1.12c0-.05-.02-.07-.02-.07h-.3c-2.09-.11-2.57.33-3.2-1.91-1.47-5.23-4.16-9.85-7.4-14.11-3.72-4.88-8.11-9.13-12.98-12.9-4.36-3.38-9.14-6.03-14.07-8.41-2.46-1.19-5.12-1.93-7.76-2.66-2.41-.67-4.83-1.29-7.27-1.84-5.01-1.14-10.1-1.39-15.21-1.19-5.55.21-11.02,1.01-16.38,2.53-5.03,1.42-9.77,3.48-14.42,5.85-3.71,1.89-7.14,4.18-10.38,6.74-3.57,2.81-6.88,5.91-9.82,9.42-3.03,3.61-5.49,7.54-7.38,11.84-.89,2.01-1.75,4.03-2.11,6.22-.17,1.02-.99.53-1.54.61-.64.09-.67-.37-.65-.85.04-1.04-.16-2.12-.21-3.17-.72,1.56-1.2,4.67-1.24,4.97-.04.3-.13.94-.17,1.57-.04.64-.05.81-.09,1.18-.09.96-.22,2.22-.3,3.04-.08.82.16,5.01.76,6.72.14.17.28.35.47.58.47-.67.9-1.41,1.8-1.53.72-.09,1.36.14,1.97.54,1.2.81,1.24,1.92.91,3.38-.09.38-.14.64.05.99.53.95.67,2.09,1.47,2.9.99-.37,1.64-1.22,2.48-1.8,3.8-2.64,7.98-4.22,12.52-5.08,4.67-.88,9.36-.95,14.07-.98.8,0,1.6-.13,2.4-.15.56-.01.84-.39,1.12-.75,1.81-2.35,4.35-3.73,6.84-5.16,2.23-1.27,4.63-2.2,7.11-2.93,2.35-.69,4.75-.21,7.13-.73.13-.03.3.1.45.15,3.74-1.58,7.37-1.54,11.05,0,4.17-.07,8.14.47,11.89,2.14,3.04,1.35,6.02,2.94,8.13,5.55,1.31,1.62,2.73,2.04,4.65,1.92,3.38-.21,6.77,0,10.13.24,6.14.43,11.84,2.29,16.84,5.99.8.59,1.49,1.33,2.23,2,.08-.01.16-.03.24-.04.17-.57.26-1.18.54-1.69.68-1.22.78-2.48.67-3.84-.1-1.21.69-2.23,1.71-2.54,1.04-.32,2.08.1,2.81,1.15.07.11.14.24.49.13,0-1.12-.04-2.3.01-3.48.06-1.19.37-3.32.37-3.57Z"/>
          <path class="cls-17" d="M238.22,385.61c.23-1.15.8-2.18,1.24-3.25.26-.62.14-1.05-.25-1.63-.93-1.38-2.15-2.51-3.17-3.81.17-.57.26-1.18.54-1.69.68-1.22.78-2.48.67-3.84-.1-1.21.69-2.23,1.71-2.54,1.04-.32,2.08.1,2.81,1.15.07.11.14.24.49.13,0-1.12-.04-2.3.01-3.48.06-1.19-.21-2.54.18-3.71.17.15.38.41.39.61.33,5.9-.27,11.83-2.31,17.42-.47,1.28-.95,2.56-1.49,3.82-.14.33-.42.67-.81.83Z"/>
          <path class="cls-17" d="M116.67,377.29c-1.37.67-2,2.05-2.95,3.12-.86.97-.87,1.96-.29,3.1.3.6.7,1.21.66,1.95-.73-.93-1.08-2.05-1.41-3.14-.79-2.61-1.5-5.24-2.11-7.9-.35-1.54-.67-3.12-.52-4.73.14.17.28.35.47.58.47-.67.9-1.41,1.8-1.53.72-.09,1.36.14,1.97.54,1.2.81,1.24,1.92.91,3.38-.09.38-.14.64.05.99.53.95.67,2.09,1.47,2.9-.02.24-.05.49-.07.73Z"/>
        </g>
        <path id="Oscar_Right_Whisker" data-name="Oscar Right Whisker" class="cls-1" d="M132.38,384.74c-1.49-.02-2.68-.98-3.1-2.42-.32-1.11.47-2.81,1.73-3.56,2.57-1.55,5.16-3.06,7.72-4.62,1.03-.63,2.06-1.24,3.22-1.59,1.4-.42,3.03.36,3.75,1.79.6,1.2.26,2.51-1.08,3.38-1.93,1.25-3.92,2.41-5.92,3.54-1.57.89-3.06,1.91-4.58,2.86-.57.36-1.15.69-1.74.63Z"/>
        <path id="Oscar_Left_Whisker" data-name="Oscar Left Whisker" class="cls-1" d="M209.71,372.62c1.16-.02,2.13.51,3.08,1.07,2.61,1.55,5.22,3.11,7.83,4.67.81.48,1.57,1.02,2.17,1.76.88,1.08.81,2.24-.19,3.46-.97,1.19-2.21,1.58-3.36.92-3.01-1.73-5.98-3.53-8.97-5.29-.89-.53-1.85-.95-2.57-1.72-.74-.79-1.47-1.59-.94-2.83.54-1.27,1.59-2.02,2.94-2.04Z"/>
        <g id="Oscar_Nose_and_Mouth" data-name="Oscar Nose and Mouth">
          <path class="cls-3" d="M176.44,378.71c-.04-.13-.12-.21-.28-.21-.19,0-.23.14-.29.24s-.93,1.48-1.21,1.81c-.75.81-1.14.95-1.58,1.22s-1.25.65-1.25.65c-1.54.75-3.08,1.04-4.84.85s-3.1-.87-3.1-.87c-3.33-1.38-4.63-4.68-3.54-7.09.16-.36,1.15-1.74,2.64-.14l.41.41c1.47,1.72,3.62,4.11,6.29,2.51.71-.45.98-.55,1.52-1.2s1.74-1.85,1.91-3.53c.06-.55.11-.71-.39-.78-1.68-.25-2.98-1.07-4.23-2.16,0,0-1.91-1.64-2.45-4.26-.03-.56-.06-1.63.19-2.46.37-1.22.9-2.24,1.82-3.19,0,0,1.58-1.62,4.31-2.46,3.45-1.26,7.29-.19,9.28.7,1.24.58,2.07,1.26,2.07,1.26,2.02,1.85,2.9,3.84,2.55,6.86-.07.74-.81,2.84-2.3,3.93-.77.52-2.67,1.6-4.2,1.97-.33.08-.48.39-.42.71.23,1.18.82,2.52,1.52,3.32.62.63.96.92,1.47,1.2,2.22,1.1,4.87.57,6.41-1.61,1.2-1.69,2.12-2.34,3.46-1.07,0,0,.84,1.01.57,2.69-.6,2.23-3.08,4.04-3.53,4.37s-1.74.8-2.85.91c-1.3.06-2.27.1-3.77-.23-1.72-.38-2.58-.55-3.97-1.54-.18-.15-.69-.43-1.06-.86-.26-.35-.66-.87-1.16-1.92ZM175.69,364.13c1.15.04,2.09.05,2.96-.38,1.13-.56,1.34-1.83.47-2.74-1.42-1.47-4.99-1.42-6.34.09-.8.89-.57,2.04.49,2.56.83.41,1.72.49,2.42.47Z"/>
          <path class="cls-6" d="M175.69,364.13c-.7.03-1.58-.06-2.42-.47-1.07-.53-1.29-1.67-.49-2.56,1.35-1.51,4.92-1.56,6.34-.09.87.91.66,2.18-.47,2.74-.87.43-1.81.42-2.96.38Z"/>
        </g>
        <g id="Oscar_Eyes" data-name="Oscar Eyes">
          <g id="Oscar_Right_Eye" data-name="Oscar Right Eye">
            <path class="cls-3" d="M206.09,361.19c-3.74-.01-6.78-3.38-6.78-7.5,0-4.15,3.33-7.42,7.51-7.39,3.84.03,7.08,3.49,7.06,7.56-.02,4.21-3.35,7.34-7.79,7.33Z"/>
            <circle class="cls-18" cx="209.95" cy="350.66" r="1.53"/>
          </g>
          <g id="Oscar_Left_Eye" data-name="Oscar Left Eye">
            <path class="cls-3" d="M152.17,353.76c.05,4.27-3.04,7.39-7.36,7.43-3.85.04-7.29-3.38-7.29-7.32,0-4.33,3.08-7.44,7.09-7.61,4.28-.17,7.51,3.12,7.57,7.49Z"/>
            <circle class="cls-18" cx="148.04" cy="351.1" r="1.72"/>
          </g>
        </g>
        <path id="Outline" class="cls-3" d="M176.23,422.03c-19.5,0-37.87-6.1-51.71-17.16-14.09-11.26-21.84-26.3-21.84-42.36s7.76-31.1,21.84-42.36c13.85-11.07,32.22-17.16,51.71-17.16s37.87,6.1,51.71,17.16c14.09,11.26,21.84,26.3,21.84,42.36s-7.76,31.1-21.84,42.36c-13.85,11.07-32.22,17.16-51.71,17.16ZM176.23,310.23c-36.57,0-66.32,23.45-66.32,52.28s29.75,52.28,66.32,52.28,66.32-23.45,66.32-52.28-29.75-52.28-66.32-52.28Z"/>
      </g>
      <g id="Glasses">
        <g id="Nosebit">
          <path class="cls-10" d="M192.4,348.21s-1.86-2.71-14.56-3.85c-11.54-.21-14.56,3.85-14.56,3.85v-8s4.67-2.97,14.75-2.43,14.38,2.43,14.38,2.43v8Z"/>
          <path class="cls-15" d="M177.84,341.86c-11.54-.17-14.56,3.11-14.56,3.11v2.68s3.02-3.28,14.56-3.11c12.7.92,14.56,3.11,14.56,3.11v-2.68s-1.86-2.18-14.56-3.11Z"/>
        </g>
        <g id="Left_Lens" data-name="Left Lens">
          <circle class="cls-7" cx="139.98" cy="351.54" r="23.39"/>
          <path class="cls-19" d="M139.92,378.41c-14.82,0-26.87-12.06-26.87-26.87s12.06-26.87,26.87-26.87c8.16,0,14.65,2.15,19.27,6.4,5.04,4.64,7.6,11.52,7.6,20.47,0,14.82-12.06,26.87-26.87,26.87ZM139.92,330.64c-11.52,0-20.9,9.38-20.9,20.9s9.38,20.9,20.9,20.9,20.9-9.38,20.9-20.9c0-13.87-7.03-20.9-20.9-20.9Z"/>
          <path class="cls-5" d="M160.63,354.6c-1.4,10.17-10.15,18.03-20.7,18.03s-19.19-7.77-20.68-17.85c-2.37-2.02-4.37-4.39-5.9-7.01-.19,1.29-.29,2.61-.29,3.96,0,14.82,12.06,26.87,26.87,26.87s26.87-12.06,26.87-26.87c0-1.53-.08-2.99-.23-4.4-1.52,2.72-3.54,5.17-5.95,7.27Z"/>
        </g>
        <g id="Right_lens" data-name="Right lens">
          <circle class="cls-7" cx="214.15" cy="351.54" r="23.39"/>
          <path class="cls-19" d="M214.32,378.41c-14.82,0-26.87-12.06-26.87-26.87,0-8.66,2.9-15.76,8.38-20.52,4.71-4.09,11.28-6.35,18.49-6.35,14.82,0,26.87,12.06,26.87,26.87s-12.06,26.87-26.87,26.87ZM214.32,330.64c-5.77,0-10.95,1.73-14.57,4.88-4.2,3.65-6.33,9.04-6.33,16.02,0,11.52,9.38,20.9,20.9,20.9s20.9-9.38,20.9-20.9-9.38-20.9-20.9-20.9Z"/>
          <path class="cls-5" d="M233.34,360.4c-3.3,7.21-10.58,12.23-19.01,12.23-11.52,0-20.9-9.38-20.9-20.9,0-2.76.34-5.27,1-7.52-1.09-2.79-1.69-5.78-1.69-8.9,0-.28.01-.54.02-.82-3.48,4.52-5.3,10.39-5.3,17.24,0,14.82,12.06,26.87,26.87,26.87,13.12,0,24.01-9.4,26.35-21.85-2.24,1.53-4.67,2.73-7.34,3.65Z"/>
        </g>
      </g>
      <g id="Michael_Hat" data-name="Michael Hat">
        <g>
          <path class="cls-11" d="M122.61,291.34c-.05-.92-.39-1.42,0-2.35l54.27-18.02c.15-.04.31-.04.46,0l53.88,17.8c.77.82.78,1.79-.15,2.05l-53.96,14.1-54.5-13.57Z"/>
          <path class="cls-3" d="M176.86,306.37l-53.95-14.95c-.93-.26-.92-1.58.02-1.82l53.95-17.1c.15-.04.31-.04.46,0l53.95,17.1c.94.24.95,1.56.02,1.82l-53.95,14.95c-.16.05-.34.05-.5,0Z"/>
          <path class="cls-19" d="M231.29,288.76l-53.88-17.8c-.15-.04-.31-.04-.46,0l-1.02.34v33.3l1.25.31,53.96-14.1c.93-.26.93-1.22.15-2.05Z"/>
          <path class="cls-16" d="M230.92,289.7l-53.95-17.1c-.15-.04-.31-.04-.46,0l-.59.19v33.53l.57.16c.16.05.34.05.5,0l53.95-14.95c.93-.26.92-1.58-.02-1.82Z"/>
          <path class="cls-5" d="M208.35,316.12c0,.78-.63,1.35-1.28,1.15-1.78-.55-5.16-1.48-8.3-1.82-4.39-.47-10.43-1.41-21.11,2.85-.78.31-1.62.33-2.41.04-10.53-3.82-14.89-4.63-20.33-4.25-3.75.26-7.07,1.75-8.89,2.73-.68.36-1.45-.21-1.45-1.08v-23.49c0-.58.36-1.08.85-1.18,2.13-.43,7.79-1.53,11.08-1.93,4.11-.5,14.01-1.24,19.96-1.24s14.01,1.05,20.46,1.92c4.8.65,8.78,1.12,10.51,1.32.52.06.92.57.92,1.19v23.79Z"/>
          <path class="cls-19" d="M176.33,289.59c-5.4,0-14.04.54-18.67.98v21.94c4.34.08,8.82,1.43,17.45,4.21.71.24,1.25.58,2.45.03.29-.13.52-.2.84-.32v-26.8c-.71-.02-1.4-.03-2.06-.03Z"/>
          <path class="cls-3" d="M176.39,320.08c-.52,0-1.04-.09-1.53-.27-9.98-3.62-14.43-4.56-19.87-4.19-3.6.25-6.82,1.73-8.42,2.59-.72.39-1.56.32-2.23-.18-.67-.5-1.07-1.36-1.07-2.29v-23.49c0-1.33.81-2.46,1.93-2.68,2.26-.45,7.87-1.54,11.17-1.94,4.21-.51,14.13-1.25,20.09-1.25s13.72,1,20.61,1.93c4.88.66,8.96,1.14,10.48,1.31,1.2.14,2.1,1.3,2.1,2.71v23.79c0,.85-.33,1.63-.9,2.15-.57.52-1.31.69-2.01.48-1.71-.52-5.02-1.45-8.09-1.77l-.66-.07c-4.23-.47-10.02-1.1-19.91,2.85-.54.22-1.11.33-1.69.33ZM157.16,312.49c4.85,0,9.55,1.16,18.47,4.4.52.19,1.09.18,1.6-.03,10.42-4.16,16.54-3.49,21-3l.65.07c3.05.33,6.29,1.2,8.16,1.75v-23.05c-1.99-.23-5.75-.68-10.27-1.29-6.82-.93-14.57-1.91-20.31-1.91s-15.67.73-19.82,1.24c-3.12.38-8.39,1.4-10.76,1.87v22.69c1.87-.97,5.21-2.4,8.95-2.66.79-.05,1.56-.08,2.33-.08Z"/>
          <path class="cls-8" d="M154.91,309.31c5.45-.33,9.8.38,20.33,3.76.79.25,1.63.24,2.41-.04,10.68-3.77,16.72-2.94,21.11-2.52,3.13.3,6.49,1.12,8.28,1.6v-5.92c-1.79-.48-5.15-1.3-8.28-1.6-4.43-.42-10.55-1.27-21.43,2.63-.57.21-1.2.21-1.78.03-10.76-3.47-15.15-4.2-20.65-3.87-3.85.23-7.25,1.62-9.03,2.48v5.91s.09-.03.14-.05c1.81-.86,5.13-2.19,8.89-2.42Z"/>
          <path class="cls-12" d="M177.34,307.22c-.57.21-1.2.21-1.78.03-8.93-2.88-13.47-3.87-17.9-3.94v5.92c4.38.06,8.87,1.03,17.59,3.83.79.25,1.63.24,2.41-.04.46-.16.91-.31,1.35-.46v-5.92c-.54.18-1.1.37-1.66.57Z"/>
        </g>
        <g id="Tissle_thingy" data-name="Tissle thingy">
          <g>
            <path class="cls-8" d="M148.4,280.42l-4.19,1.39s-3.74,3.51-5.01,9.95c-1.27,6.44.95,13.56.53,16.89s-.93,5.53-.93,5.53h-2.15s1.08-4.97.89-6.92c-.65-6.53-1.76-7.58-.8-16.05,2.08-7.96,3.44-9.17,4.15-10.42.63-1.11,2.06-2.02,2.9-2.02,4.77,0,4.62,1.65,4.62,1.65Z"/>
            <path class="cls-12" d="M143.84,278.77c-.83,0-2.27.91-2.9,2.02-.63,1.12-1.77,2.19-3.47,7.99.43-.08.87-.08,1.29,0,.41.08.79.24,1.15.46,1.58-4.82,4.35-7.43,4.35-7.43l4.19-1.39s.16-1.65-4.62-1.65Z"/>
            <path class="cls-9" d="M139.12,314.58h-2.97l.11-.49s1.07-4.93.88-6.8c-.19-1.88-.42-3.32-.62-4.59-.5-3.18-.87-5.48-.18-11.55v-.06c1.78-6.78,3.06-8.75,3.83-9.93.14-.21.26-.4.37-.59.66-1.16,2.2-2.22,3.25-2.22h0c2.37,0,3.92.4,4.63,1.18.4.44.38.84.37.92l-.03.26-4.35,1.45c-.48.48-3.69,3.89-4.83,9.67-.77,3.87-.24,8.05.19,11.42.28,2.2.52,4.1.35,5.45-.42,3.31-.93,5.55-.94,5.57l-.07.31ZM137.15,313.78h1.33c.15-.72.53-2.62.85-5.18.16-1.25-.08-3.1-.35-5.24-.43-3.42-.97-7.68-.18-11.67,1.28-6.49,4.97-10.01,5.13-10.16l.06-.06,3.91-1.3c-.29-.4-1.32-.99-4.11-.99h0c-.69,0-2,.84-2.55,1.81-.12.2-.25.41-.4.64-.74,1.14-1.97,3.04-3.71,9.66-.68,5.94-.32,8.19.18,11.3.2,1.28.43,2.73.62,4.63.16,1.65-.52,5.24-.79,6.56Z"/>
          </g>
          <g id="Tassles">
            <g>
              <path class="cls-8" d="M138.38,315.03s.19,4.19.75,6.41,1.42,5.99,2.01,5.98,1.02-.52,1.22-.89-.1-3.25-.39-4.33-.72-3.12-1.1-4.16c-.29-.78-1.55-3.95-2.02-3.48l-.47.47Z"/>
              <path class="cls-2" d="M141.13,327.81c-.68,0-1.09-1.05-2.21-5.55l-.18-.72c-.56-2.23-.75-6.31-.76-6.48v-.17s.58-.59.58-.59c.14-.14.32-.19.51-.15.77.17,1.76,2.7,2.16,3.77.26.72.54,1.88.79,2.9.12.49.23.94.32,1.29.25.93.66,4.06.36,4.62-.28.52-.84,1.08-1.56,1.09h0ZM138.78,315.18c.04.81.25,4.25.73,6.16l.18.73c.36,1.46,1.1,4.46,1.53,4.95.35-.05.64-.38.79-.67.11-.35-.13-2.97-.43-4.04-.1-.36-.21-.82-.33-1.31-.24-1-.52-2.13-.76-2.81-.46-1.26-1.16-2.76-1.52-3.19l-.2.2Z"/>
            </g>
            <g>
              <path class="cls-8" d="M136.96,314.94s-.99,4.29-.86,6.59.24,6.2,1.08,6.22,1.63-.48,2.02-.85.84-3.33.74-4.45-.1-3.23-.33-4.31c-.17-.82-1.03-4.12-1.84-3.66l-.81.46Z"/>
              <path class="cls-2" d="M137.24,328.14s-.04,0-.06,0c-.97-.02-1.21-1.74-1.43-5.84l-.04-.75c-.13-2.33.83-6.53.87-6.7l.04-.17.96-.54c.2-.12.44-.12.65-.03,1,.45,1.69,3.59,1.77,3.95.16.76.21,1.96.26,3.03.02.5.04.97.07,1.33.08.95-.29,4.23-.87,4.77-.5.47-1.34.95-2.24.95ZM137.31,315.19c-.18.8-.93,4.35-.82,6.32l.04.75c.07,1.43.25,4.77.71,5.11h0c.63,0,1.3-.4,1.68-.76.26-.33.71-3.03.62-4.13-.03-.37-.05-.85-.07-1.36-.05-1.03-.1-2.2-.24-2.9-.34-1.59-.99-3.27-1.32-3.4l-.6.36Z"/>
            </g>
            <g>
              <path class="cls-8" d="M135.97,314.79s-1.5,4-1.78,6.28-.84,6.11-.17,6.31,1.37-.14,1.74-.42,1.22-3.09,1.33-4.2.46-3.18.45-4.28c0-.84-.13-4.24-.86-3.96l-.72.28Z"/>
              <path class="cls-2" d="M134.44,327.83c-.17,0-.35-.02-.52-.07-.79-.23-.74-1.77-.2-5.99l.09-.74c.28-2.3,1.74-6.2,1.8-6.37l.06-.16.89-.35c.19-.07.4-.05.57.06.75.51.82,3.39.82,4.26,0,.77-.15,1.95-.29,3-.07.5-.13.96-.16,1.33-.1.96-.92,4.06-1.48,4.48-.39.29-.97.55-1.57.55ZM134.19,327.01c.48.1,1.01-.13,1.34-.37.27-.29,1.06-2.82,1.17-3.93.04-.37.1-.84.17-1.35.14-1.02.29-2.18.29-2.89,0-1.37-.19-3.12-.44-3.55l-.44.17c-.28.77-1.46,4.08-1.7,6.02l-.09.75c-.19,1.5-.58,4.59-.3,5.15Z"/>
            </g>
          </g>
          <g>
            <circle class="cls-8" cx="138.06" cy="313.78" r="1.97"/>
            <path class="cls-14" d="M138.06,316.15c-1.31,0-2.38-1.07-2.38-2.38s1.07-2.38,2.38-2.38,2.38,1.07,2.38,2.38-1.07,2.38-2.38,2.38ZM138.06,312.21c-.87,0-1.57.71-1.57,1.57s.71,1.57,1.57,1.57,1.57-.71,1.57-1.57-.71-1.57-1.57-1.57Z"/>
          </g>
        </g>
      </g>
    </g>
  </g>
  <g id="Wordmark">
    <g>
      <path class="cls-3" d="M285.05,337.74v-48.26l2.75-.12c1-.04,2.13-.07,3.36-.07h7.65c1.25,0,2.39.02,3.39.07,4.96.1,9.06,1.51,12.11,4.21,3.17,2.8,4.78,6.7,4.78,11.6,0,3.42-.79,6.48-2.36,9.09-1.57,2.63-3.77,4.69-6.51,6.13-2.69,1.41-5.79,2.12-9.24,2.12h-1.28v15.23h-14.66ZM300.6,309.2c1.93,0,2.62-.7,2.84-.93.63-.64.94-1.57.94-2.85,0-1.61-.24-2.75-3.33-2.75h-1.34v6.53h.9Z"/>
      <path class="cls-3" d="M348.03,338.57c-4.72,0-8.94-1.06-12.54-3.14-3.64-2.1-6.5-5.07-8.52-8.85-1.99-3.71-3-8.04-3-12.85s1.01-9.26,3-12.95c2.02-3.75,4.88-6.71,8.52-8.81,3.61-2.08,7.83-3.14,12.54-3.14s8.92,1.04,12.53,3.1c3.64,2.08,6.5,5.03,8.5,8.76,1.97,3.67,2.97,7.97,2.97,12.78s-.99,9.26-2.95,12.99c-2,3.8-4.85,6.8-8.49,8.92-3.61,2.11-7.83,3.18-12.56,3.18ZM347.79,302.79c-1.64,0-3.01.39-4.21,1.18-1.29.86-2.29,2.07-3.05,3.69-.8,1.69-1.2,3.74-1.2,6.07s.39,4.38,1.17,6.05c.74,1.59,1.73,2.78,3.03,3.64,1.28.84,2.75,1.25,4.5,1.25,2.7,0,4.68-.87,6.23-2.74,1.66-2,2.47-4.69,2.47-8.21,0-2.34-.4-4.39-1.18-6.09-.74-1.61-1.73-2.8-3.03-3.66-1.22-.8-2.61-1.19-4.25-1.19h-.48Z"/>
      <path class="cls-3" d="M401.92,338.57c-7.52,0-13.56-2.12-17.95-6.3-4.44-4.22-6.69-10.15-6.69-17.64,0-5.1,1.03-9.64,3.05-13.47,2.06-3.9,5.01-6.99,8.78-9.18,3.74-2.17,8.11-3.27,13-3.27,2.01,0,3.99.19,5.88.57,1.86.37,3.67.89,5.38,1.54l2.3.87-2.97,14.19-3.27-1.49c-1.24-.56-2.49-1-3.71-1.29-1.18-.29-2.37-.43-3.54-.43-3.08,0-5.4.93-7.08,2.86-1.78,2.04-2.65,4.72-2.65,8.22s.9,6.17,2.74,8.01c1.84,1.84,4.42,2.74,7.88,2.74,1.11,0,2.3-.1,3.52-.31,1.24-.21,2.47-.51,3.66-.89l3.14-1.01,2.41,13.46-2.22.85c-3.43,1.32-7.35,1.98-11.65,1.98Z"/>
      <polygon class="cls-3" points="445.52 337.74 437.05 326.34 437.05 337.74 422.01 337.74 422.01 289.36 437.05 289.36 437.05 300.85 446.72 289.36 465.44 289.36 445.29 312.6 463.96 337.74 445.52 337.74"/>
      <polygon class="cls-3" points="466.24 337.74 466.24 289.36 497.92 289.36 497.92 303.18 481.15 303.18 481.15 305.93 495.04 305.93 495.04 319.5 481.15 319.5 481.15 323.91 497.92 323.91 497.92 337.74 466.24 337.74"/>
      <polygon class="cls-3" points="514.75 337.74 514.75 303.18 503.1 303.18 503.1 289.36 541.37 289.36 541.37 303.18 529.85 303.18 529.85 337.74 514.75 337.74"/>
      <path class="cls-3" d="M285.44,402.07v-48.26l2.75-.12c1-.04,2.13-.07,3.36-.07h7.65c1.25,0,2.39.02,3.39.07,4.96.1,9.06,1.51,12.11,4.21,3.17,2.8,4.78,6.7,4.78,11.6,0,3.42-.79,6.48-2.36,9.09-1.58,2.63-3.77,4.69-6.51,6.13-2.69,1.41-5.8,2.12-9.24,2.12h-1.28v15.23h-14.66ZM300.99,373.53c1.93,0,2.62-.7,2.84-.93.63-.64.93-1.57.93-2.85,0-1.61-.24-2.75-3.33-2.75h-1.34v6.53h.9Z"/>
      <path class="cls-3" d="M347.2,402.07l-7.5-13.93v13.93h-14.66v-48.26l2.76-.12c1.04-.04,2.2-.07,3.45-.07h7.74c1.29,0,2.46.02,3.46.07,5.73.19,10.08,1.71,12.91,4.51,2.86,2.83,4.31,6.46,4.31,10.78,0,3.72-.99,6.97-2.95,9.66-1.11,1.53-2.48,2.78-4.07,3.74.09.12.18.24.27.37.98,1.37,2.25,3.29,3.88,5.88.81,1.24,1.52,2.39,2.08,3.37.53.93,1.04,1.82,1.55,2.69.52.89,1.11,1.93,1.76,3.1l2.37,4.28h-17.37ZM340.8,372.57c1.48,0,2.58-.31,3.26-.93.42-.38.9-.98.9-2.33,0-1.11,0-2.37-3.65-2.37h-1.6v5.63h1.09Z"/>
      <path class="cls-3" d="M388.16,402.91c-4.72,0-8.94-1.06-12.54-3.14-3.64-2.1-6.5-5.07-8.52-8.85-1.99-3.71-3-8.04-3-12.85s1.01-9.25,3-12.95c2.02-3.75,4.89-6.71,8.52-8.81,3.61-2.08,7.83-3.14,12.54-3.14s8.92,1.04,12.53,3.1c3.64,2.08,6.5,5.03,8.5,8.76,1.97,3.67,2.97,7.97,2.97,12.78s-.99,9.26-2.95,12.99c-2,3.8-4.85,6.8-8.49,8.92-3.61,2.11-7.83,3.18-12.56,3.18ZM387.91,367.13c-1.64,0-3.01.39-4.21,1.18-1.29.86-2.29,2.07-3.06,3.69-.79,1.69-1.2,3.74-1.2,6.07s.39,4.38,1.17,6.05c.74,1.59,1.73,2.78,3.04,3.64,1.28.84,2.75,1.25,4.5,1.25,2.7,0,4.68-.87,6.23-2.74,1.66-2,2.47-4.69,2.47-8.21,0-2.34-.4-4.39-1.18-6.09-.74-1.61-1.73-2.8-3.03-3.66-1.22-.8-2.61-1.19-4.25-1.19h-.48Z"/>
      <polygon class="cls-3" points="418.3 402.07 418.3 353.69 450.11 353.69 450.11 367.51 433.34 367.51 433.34 371.48 447.23 371.48 447.23 385.24 433.34 385.24 433.34 402.07 418.3 402.07"/>
      <path class="cls-3" d="M459.64,404.25c-2.54,0-4.85-.97-6.68-2.8-1.83-1.83-2.79-4.13-2.79-6.68s.97-4.91,2.8-6.74c1.83-1.83,4.14-2.79,6.68-2.79s4.91.97,6.72,2.81c1.82,1.85,2.75,4.12,2.75,6.72s-.95,4.83-2.75,6.66c-1.81,1.84-4.13,2.81-6.72,2.81Z"/>
      <path class="cls-19" d="M287.93,334.86v-42.62c.94-.04,2.02-.06,3.23-.06h7.65c1.24,0,2.33.02,3.26.06,4.35.09,7.8,1.25,10.34,3.49,2.54,2.24,3.81,5.39,3.81,9.44,0,2.9-.65,5.44-1.95,7.62-1.3,2.18-3.09,3.86-5.38,5.06-2.28,1.2-4.92,1.79-7.9,1.79h-4.16v15.23h-8.9ZM296.83,312.08h3.78c2.09,0,3.72-.6,4.9-1.79,1.17-1.19,1.76-2.82,1.76-4.86,0-3.75-2.07-5.63-6.21-5.63h-4.22v12.29Z"/>
      <path class="cls-19" d="M348.03,335.69c-4.22,0-7.93-.92-11.1-2.75-3.18-1.83-5.65-4.41-7.42-7.71-1.77-3.31-2.66-7.14-2.66-11.49s.88-8.3,2.66-11.58c1.77-3.29,4.25-5.84,7.42-7.68,3.18-1.83,6.88-2.75,11.1-2.75s7.92.91,11.1,2.72c3.18,1.81,5.64,4.35,7.39,7.62,1.75,3.26,2.62,7.07,2.62,11.42s-.88,8.32-2.62,11.65c-1.75,3.33-4.21,5.92-7.39,7.78-3.18,1.86-6.88,2.78-11.1,2.78ZM348.03,327.56c3.54,0,6.36-1.26,8.45-3.78,2.09-2.52,3.14-5.87,3.14-10.05,0-2.77-.48-5.21-1.44-7.3-.96-2.09-2.31-3.71-4.06-4.86-1.75-1.15-3.78-1.71-6.08-1.66-2.3-.04-4.32.51-6.05,1.66-1.73,1.15-3.08,2.77-4.06,4.86-.98,2.09-1.47,4.52-1.47,7.3s.48,5.2,1.44,7.26c.96,2.07,2.31,3.68,4.06,4.83,1.75,1.15,3.78,1.73,6.08,1.73Z"/>
      <path class="cls-19" d="M401.92,335.69c-6.78,0-12.11-1.83-15.97-5.5-3.86-3.67-5.79-8.85-5.79-15.55,0-4.65.91-8.69,2.72-12.13,1.81-3.43,4.37-6.11,7.68-8.03,3.31-1.92,7.16-2.88,11.55-2.88,1.83,0,3.6.17,5.31.51,1.71.34,3.35.81,4.93,1.41l-1.73,8.26c-1.41-.64-2.82-1.13-4.22-1.47-1.41-.34-2.82-.51-4.22-.51-3.93,0-7.01,1.28-9.25,3.84-2.24,2.56-3.36,5.93-3.36,10.11s1.19,7.66,3.58,10.05c2.39,2.39,5.7,3.58,9.92,3.58,1.28,0,2.61-.12,4-.35,1.39-.23,2.74-.57,4.06-.99l1.41,7.87c-3.12,1.19-6.66,1.79-10.62,1.79Z"/>
      <path class="cls-19" d="M424.89,334.86v-42.62h9.28v16.51l13.89-16.51h11.07l-17.54,20.22,16.64,22.4h-11.26l-12.8-17.22v17.22h-9.28Z"/>
      <path class="cls-19" d="M469.12,334.86v-42.62h25.92v8.06h-16.77v8.51h13.89v7.81h-13.89v10.18h16.77v8.06h-25.92Z"/>
      <path class="cls-19" d="M517.63,334.86v-34.56h-11.65v-8.06h32.51v8.06h-11.52v34.56h-9.34Z"/>
      <path class="cls-19" d="M288.32,399.19v-42.62c.94-.04,2.02-.06,3.23-.06h7.65c1.24,0,2.32.02,3.26.06,4.35.09,7.8,1.25,10.34,3.49,2.54,2.24,3.81,5.39,3.81,9.44,0,2.9-.65,5.44-1.95,7.62-1.3,2.18-3.09,3.86-5.38,5.06-2.28,1.2-4.92,1.79-7.9,1.79h-4.16v15.23h-8.9ZM297.21,376.41h3.78c2.09,0,3.72-.6,4.9-1.79,1.17-1.19,1.76-2.82,1.76-4.86,0-3.75-2.07-5.63-6.21-5.63h-4.22v12.29Z"/>
      <path class="cls-19" d="M327.93,399.19v-42.62c.98-.04,2.09-.06,3.33-.06h7.74c1.28,0,2.39.02,3.33.06,5.03.17,8.7,1.4,11.01,3.68,2.3,2.28,3.46,5.2,3.46,8.74,0,3.12-.8,5.77-2.4,7.97-1.6,2.2-3.83,3.66-6.69,4.38.98.77,1.94,1.8,2.88,3.1.94,1.3,2.2,3.21,3.78,5.73.81,1.24,1.48,2.33,2.02,3.26.53.94,1.06,1.85,1.57,2.72.51.88,1.09,1.89,1.73,3.04h-10.75l-7.23-13.44c-.81-1.49-1.54-2.4-2.18-2.72-.64-.32-1.54-.48-2.69-.48v16.64h-8.9ZM336.83,375.45h3.97c2.22,0,3.95-.55,5.18-1.66,1.24-1.11,1.86-2.6,1.86-4.48,0-3.5-2.18-5.25-6.53-5.25h-4.48v11.39Z"/>
      <path class="cls-19" d="M388.16,400.03c-4.22,0-7.93-.92-11.1-2.75-3.18-1.83-5.65-4.41-7.42-7.71s-2.66-7.14-2.66-11.49.89-8.3,2.66-11.58c1.77-3.29,4.25-5.84,7.42-7.68,3.18-1.83,6.88-2.75,11.1-2.75s7.92.91,11.1,2.72c3.18,1.81,5.64,4.35,7.39,7.62,1.75,3.26,2.62,7.07,2.62,11.42s-.88,8.32-2.62,11.65c-1.75,3.33-4.21,5.92-7.39,7.78-3.18,1.86-6.88,2.78-11.1,2.78ZM388.16,391.9c3.54,0,6.36-1.26,8.45-3.78,2.09-2.52,3.14-5.87,3.14-10.05,0-2.77-.48-5.21-1.44-7.3-.96-2.09-2.31-3.71-4.06-4.86-1.75-1.15-3.78-1.71-6.08-1.66-2.3-.04-4.32.51-6.05,1.66-1.73,1.15-3.08,2.77-4.06,4.86-.98,2.09-1.47,4.52-1.47,7.3s.48,5.2,1.44,7.26c.96,2.07,2.31,3.68,4.06,4.83,1.75,1.15,3.78,1.73,6.08,1.73Z"/>
      <path class="cls-19" d="M421.18,399.19v-42.62h26.05v8.06h-16.77v9.73h13.89v8h-13.89v16.83h-9.28Z"/>
      <path class="cls-19" d="M459.64,401.37c-1.79,0-3.34-.65-4.64-1.95-1.3-1.3-1.95-2.85-1.95-4.64s.65-3.4,1.95-4.7c1.3-1.3,2.85-1.95,4.64-1.95s3.39.65,4.67,1.95c1.28,1.3,1.92,2.87,1.92,4.7s-.64,3.34-1.92,4.64c-1.28,1.3-2.84,1.95-4.67,1.95Z"/>
    </g>
    <g id="Livery" class="cls-20">
      <rect class="cls-3" x="53.78" y="519.77" width="507.61" height="1.85"/>
      <rect class="cls-3" x="50.61" y="598.34" width="507.61" height="1.85"/>
    </g>
  </g>
</svg>