<?xml version="1.0" encoding="UTF-8"?>
<svg id="Layer_1" data-name="Layer 1" xmlns="http://www.w3.org/2000/svg" version="1.1" viewBox="0 0 498 333.6">
  <defs>
    <style>
      .cls-1 {
        fill: #f9df74;
      }

      .cls-1, .cls-2, .cls-3, .cls-4, .cls-5, .cls-6, .cls-7, .cls-8 {
        stroke-width: 0px;
      }

      .cls-2 {
        fill: #433479;
      }

      .cls-3 {
        fill: #372b62;
      }

      .cls-4 {
        fill: #ccbfed;
      }

      .cls-5 {
        fill: #f9eec2;
      }

      .cls-6 {
        fill: #181632;
      }

      .cls-7 {
        fill: #494170;
      }

      .cls-8 {
        fill: #656386;
      }
    </style>
  </defs>
  <g id="Backdrops">
    <rect class="cls-4" width="498" height="333.6"/>
  </g>
  <g id="Home_Icon_2" data-name="Home Icon 2">
    <g id="Michael_Hat" data-name="Michael Hat">
      <g>
        <path class="cls-6" d="M29.5,124.9c-.2-4.6-1.6-7.1,0-11.8L248.1,22.6c.6-.2,1.2-.2,1.9,0l217,89.3c3.1,4.1,3.1,9-.6,10.3l-217.4,70.8L29.5,124.9Z"/>
        <path class="cls-3" d="M248,200.3L30.7,125.2c-3.8-1.3-3.7-7.9,0-9.1L248.1,30.3c.6-.2,1.2-.2,1.9,0l217.3,85.8c3.8,1.2,3.8,7.8,0,9.1l-217.3,75c-.7.2-1.4.2-2,0h0Z"/>
        <path class="cls-8" d="M467.2,111.9L250.2,22.6c-.6-.2-1.2-.2-1.9,0l-4.1,1.7v167l5,1.6,217.4-70.8c3.8-1.3,3.7-6.1.6-10.3h0Z"/>
        <path class="cls-2" d="M465.7,116.6L248.4,30.8c-.6-.2-1.2-.2-1.9,0l-2.4.9v168.2l2.3.8c.7.2,1.4.2,2,0l217.3-75c3.8-1.3,3.7-7.9,0-9.1h0Z"/>
        <path class="cls-7" d="M374.8,249.2c0,3.9-2.5,6.8-5.1,5.8-7.2-2.7-20.8-7.4-33.5-9.1-17.7-2.4-42-7.1-85.1,14.3-3.1,1.6-6.5,1.6-9.7.2-42.4-19.2-60-23.2-81.9-21.3-15.1,1.3-28.5,8.8-35.8,13.7-2.7,1.8-5.8-1.1-5.8-5.4v-117.9c0-2.9,1.4-5.4,3.4-5.9,8.6-2.1,31.4-7.7,44.6-9.7,16.6-2.5,56.4-6.2,80.4-6.2s56.5,5.3,82.4,9.7c19.3,3.3,35.4,5.6,42.3,6.6,2.1.3,3.7,2.9,3.7,5.9v119.3h0Z"/>
        <path class="cls-8" d="M245.8,116.1c-21.7,0-56.6,2.7-75.2,4.9v110c17.5.4,35.5,7.2,70.3,21.1,2.9,1.2,5,2.9,9.9.2,1.1-.7,2.1-1,3.4-1.6V116.2c-2.9-.1-5.6-.2-8.3-.2Z"/>
        <path class="cls-3" d="M246.1,269c-2.1,0-4.2-.5-6.2-1.4-40.2-18.2-58.1-22.9-80-21-14.5,1.2-27.5,8.7-33.9,13-2.9,2-6.3,1.6-9-.9s-4.3-6.8-4.3-11.5v-117.9c0-6.7,3.3-12.3,7.8-13.4,9.1-2.3,31.7-7.7,45-9.8,16.9-2.6,56.9-6.3,80.9-6.3s55.3,5,83,9.7c19.6,3.3,36.1,5.7,42.2,6.6,4.8.7,8.5,6.5,8.5,13.6v119.3c0,4.3-1.3,8.2-3.6,10.8-2.3,2.6-5.3,3.5-8.1,2.4-6.9-2.6-20.2-7.2-32.6-8.9l-2.7-.4c-17-2.3-40.4-5.5-80.2,14.3-2.2,1.1-4.5,1.6-6.8,1.6h0ZM168.6,231c19.5,0,38.4,5.8,74.4,22.1,2.1.9,4.4.9,6.5-.1,42-20.9,66.6-17.5,84.6-15l2.6.4c12.3,1.6,25.4,6,32.9,8.8v-115.7c-8-1.1-23.2-3.4-41.4-6.5-27.5-4.7-58.7-9.6-81.8-9.6s-63.1,3.7-79.8,6.2c-12.6,1.9-33.8,7-43.3,9.4v113.9c7.5-4.8,21-12,36.1-13.3,3.2-.3,6.3-.4,9.4-.4h0Z"/>
        <path class="cls-1" d="M159.6,215c21.9-1.7,39.5,1.9,81.9,18.9,3.2,1.3,6.6,1.2,9.7-.2,43-18.9,67.4-14.7,85-12.7,12.6,1.5,26.1,5.6,33.3,8v-29.7c-7.2-2.4-20.7-6.5-33.3-8-17.9-2.1-42.5-6.4-86.3,13.2-2.3,1-4.8,1.1-7.2.1-43.3-17.4-61-21.1-83.2-19.4-15.5,1.2-29.2,8.1-36.4,12.5v29.6c.2,0,.4-.2.6-.3,7.3-4.3,20.7-11,35.8-12.1h0Z"/>
        <path class="cls-5" d="M249.9,204.5c-2.3,1-4.8,1.1-7.2.1-36-14.4-54.3-19.4-72.1-19.7v29.7c17.6.3,35.7,5.2,70.8,19.2,3.2,1.3,6.6,1.2,9.7-.2,1.9-.8,3.6-1.6,5.4-2.3v-29.7c-2.2.9-4.4,1.8-6.7,2.9h0Z"/>
      </g>
      <g id="Tissle_thingy" data-name="Tissle thingy">
        <g>
          <path class="cls-5" d="M133.4,70.1l-16.9,7s-15.1,17.6-20.2,49.9c-5.1,32.3,3.8,68,2.1,84.7-1.7,16.7-3.7,27.7-3.7,27.7h-8.7s4.4-24.9,3.6-34.7c-2.6-32.8-7.1-38.1-3.2-80.5,8.4-39.9,13.8-46,16.7-52.3,2.5-5.6,8.3-10.1,11.7-10.1,19.2,0,18.6,8.3,18.6,8.3h0Z"/>
          <path class="cls-5" d="M115,61.8c-3.4,0-9.1,4.6-11.7,10.1-2.5,5.6-7.1,11-14,40.1,1.8-.4,3.5-.4,5.2,0,1.7.4,3.2,1.2,4.7,2.3,6.4-24.2,17.5-37.2,17.5-37.2l16.9-7s.6-8.3-18.6-8.3Z"/>
          <path class="cls-1" d="M96,241.5h-12l.4-2.4c0-.2,4.3-24.7,3.5-34.1-.8-9.4-1.7-16.6-2.5-23-2-16-3.5-27.5-.7-57.9v-.3c7.2-34,12.3-43.9,15.4-49.8.6-1.1,1.1-2,1.5-3,2.6-5.8,8.9-11.1,13.1-11.1h0c9.5,0,15.8,2,18.7,5.9,1.6,2.2,1.5,4.2,1.5,4.6v1.3c-.1,0-17.6,7.2-17.6,7.2-1.9,2.4-14.9,19.5-19.5,48.5-3.1,19.4-.9,40.4.8,57.3,1.1,11,2.1,20.6,1.4,27.3-1.7,16.6-3.8,27.8-3.8,27.9l-.3,1.6h0ZM88,237.4h5.3c.6-3.6,2.1-13.1,3.4-26,.6-6.2-.3-15.5-1.4-26.3-1.7-17.2-3.9-38.5-.7-58.6,5.2-32.6,20-50.2,20.7-51l.3-.3,15.7-6.5c-1.2-2-5.3-5-16.6-5h0c-2.8,0-8,4.2-10.3,9.1-.5,1-1,2-1.6,3.2-3,5.7-7.9,15.2-14.9,48.5-2.7,29.8-1.3,41.1.7,56.7.8,6.4,1.7,13.7,2.5,23.2.7,8.3-2.1,26.3-3.2,32.9h0Z"/>
        </g>
        <g id="Tassles">
          <g>
            <path class="cls-5" d="M93,243.7s.8,21,3,32.1c2.2,11.1,5.7,30,8.1,30,2.4,0,4.1-2.6,4.9-4.4s-.4-16.3-1.6-21.7-2.9-15.6-4.4-20.9c-1.2-3.9-6.2-19.8-8.1-17.5l-1.9,2.4h0Z"/>
            <path class="cls-1" d="M104.1,307.8c-2.7,0-4.4-5.3-8.9-27.9l-.7-3.6c-2.3-11.2-3-31.7-3.1-32.5v-.9s2.3-3,2.3-3c.6-.7,1.3-1,2-.8,3.1.9,7.1,13.5,8.7,18.9,1.1,3.6,2.2,9.4,3.2,14.5.5,2.5.9,4.7,1.3,6.5,1,4.7,2.6,20.4,1.4,23.2-1.1,2.6-3.4,5.4-6.3,5.5h0,0ZM94.6,244.5c.2,4.1,1,21.3,2.9,30.9l.7,3.6c1.5,7.3,4.4,22.4,6.2,24.8,1.4-.2,2.6-1.9,3.2-3.4.4-1.8-.5-14.9-1.7-20.3-.4-1.8-.8-4.1-1.3-6.6-1-5-2.1-10.7-3.1-14.1-1.8-6.3-4.7-13.9-6.1-16l-.8,1h0Z"/>
          </g>
          <g>
            <path class="cls-5" d="M87.3,243.3s-4,21.5-3.5,33.1c.5,11.5.9,31.1,4.4,31.2s6.6-2.4,8.1-4.2,3.4-16.7,3-22.3-.4-16.2-1.3-21.6c-.7-4.1-4.1-20.7-7.4-18.4l-3.3,2.3h0Z"/>
            <path class="cls-1" d="M88.4,309.5h-.2c-3.9-.1-4.9-8.7-5.8-29.3l-.2-3.7c-.5-11.7,3.3-32.7,3.5-33.6l.2-.9,3.9-2.7c.8-.6,1.8-.6,2.6-.1,4,2.2,6.8,18,7.1,19.8.7,3.8.9,9.9,1.1,15.2,0,2.5.2,4.9.3,6.7.3,4.7-1.2,21.2-3.5,23.9-2,2.3-5.4,4.8-9,4.8h0ZM88.7,244.5c-.7,4-3.7,21.8-3.3,31.7l.2,3.8c.3,7.2,1,24,2.9,25.6h0c2.5,0,5.3-2,6.8-3.8,1.1-1.7,2.9-15.2,2.5-20.7-.1-1.9-.2-4.3-.3-6.8-.2-5.2-.4-11-1-14.5-1.4-8-4-16.4-5.3-17l-2.4,1.8h0Z"/>
          </g>
          <g>
            <path class="cls-5" d="M83.3,242.5s-6.1,20.1-7.2,31.5c-1.1,11.4-3.4,30.7-.7,31.6s5.5-.7,7-2.1,4.9-15.5,5.3-21.1c.4-5.6,1.8-15.9,1.8-21.5,0-4.2-.5-21.3-3.4-19.9l-2.9,1.4h0Z"/>
            <path class="cls-1" d="M77.1,307.9c-.7,0-1.4-.1-2.1-.4-3.2-1.1-3-8.9-.8-30l.4-3.7c1.1-11.5,7-31.1,7.2-31.9l.2-.8,3.6-1.7c.8-.4,1.6-.3,2.3.3,3,2.6,3.3,17,3.3,21.4,0,3.9-.6,9.8-1.2,15-.3,2.5-.5,4.8-.7,6.6-.4,4.8-3.7,20.4-6,22.5-1.6,1.5-3.9,2.8-6.3,2.8h0ZM76.1,303.8c1.9.5,4.1-.6,5.4-1.9,1.1-1.5,4.3-14.1,4.7-19.7.2-1.9.4-4.2.7-6.8.6-5.1,1.2-10.9,1.2-14.5,0-6.9-.8-15.6-1.8-17.8l-1.8.9c-1.1,3.9-5.9,20.4-6.8,30.2l-.4,3.7c-.8,7.5-2.3,23-1.2,25.8Z"/>
          </g>
        </g>
        <g>
          <ellipse class="cls-5" cx="91.7" cy="237.4" rx="7.9" ry="9.9"/>
          <path class="cls-1" d="M91.7,249.3c-5.3,0-9.6-5.4-9.6-11.9s4.3-11.9,9.6-11.9,9.6,5.4,9.6,11.9-4.3,11.9-9.6,11.9ZM91.7,229.5c-3.5,0-6.3,3.5-6.3,7.9s2.8,7.9,6.3,7.9,6.3-3.5,6.3-7.9-2.8-7.9-6.3-7.9Z"/>
        </g>
      </g>
    </g>
  </g>
</svg>