<?xml version="1.0" encoding="UTF-8"?>
<svg xmlns="http://www.w3.org/2000/svg" viewBox="0 0 498 332">
  <defs>
    <style>
      .cls-1 {
        fill: #f9df74;
      }

      .cls-1, .cls-2, .cls-3, .cls-4, .cls-5, .cls-6, .cls-7 {
        stroke-width: 0px;
      }

      .cls-2 {
        fill: #433479;
      }

      .cls-3 {
        fill: #372b62;
      }

      .cls-8 {
        fill: #ccbfed;
        stroke: #000;
        stroke-miterlimit: 10;
        stroke-width: 8px;
      }

      .cls-4 {
        fill: #f9eec2;
      }

      .cls-5 {
        fill: #181632;
      }

      .cls-6 {
        fill: #494170;
      }

      .cls-7 {
        fill: #656386;
      }
    </style>
  </defs>
  <g id="Backdrops">
    <rect class="cls-8" x="-79" y="-715" width="681" height="1080"/>
  </g>
  <g id="Home_Icon_2" data-name="Home Icon 2">
    <g id="Michael_Hat" data-name="Michael Hat">
      <g>
        <path class="cls-5" d="M53.16,129.37c-.2-4.63-1.56-7.1,0-11.8L271.76,27.14c.61-.19,1.25-.19,1.86,0l217.04,89.3c3.12,4.12,3.14,8.96-.61,10.26l-217.36,70.75L53.16,129.37Z"/>
        <path class="cls-3" d="M271.68,204.77L54.38,129.75c-3.75-1.29-3.69-7.94.08-9.13l217.3-85.81c.61-.19,1.25-.19,1.86,0l217.3,85.81c3.77,1.19,3.83,7.84.08,9.13l-217.3,75.02c-.66.23-1.36.23-2.03,0Z"/>
        <path class="cls-7" d="M490.9,116.45L273.86,27.14c-.61-.19-1.25-.19-1.86,0l-4.12,1.7v167.04l5.05,1.57,217.36-70.75c3.75-1.29,3.73-6.14.61-10.26Z"/>
        <path class="cls-2" d="M489.4,121.14l-217.3-85.81c-.61-.19-1.25-.19-1.86,0l-2.38.94v168.23l2.3.79c.66.23,1.36.23,2.03,0l217.3-75.02c3.75-1.29,3.69-7.94-.08-9.13Z"/>
        <path class="cls-6" d="M398.5,253.7c0,3.92-2.54,6.78-5.15,5.79-7.19-2.74-20.78-7.43-33.45-9.11-17.69-2.36-42.02-7.1-85.05,14.3-3.14,1.56-6.54,1.64-9.71.21-42.4-19.17-59.96-23.22-81.9-21.34-15.11,1.3-28.49,8.8-35.79,13.7-2.73,1.83-5.83-1.06-5.83-5.43v-117.86c0-2.92,1.44-5.41,3.42-5.9,8.6-2.14,31.39-7.68,44.64-9.68,16.57-2.5,56.42-6.24,80.38-6.24s56.45,5.26,82.42,9.65c19.32,3.27,35.37,5.62,42.32,6.6,2.1.3,3.7,2.87,3.7,5.95v119.34Z"/>
        <path class="cls-7" d="M269.53,120.57c-21.74,0-56.56,2.73-75.21,4.9v110.04c17.46.4,35.52,7.16,70.28,21.12,2.86,1.2,5.04,2.9,9.86.17,1.15-.66,2.09-1.02,3.37-1.61V120.74c-2.85-.11-5.64-.17-8.3-.17Z"/>
        <path class="cls-3" d="M269.77,273.55c-2.09,0-4.18-.45-6.18-1.35-40.2-18.17-58.14-22.88-80.03-21.01-14.49,1.24-27.46,8.68-33.9,13.01-2.92,1.95-6.27,1.62-8.97-.9-2.7-2.52-4.31-6.81-4.31-11.49v-117.86c0-6.67,3.28-12.32,7.79-13.45,9.09-2.26,31.68-7.74,44.98-9.75,16.95-2.56,56.91-6.28,80.92-6.28s55.28,5.01,83.02,9.7c19.65,3.33,36.07,5.72,42.22,6.59,4.81.68,8.45,6.52,8.45,13.58v119.35c0,4.26-1.33,8.19-3.64,10.79-2.31,2.6-5.26,3.49-8.09,2.4-6.87-2.62-20.23-7.25-32.6-8.9l-2.66-.36c-17.03-2.34-40.36-5.54-80.21,14.28-2.18,1.09-4.49,1.63-6.79,1.63ZM192.32,235.48c19.54,0,38.45,5.84,74.39,22.09,2.08.94,4.37.89,6.45-.15,41.99-20.88,66.61-17.51,84.6-15.04l2.63.36c12.29,1.64,25.35,6,32.86,8.79v-115.66c-8-1.14-23.17-3.39-41.37-6.47-27.45-4.65-58.68-9.6-81.81-9.6s-63.11,3.67-79.84,6.2c-12.55,1.89-33.8,7.01-43.34,9.38v113.85c7.54-4.84,20.99-12.03,36.05-13.32,3.19-.27,6.29-.42,9.37-.42Z"/>
        <path class="cls-1" d="M183.26,219.5c21.93-1.67,39.49,1.92,81.9,18.88,3.17,1.27,6.57,1.19,9.71-.19,43.02-18.94,67.36-14.74,85.05-12.66,12.61,1.49,26.12,5.6,33.34,8.03v-29.72c-7.22-2.43-20.73-6.54-33.34-8.03-17.86-2.1-42.5-6.36-86.31,13.22-2.31,1.03-4.83,1.08-7.17.14-43.33-17.4-61.02-21.08-83.17-19.39-15.52,1.18-29.21,8.15-36.36,12.46v29.65c.19-.07.38-.16.57-.27,7.3-4.34,20.68-10.97,35.79-12.12Z"/>
        <path class="cls-4" d="M273.6,209.02c-2.31,1.03-4.83,1.08-7.17.14-35.96-14.44-54.26-19.42-72.11-19.74v29.72c17.63.31,35.71,5.18,70.83,19.23,3.17,1.27,6.57,1.19,9.71-.19,1.85-.81,3.65-1.57,5.44-2.3v-29.72c-2.19.9-4.41,1.84-6.7,2.86Z"/>
      </g>
      <g id="Tissle_thingy" data-name="Tissle thingy">
        <g>
          <path class="cls-4" d="M157.04,74.59l-16.89,6.99s-15.06,17.59-20.18,49.89c-5.13,32.3,3.85,68.02,2.14,84.73-1.71,16.72-3.74,27.74-3.74,27.74h-8.65s4.36-24.92,3.57-34.72c-2.63-32.77-7.09-38.05-3.2-80.51,8.38-39.94,13.84-45.98,16.7-52.29,2.52-5.56,8.31-10.12,11.67-10.12,19.23,0,18.59,8.29,18.59,8.29Z"/>
          <path class="cls-4" d="M138.64,66.3c-3.36,0-9.15,4.56-11.67,10.12-2.54,5.6-7.13,11.01-13.99,40.07,1.75-.39,3.49-.41,5.2.02,1.65.41,3.2,1.2,4.65,2.32,6.38-24.2,17.51-37.25,17.51-37.25l16.89-6.99s.64-8.3-18.59-8.29Z"/>
          <path class="cls-1" d="M119.66,245.96h-11.96l.43-2.45c.04-.25,4.3-24.72,3.54-34.09-.76-9.43-1.68-16.64-2.49-23-2.03-15.96-3.5-27.49-.71-57.93l.04-.28c7.13-34,12.29-43.89,15.37-49.8.56-1.07,1.05-2.02,1.49-2.97,2.64-5.83,8.88-11.14,13.08-11.14h.03c9.53,0,15.81,1.99,18.67,5.91,1.6,2.2,1.54,4.21,1.51,4.6l-.1,1.31-17.54,7.25c-1.93,2.42-14.86,19.51-19.46,48.51-3.08,19.41-.95,40.41.76,57.28,1.12,11.03,2.09,20.56,1.4,27.32-1.7,16.63-3.75,27.82-3.77,27.93l-.29,1.57ZM111.71,241.92h5.35c.61-3.6,2.13-13.14,3.44-25.98.64-6.25-.3-15.54-1.4-26.3-1.74-17.16-3.91-38.51-.72-58.57,5.17-32.56,20.04-50.23,20.67-50.97l.26-.3,15.74-6.51c-1.17-2.03-5.32-4.97-16.56-4.97h-.03c-2.76,0-8.04,4.19-10.26,9.09-.46,1.02-.99,2.04-1.59,3.19-2.97,5.7-7.94,15.23-14.93,48.48-2.72,29.79-1.28,41.08.71,56.7.82,6.42,1.74,13.69,2.51,23.23.66,8.27-2.11,26.3-3.19,32.9Z"/>
        </g>
        <g id="Tassles">
          <g>
            <path class="cls-4" d="M116.66,248.2s.76,21,3,32.13c2.25,11.13,5.74,30.03,8.11,29.99,2.37-.04,4.12-2.61,4.91-4.44s-.41-16.32-1.58-21.72-2.91-15.64-4.44-20.86c-1.15-3.94-6.23-19.82-8.12-17.47l-1.88,2.36Z"/>
            <path class="cls-1" d="M127.76,312.3c-2.73,0-4.41-5.26-8.91-27.85l-.73-3.64c-2.26-11.2-3.02-31.66-3.05-32.53l-.03-.87,2.38-2.97c.55-.68,1.29-.96,2.04-.75,3.09.85,7.11,13.52,8.69,18.93,1.06,3.61,2.18,9.41,3.18,14.53.48,2.45.92,4.73,1.3,6.49,1.01,4.66,2.64,20.37,1.45,23.16-1.12,2.62-3.36,5.44-6.29,5.49h-.03ZM118.28,248.98c.17,4.05,1,21.33,2.92,30.88l.73,3.65c1.46,7.33,4.45,22.35,6.15,24.82,1.4-.25,2.58-1.93,3.2-3.37.43-1.76-.54-14.89-1.71-20.27-.39-1.79-.84-4.1-1.32-6.59-.98-5.02-2.08-10.71-3.08-14.11-1.85-6.32-4.65-13.86-6.11-16l-.79.98Z"/>
          </g>
          <g>
            <path class="cls-4" d="M110.97,247.76s-4,21.54-3.48,33.07c.53,11.53.95,31.08,4.37,31.19s6.55-2.42,8.12-4.25,3.37-16.73,2.99-22.33-.39-16.18-1.31-21.61c-.7-4.1-4.14-20.66-7.42-18.36l-3.28,2.3Z"/>
            <path class="cls-1" d="M112.06,314c-.08,0-.16,0-.24,0-3.9-.12-4.89-8.74-5.75-29.31l-.16-3.74c-.53-11.68,3.35-32.74,3.51-33.63l.16-.85,3.88-2.73c.83-.58,1.76-.63,2.63-.13,4.01,2.25,6.81,18.02,7.12,19.81.65,3.81.86,9.85,1.05,15.18.09,2.52.17,4.87.29,6.69.32,4.74-1.17,21.23-3.49,23.93-2.01,2.34-5.4,4.79-9.01,4.79ZM112.37,249.02c-.71,4-3.74,21.83-3.29,31.7l.16,3.76c.3,7.17,1,23.95,2.87,25.64h.02c2.52,0,5.26-2.03,6.77-3.8,1.06-1.67,2.86-15.21,2.5-20.72-.12-1.86-.21-4.26-.3-6.84-.18-5.17-.39-11.04-.99-14.53-1.36-7.97-4-16.41-5.32-17.03l-2.42,1.81Z"/>
          </g>
          <g>
            <path class="cls-4" d="M106.95,247.01s-6.05,20.07-7.17,31.49c-1.12,11.42-3.38,30.67-.68,31.64,2.7.97,5.53-.7,7.02-2.1s4.91-15.52,5.35-21.09c.45-5.58,1.85-15.94,1.83-21.49-.01-4.19-.54-21.28-3.45-19.86l-2.91,1.42Z"/>
            <path class="cls-1" d="M100.78,312.4c-.7,0-1.41-.11-2.11-.36-3.16-1.13-2.97-8.86-.83-30.05l.37-3.73c1.13-11.52,7-31.12,7.25-31.95l.25-.82,3.57-1.74c.79-.37,1.6-.27,2.3.32,3.03,2.57,3.31,17.01,3.32,21.37.01,3.86-.62,9.8-1.18,15.04-.27,2.51-.52,4.83-.66,6.65-.39,4.83-3.71,20.36-5.98,22.48-1.58,1.47-3.9,2.78-6.3,2.78ZM99.8,308.32c1.92.52,4.08-.65,5.38-1.86,1.08-1.46,4.28-14.14,4.73-19.71.15-1.85.4-4.23.67-6.78.55-5.12,1.16-10.92,1.15-14.51-.02-6.86-.77-15.64-1.76-17.8l-1.78.87c-1.13,3.87-5.88,20.45-6.83,30.21l-.37,3.74c-.76,7.53-2.33,23.03-1.19,25.84Z"/>
          </g>
        </g>
        <g>
          <ellipse class="cls-4" cx="115.38" cy="241.92" rx="7.95" ry="9.9"/>
          <path class="cls-1" d="M115.38,253.85c-5.28,0-9.57-5.35-9.57-11.92s4.29-11.92,9.57-11.92,9.57,5.35,9.57,11.92-4.29,11.92-9.57,11.92ZM115.38,234.04c-3.49,0-6.33,3.54-6.33,7.89s2.84,7.89,6.33,7.89,6.33-3.54,6.33-7.89-2.84-7.89-6.33-7.89Z"/>
        </g>
      </g>
    </g>
  </g>
</svg>