<?xml version="1.0" encoding="UTF-8"?>
<svg xmlns="http://www.w3.org/2000/svg" viewBox="0 0 486.5 326.75">
  <defs>
    <style>
      .cls-1 {
        fill: #cce3fb;
      }

      .cls-1, .cls-2, .cls-3, .cls-4, .cls-5, .cls-6, .cls-7 {
        stroke-width: 0px;
      }

      .cls-2 {
        fill: #433479;
      }

      .cls-3 {
        fill: #8cacf4;
      }

      .cls-4 {
        fill: #372b62;
      }

      .cls-5, .cls-8 {
        fill: #ccbfed;
      }

      .cls-8 {
        stroke: #000;
        stroke-miterlimit: 10;
        stroke-width: 8px;
      }

      .cls-6 {
        fill: #181632;
      }

      .cls-7 {
        fill: #494170;
      }
    </style>
  </defs>
  <g id="Backdrops">
    <rect class="cls-8" x="-112.5" y="-373" width="681" height="1080"/>
  </g>
  <g id="Home_Icon" data-name="Home Icon">
    <g id="Michael_Hat" data-name="Michael Hat">
      <g>
        <path class="cls-6" d="M14.22,125.86c-.21-4.63-1.61-7.1,0-11.81L240.59,23.63c.63-.19,1.3-.19,1.93,0l224.75,89.31c3.23,4.12,3.25,8.97-.63,10.26l-225.09,70.76L14.22,125.86Z"/>
        <path class="cls-4" d="M240.5,201.27L15.49,126.24c-3.88-1.3-3.82-7.95.08-9.14L240.59,31.29c.63-.19,1.3-.19,1.93,0l225.02,85.82c3.91,1.19,3.97,7.84.08,9.14l-225.02,75.03c-.69.23-1.41.23-2.1,0Z"/>
        <path class="cls-2" d="M465.96,117.64L240.95,31.82c-.63-.19-1.3-.19-1.93,0l-2.46.94v168.25l2.38.79c.69.23,1.41.23,2.1,0l225.02-75.03c3.88-1.3,3.82-7.95-.08-9.14Z"/>
        <path class="cls-7" d="M371.83,250.21c0,3.92-2.63,6.78-5.33,5.79-7.44-2.74-21.52-7.43-34.64-9.11-18.31-2.36-43.52-7.1-88.07,14.3-3.25,1.56-6.78,1.64-10.05.21-43.91-19.17-62.09-23.22-84.81-21.34-15.64,1.3-29.51,8.8-37.06,13.7-2.82,1.83-6.04-1.06-6.04-5.43v-117.87c0-2.92,1.49-5.41,3.54-5.9,8.9-2.14,32.5-7.68,46.22-9.68,17.16-2.5,58.42-6.24,83.24-6.24s58.46,5.26,85.34,9.66c20.01,3.27,36.63,5.62,43.82,6.61,2.18.3,3.83,2.87,3.83,5.95v119.36Z"/>
        <path class="cls-4" d="M238.53,270.06c-2.17,0-4.33-.45-6.4-1.35-41.62-18.17-60.2-22.89-82.87-21.01-15,1.24-28.43,8.68-35.1,13.01-3.02,1.95-6.5,1.62-9.29-.9-2.8-2.52-4.47-6.81-4.47-11.49v-117.87c0-6.67,3.39-12.32,8.06-13.45,9.42-2.26,32.81-7.74,46.58-9.75,17.55-2.56,58.93-6.28,83.8-6.28s57.24,5.01,85.97,9.71c20.35,3.33,37.36,5.72,43.72,6.59,4.99.68,8.75,6.52,8.75,13.58v119.36c0,4.26-1.37,8.19-3.77,10.8-2.4,2.61-5.45,3.49-8.38,2.4-7.11-2.62-20.95-7.25-33.76-8.9l-2.75-.36c-17.64-2.34-41.79-5.54-83.06,14.29-2.26,1.09-4.65,1.63-7.03,1.63ZM158.33,231.99c20.24,0,39.82,5.84,77.03,22.09,2.15.94,4.53.89,6.68-.15,43.48-20.89,68.98-17.51,87.6-15.04l2.72.36c12.72,1.64,26.25,6,34.03,8.79v-115.67c-8.29-1.14-23.99-3.39-42.84-6.47-28.43-4.65-60.76-9.6-84.72-9.6s-65.35,3.67-82.68,6.2c-12.99,1.89-35.01,7.01-44.88,9.38v113.86c7.81-4.84,21.74-12.03,37.33-13.32,3.3-.27,6.51-.42,9.71-.42Z"/>
        <path class="cls-5" d="M148.94,216c22.71-1.67,40.9,1.92,84.81,18.88,3.28,1.27,6.81,1.19,10.05-.19,44.55-18.94,69.75-14.74,88.07-12.66,13.06,1.49,27.05,5.6,34.52,8.03v-29.72c-7.47-2.43-21.47-6.54-34.52-8.03-18.49-2.1-44.01-6.36-89.38,13.22-2.39,1.03-5,1.08-7.42.14-44.87-17.41-63.19-21.08-86.13-19.4-16.07,1.18-30.25,8.15-37.65,12.47v29.65c.2-.07.4-.16.59-.27,7.55-4.34,21.42-10.98,37.06-12.12Z"/>
        <path class="cls-5" d="M242.66,205.75c-2.39,1.03-5,1.07-7.41.14-37.17-14.42-56.09-19.39-74.54-19.71v29.67c18.23.31,36.92,5.17,73.22,19.2,3.27,1.26,6.79,1.19,10.04-.19,1.91-.81,3.78-1.57,5.62-2.3v-29.67c-2.26.9-4.56,1.84-6.93,2.86Z"/>
      </g>
      <g id="Tissle_thingy" data-name="Tissle thingy">
        <g>
          <path class="cls-1" d="M121.8,71.08l-17.49,6.99s-15.59,17.59-20.9,49.9c-5.31,32.3,3.98,68.02,2.21,84.74-1.77,16.72-3.87,27.74-3.87,27.74h-8.96s4.51-24.92,3.7-34.72c-2.72-32.78-7.35-38.05-3.32-80.52,8.68-39.95,14.33-45.99,17.3-52.3,2.61-5.56,8.61-10.12,12.08-10.12,19.91,0,19.25,8.29,19.25,8.29Z"/>
          <path class="cls-3" d="M83.08,242.47h-12.38l.44-2.45c.04-.25,4.45-24.72,3.67-34.09-.78-9.43-1.74-16.64-2.57-23.01-2.11-15.96-3.63-27.49-.74-57.94l.04-.28c7.38-34,12.73-43.9,15.92-49.81.58-1.07,1.09-2.02,1.54-2.98,2.74-5.83,9.19-11.15,13.55-11.15h.03c9.87,0,16.37,1.99,19.33,5.91,1.66,2.2,1.59,4.21,1.56,4.6l-.1,1.31-18.16,7.26c-2,2.42-15.39,19.51-20.15,48.52-3.19,19.42-.99,40.41.79,57.28,1.16,11.04,2.16,20.57,1.45,27.32-1.76,16.63-3.88,27.83-3.9,27.94l-.3,1.57ZM74.85,238.43h5.54c.63-3.6,2.2-13.14,3.56-25.98.66-6.25-.31-15.54-1.44-26.31-1.8-17.16-4.05-38.51-.75-58.57,5.35-32.56,20.75-50.24,21.4-50.98l.27-.3,16.3-6.51c-1.22-2.03-5.51-4.97-17.15-4.97h-.03c-2.86,0-8.33,4.2-10.62,9.09-.48,1.02-1.03,2.04-1.65,3.19-3.08,5.7-8.23,15.23-15.46,48.49-2.82,29.79-1.33,41.08.73,56.71.85,6.42,1.81,13.69,2.6,23.24.69,8.27-2.18,26.31-3.3,32.91Z"/>
        </g>
        <g id="Tassles">
          <g>
            <path class="cls-1" d="M79.98,244.71s.78,21,3.11,32.14c2.33,11.13,5.94,30.03,8.4,30,2.46-.04,4.27-2.61,5.09-4.44s-.42-16.32-1.64-21.72c-1.21-5.4-3.01-15.64-4.6-20.86-1.19-3.94-6.46-19.83-8.41-17.47l-1.95,2.36Z"/>
            <path class="cls-3" d="M91.47,308.82c-2.83,0-4.57-5.26-9.22-27.85l-.75-3.64c-2.34-11.2-3.13-31.66-3.16-32.53l-.03-.87,2.46-2.97c.57-.68,1.34-.96,2.11-.75,3.2.85,7.36,13.52,9,18.94,1.09,3.61,2.26,9.41,3.29,14.53.49,2.45.95,4.73,1.35,6.49,1.05,4.66,2.74,20.38,1.5,23.17-1.16,2.62-3.48,5.44-6.51,5.49h-.03ZM81.66,245.48c.18,4.05,1.03,21.33,3.03,30.88l.76,3.65c1.51,7.33,4.61,22.35,6.37,24.82,1.45-.25,2.68-1.93,3.32-3.37.44-1.76-.56-14.89-1.77-20.28-.4-1.79-.87-4.1-1.37-6.59-1.01-5.02-2.16-10.71-3.18-14.11-1.92-6.32-4.82-13.87-6.33-16l-.81.98Z"/>
          </g>
          <g>
            <path class="cls-1" d="M74.08,244.27s-4.14,21.54-3.6,33.07c.54,11.53.99,31.09,4.52,31.19s6.78-2.42,8.41-4.25c1.63-1.83,3.49-16.73,3.1-22.33s-.4-16.18-1.36-21.62c-.73-4.1-4.29-20.67-7.68-18.37l-3.39,2.3Z"/>
            <path class="cls-3" d="M75.21,310.52c-.08,0-.16,0-.25,0-4.04-.12-5.06-8.74-5.95-29.32l-.17-3.74c-.55-11.68,3.47-32.74,3.64-33.63l.16-.85,4.02-2.73c.85-.58,1.82-.63,2.73-.14,4.15,2.25,7.05,18.02,7.37,19.81.67,3.81.89,9.85,1.09,15.18.09,2.52.18,4.87.3,6.69.33,4.74-1.21,21.23-3.61,23.93-2.08,2.34-5.6,4.79-9.33,4.79ZM75.53,245.53c-.73,4-3.87,21.83-3.41,31.71l.17,3.76c.31,7.17,1.04,23.96,2.98,25.64h.02c2.61,0,5.44-2.03,7.01-3.8,1.1-1.67,2.96-15.22,2.58-20.72-.13-1.86-.22-4.26-.31-6.84-.19-5.17-.4-11.04-1.02-14.53-1.41-7.98-4.14-16.41-5.51-17.03l-2.51,1.81Z"/>
          </g>
          <g>
            <path class="cls-1" d="M69.93,243.52s-6.26,20.07-7.42,31.49c-1.16,11.42-3.5,30.67-.71,31.64s5.73-.7,7.27-2.1,5.08-15.52,5.54-21.1c.46-5.58,1.91-15.94,1.9-21.5-.01-4.19-.56-21.28-3.57-19.87l-3.01,1.42Z"/>
            <path class="cls-3" d="M63.53,308.92c-.73,0-1.46-.11-2.19-.36-3.27-1.13-3.07-8.86-.85-30.05l.39-3.73c1.17-11.52,7.25-31.12,7.51-31.95l.26-.82,3.7-1.74c.81-.37,1.66-.27,2.38.32,3.14,2.57,3.42,17.01,3.44,21.38.01,3.86-.64,9.8-1.22,15.04-.28,2.51-.53,4.84-.68,6.65-.4,4.84-3.84,20.36-6.19,22.48-1.63,1.47-4.04,2.78-6.53,2.78ZM62.52,304.84c1.99.52,4.23-.65,5.57-1.86,1.11-1.46,4.43-14.15,4.89-19.71.15-1.85.42-4.23.7-6.78.56-5.12,1.2-10.92,1.19-14.51-.02-6.86-.8-15.65-1.82-17.81l-1.84.87c-1.17,3.87-6.09,20.45-7.08,30.22l-.39,3.74c-.79,7.54-2.41,23.03-1.23,25.85Z"/>
          </g>
        </g>
        <g>
          <ellipse class="cls-1" cx="78.66" cy="238.43" rx="8.23" ry="9.91"/>
          <path class="cls-3" d="M78.66,250.35c-5.47,0-9.91-5.35-9.91-11.92s4.45-11.92,9.91-11.92,9.91,5.35,9.91,11.92-4.45,11.92-9.91,11.92ZM78.66,230.54c-3.61,0-6.56,3.54-6.56,7.89s2.94,7.89,6.56,7.89,6.56-3.54,6.56-7.89-2.94-7.89-6.56-7.89Z"/>
        </g>
      </g>
    </g>
  </g>
</svg>