<?xml version="1.0" encoding="UTF-8"?>
<svg xmlns="http://www.w3.org/2000/svg" viewBox="0 0 287 288.5">
  <defs>
    <style>
      .cls-1 {
        fill: #cce3fb;
      }

      .cls-1, .cls-2, .cls-3 {
        stroke-width: 0px;
      }

      .cls-4 {
        fill: #ccbfed;
        stroke: #000;
        stroke-miterlimit: 10;
        stroke-width: 8px;
      }

      .cls-2 {
        fill: #494170;
      }

      .cls-3 {
        fill: #656386;
      }
    </style>
  </defs>
  <g id="Backdrops">
    <rect class="cls-4" x="-198" y="-393.5" width="681" height="1080"/>
  </g>
  <g id="Profile_Icon" data-name="Profile Icon">
    <g id="Icon">
      <g id="Backdrop">
        <circle class="cls-2" cx="142.5" cy="146.5" r="122"/>
        <circle class="cls-1" cx="142.5" cy="95.37" r="33.19"/>
        <path class="cls-1" d="M206.19,202.88c0,22.37-28.44,40.5-63.53,40.5s-63.53-18.13-63.53-40.5,28.84-54.59,63.92-54.59,63.13,32.22,63.13,54.59Z"/>
        <path class="cls-3" d="M146.09,34.37c-37.17,0-70.05,18.38-90.04,46.55,19.34-16.71,44.54-26.81,72.1-26.81,60.94,0,110.34,49.4,110.34,110.34,0,23.77-7.52,45.78-20.3,63.79,23.42-20.23,38.24-50.15,38.24-83.52,0-60.94-49.4-110.34-110.34-110.34Z"/>
      </g>
    </g>
  </g>
</svg>