<?xml version="1.0" encoding="UTF-8"?>
<svg xmlns="http://www.w3.org/2000/svg" viewBox="0 0 368 282.62">
  <defs>
    <style>
      .cls-1 {
        fill: #cce3fb;
      }

      .cls-1, .cls-2, .cls-3, .cls-4, .cls-5 {
        stroke-width: 0px;
      }

      .cls-2 {
        fill: #8cacf4;
      }

      .cls-3 {
        fill: #372b62;
      }

      .cls-6 {
        fill: #ccbfed;
        stroke: #000;
        stroke-miterlimit: 10;
        stroke-width: 8px;
      }

      .cls-4 {
        fill: #494170;
      }

      .cls-5 {
        fill: #53239b;
      }
    </style>
  </defs>
  <g id="Backdrops">
    <rect class="cls-6" x="-141" y="-395.38" width="681" height="1080"/>
  </g>
  <g id="Quiz_Icon" data-name="Quiz Icon">
    <g id="Quiz">
      <path id="Outline" class="cls-4" d="M166.36,91.6c-13.19-13-30.66-20.05-49.18-19.76-17.91.25-34.79,7.42-47.55,20.19-12.75,12.77-19.9,29.66-20.13,47.57-.28,22.22,10.28,43.3,28.24,56.4,5.07,3.7,8.1,9.77,8.1,16.25v22.06c0,17.82,14.49,32.31,32.31,32.31s32.31-14.49,32.31-32.31v-22.3c0-6.32,3.04-12.32,8.14-16.04,17.66-12.9,28.21-33.64,28.21-55.48,0-18.52-7.26-35.88-20.45-48.89ZM118.16,254.19c-10.96,0-19.88-8.92-19.88-19.88v-3.42h39.76v3.42c0,10.96-8.92,19.88-19.88,19.88ZM151.28,185.93c-8.29,6.05-13.24,15.8-13.24,26.08v8.32h-39.76v-8.08c0-10.43-4.94-20.26-13.2-26.29-14.72-10.73-23.37-28-23.14-46.2.38-30.18,25.25-55.07,55.42-55.49,15.19-.19,29.49,5.54,40.28,16.19,10.8,10.65,16.75,24.87,16.75,40.04,0,17.89-8.64,34.87-23.11,45.44Z"/>
      <g id="Bulb">
        <path class="cls-2" d="M157.54,100.45c-10.8-10.65-25.09-16.38-40.28-16.19-30.18.42-55.04,25.31-55.42,55.49-.23,18.2,8.42,35.47,23.14,46.2,8.27,6.03,13.2,15.86,13.2,26.29v8.08h39.76v-8.32c0-10.27,4.95-20.02,13.24-26.08,14.47-10.57,23.11-27.55,23.11-45.44,0-15.17-5.95-29.39-16.75-40.04ZM114.74,130.83v24.1c0,.08-.08.17-.17.17h-24.33c-.08,0-.17-.08-.17-.17v-31.92c0-.08.08-.17.17-.17h16.57c4.37,0,7.93,3.56,7.93,7.93v.05ZM146.23,154.93c0,.08-.08.17-.17.17h-24.33c-.08,0-.17-.08-.17-.17v-24.1c0-4.4,3.58-7.98,7.98-7.98h16.51c.08,0,.17.08.17.17v31.92Z"/>
        <path class="cls-1" d="M157.93,100.52c-10.8-10.65-25.09-16.38-40.29-16.19-2.4.03-4.77.24-7.09.57,11.84,1.68,22.78,7.06,31.46,15.61,10.8,10.65,16.75,24.87,16.75,40.04,0,17.89-8.64,34.87-23.11,45.44-8.29,6.05-13.24,15.8-13.24,26.08v8.32h15.92v-8.32c0-10.27,4.95-20.02,13.24-26.08,14.47-10.57,23.11-27.55,23.11-45.44,0-15.17-5.95-29.39-16.75-40.04Z"/>
        <path class="cls-1" d="M98.17,231.81v2.5c0,10.96,8.92,19.88,19.88,19.88s19.88-8.92,19.88-19.88v-3.42h-38.89c-.3.3-.59.61-.87.92Z"/>
        <rect class="cls-2" x="19" y="73.62" width="14" height="41" rx="7" ry="7" transform="translate(-71.65 93.43) rotate(-74.15)"/>
        <rect class="cls-2" x="36" y="37.62" width="14" height="41" rx="7" ry="7" transform="translate(-28.51 47.43) rotate(-45)"/>
        <rect class="cls-2" x="76" y="24.63" width="14" height="41" rx="7" ry="7" transform="translate(-8.55 21.79) rotate(-14.23)"/>
      </g>
      <path id="Book" class="cls-5" d="M146.07,116.01h-16.51c-4.57,0-8.66,2.08-11.38,5.35-2.71-3.26-6.8-5.35-11.36-5.35h-16.57c-3.86,0-6.99,3.14-6.99,6.99v31.92c0,3.86,3.14,6.99,6.99,6.99h24.33c1.31,0,2.53-.37,3.58-1,1.05.63,2.27,1,3.58,1h24.33c3.86,0,6.99-3.14,6.99-6.99v-31.92c0-3.86-3.14-6.99-6.99-6.99ZM114.58,155.09h-24.33c-.08,0-.17-.08-.17-.17v-31.92c0-.08.08-.17.17-.17h16.57c4.37,0,7.93,3.56,7.93,7.93v24.16c0,.08-.08.17-.17.17ZM146.23,154.93c0,.08-.08.17-.17.17h-24.33c-.08,0-.17-.08-.17-.17v-24.1c0-4.4,3.58-7.98,7.98-7.98h16.51c.08,0,.17.08.17.17v31.92Z"/>
      <g id="Bubble">
        <path class="cls-3" d="M348.42,222.03l-20.94-41.89c12.2-15.64,19.22-33.95,19.22-53.53,0-57.43-60.34-103.98-134.77-103.98-44.59,0-84.12,16.71-108.65,42.46,5.57-1.54,11.35-2.39,17.26-2.47,18.52-.28,36,6.76,49.18,19.76,13.19,13.01,27.27,29.08,27.27,49.19,0,33.53-6.7,49.44-25.14,64.53-4.89,4-12.57,11.28-12.57,17.6l.41,6.76c17.6,6.5,31.43,10.14,52.24,10.14s39.89-3.53,57.27-9.84l68.04,15.52c8.25,1.88,14.97-6.68,11.19-14.24ZM229.77,189.39c-5.62,0-10.17-3.73-10.17-8.34s4.56-8.34,10.17-8.34,10.17,3.73,10.17,8.34-4.56,8.34-10.17,8.34ZM244.21,136.94c-3.62,1.41-5.91,4.61-5.91,7.89v11.87c0,5.79-3.28,8.48-9.52,8.48-5.91,0-10.17-3.68-10.17-8.21v-10.62c0-4.54.98-9.41,3.61-14.26,1.64-2.42,5.25-6.72,11.16-8.61,6.89-2.42,19.86-7.54,19.34-16.63-.46-8.12-8.5-14.71-18.41-15.09-7.43-.29-14.01,2.88-17.55,7.71-1.84,2.52-5.1,4.11-8.68,4.11h-.35c-7.76,0-12.55-6.91-8.62-12.4,7.08-9.89,20.35-16.45,35.42-16.1,21.07.49,38.12,14.58,38.56,31.85.35,13.71-15.09,24.63-28.87,30.01Z"/>
        <path class="cls-4" d="M213.4,38.4c-31.44,0-59.98,9.54-81.04,25.07,13.79,2.17,26.55,8.5,36.79,18.38,13.66-4.3,28.59-6.67,44.25-6.67,4.17,0,8.28.17,12.33.5,2.84-.46,5.78-.68,8.8-.61,8.63.2,16.58,2.69,23,6.73,35.78,11.22,62.77,35.66,70.75,65.47,1.59-5.94,2.43-12.09,2.43-18.4,0-49.98-52.52-90.5-117.3-90.5Z"/>
      </g>
    </g>
  </g>
</svg>